#N canvas 5 17 1017 277 12;
#X obj 30 56 throw~ amb1;
#X obj 60 136 throw~ amb2;
#X obj 120 56 throw~ amb3;
#X obj 150 136 throw~ amb4;
#X obj 210 56 throw~ amb5;
#X obj 240 136 throw~ amb6;
#X obj 300 56 throw~ amb7;
#X obj 330 136 throw~ amb8;
#X obj 390 56 throw~ amb9;
#X obj 420 136 throw~ amb10;
#X obj 490 56 throw~ amb11;
#X obj 520 136 throw~ amb12;
#X obj 590 56 throw~ amb13;
#X obj 620 136 throw~ amb14;
#X obj 690 56 throw~ amb15;
#X obj 720 136 throw~ amb16;
#X obj 21 21 catch~ amb1_A;
#X obj 131 21 catch~ amb3_A;
#X obj 51 101 catch~ amb2_A;
#X obj 161 101 catch~ amb4_A;
#X obj 241 21 catch~ amb5_A;
#X obj 271 101 catch~ amb6_A;
#X obj 351 21 catch~ amb7_A;
#X obj 381 101 catch~ amb8_A;
#X obj 461 21 catch~ amb9_A;
#X obj 491 101 catch~ amb10_A;
#X obj 581 21 catch~ amb11_A;
#X obj 611 101 catch~ amb12_A;
#X obj 701 21 catch~ amb13_A;
#X obj 731 101 catch~ amb14_A;
#X obj 821 21 catch~ amb15_A;
#X obj 851 101 catch~ amb16_A;
#X obj 30 246 throw~ amb1;
#X obj 60 326 throw~ amb2;
#X obj 120 246 throw~ amb3;
#X obj 150 326 throw~ amb4;
#X obj 210 246 throw~ amb5;
#X obj 240 326 throw~ amb6;
#X obj 300 246 throw~ amb7;
#X obj 330 326 throw~ amb8;
#X obj 390 246 throw~ amb9;
#X obj 420 326 throw~ amb10;
#X obj 490 246 throw~ amb11;
#X obj 520 326 throw~ amb12;
#X obj 590 246 throw~ amb13;
#X obj 620 326 throw~ amb14;
#X obj 690 246 throw~ amb15;
#X obj 720 326 throw~ amb16;
#X obj 40 216 catch~ amb1_B;
#X obj 70 296 catch~ amb2_B;
#X obj 150 216 catch~ amb3_B;
#X obj 180 296 catch~ amb4_B;
#X obj 260 216 catch~ amb5_B;
#X obj 290 296 catch~ amb6_B;
#X obj 370 216 catch~ amb7_B;
#X obj 400 296 catch~ amb8_B;
#X obj 480 216 catch~ amb9_B;
#X obj 510 296 catch~ amb10_B;
#X obj 600 216 catch~ amb11_B;
#X obj 630 296 catch~ amb12_B;
#X obj 720 216 catch~ amb13_B;
#X obj 750 296 catch~ amb14_B;
#X obj 840 216 catch~ amb15_B;
#X obj 870 296 catch~ amb16_B;
#X text 4 5 A;
#X text 2 189 B;
#X connect 16 0 0 0;
#X connect 17 0 2 0;
#X connect 18 0 1 0;
#X connect 19 0 3 0;
#X connect 20 0 4 0;
#X connect 21 0 5 0;
#X connect 22 0 6 0;
#X connect 23 0 7 0;
#X connect 24 0 8 0;
#X connect 25 0 9 0;
#X connect 26 0 10 0;
#X connect 27 0 11 0;
#X connect 28 0 12 0;
#X connect 29 0 13 0;
#X connect 30 0 14 0;
#X connect 31 0 15 0;
#X connect 48 0 32 0;
#X connect 49 0 33 0;
#X connect 50 0 34 0;
#X connect 51 0 35 0;
#X connect 52 0 36 0;
#X connect 53 0 37 0;
#X connect 54 0 38 0;
#X connect 55 0 39 0;
#X connect 56 0 40 0;
#X connect 57 0 41 0;
#X connect 58 0 42 0;
#X connect 59 0 43 0;
#X connect 60 0 44 0;
#X connect 61 0 45 0;
#X connect 62 0 46 0;
#X connect 63 0 47 0;
