#N canvas 0 0 1440 878 12;
#X obj 211 -244 noise~;
#X obj 396 320 dac~ 1 2;
#X obj 211 -196 *~ 0.1;
#X obj 211 -220 hip~ 4000;
#X obj 413 30 catch~ amb1;
#X obj 453 54 catch~ amb2;
#X obj 503 30 catch~ amb3;
#X obj 543 54 catch~ amb4;
#X obj 593 30 catch~ amb5;
#X obj 633 54 catch~ amb6;
#X obj 683 30 catch~ amb7;
#X obj 773 30 catch~ amb9;
#X obj 723 54 catch~ amb8;
#X obj 813 54 catch~ amb10;
#X obj 873 30 catch~ amb11;
#X obj 913 54 catch~ amb12;
#X obj 973 30 catch~ amb13;
#X obj 1013 54 catch~ amb14;
#X obj 1073 30 catch~ amb15;
#X obj 1113 54 catch~ amb16;
#X obj 193 -97 loadbang;
#X obj 404 292 *~;
#X obj 444 292 *~;
#X obj 113 119 hsl 128 15 0 127 0 0 empty empty empty -2 -8 0 10 -262144
-1 -1 8700 1;
#X obj 111 189 / 127;
#X obj 111 213 pack 0 100;
#X obj 111 237 line~;
#X obj 110 137 tgl 15 0 empty empty mute 17 7 0 10 -262144 -1 -1 0
1;
#X obj 252 190 sel 1;
#X msg 252 214 0;
#X msg 290 214 bang;
#X obj 257 120 tgl 15 0 empty empty reverb 17 7 0 10 -262144 -1 -1
0 1;
#X msg 441 153 vis \$1;
#X obj 578 160 vstplugin~ 16 2;
#X f 37;
#X obj 590 112 vstplugin~ 16 16;
#X f 33;
#X msg 915 139 open -e /Library/Audio/Plug-Ins/VST/IEM/BinauralDecoder.vst
;
#X msg 193 -5 open -e /Library/Audio/Plug-Ins/VST/IEM/FdnReverb.vst
;
#X obj 257 140 tgl 15 0 empty empty decoder 17 7 0 10 -262144 -1 -1
0 1;
#X msg 441 173 vis \$1;
#X obj 938 108 loadbang;
#X connect 0 0 3 0;
#X connect 3 0 2 0;
#X connect 4 0 34 0;
#X connect 5 0 34 1;
#X connect 6 0 34 2;
#X connect 7 0 34 3;
#X connect 8 0 34 4;
#X connect 9 0 34 5;
#X connect 10 0 34 6;
#X connect 11 0 34 8;
#X connect 12 0 34 7;
#X connect 13 0 34 9;
#X connect 14 0 34 10;
#X connect 15 0 34 11;
#X connect 16 0 34 12;
#X connect 17 0 34 13;
#X connect 18 0 34 14;
#X connect 19 0 34 15;
#X connect 20 0 36 0;
#X connect 21 0 1 0;
#X connect 22 0 1 1;
#X connect 23 0 24 0;
#X connect 24 0 25 0;
#X connect 25 0 26 0;
#X connect 26 0 22 1;
#X connect 26 0 21 1;
#X connect 27 0 28 0;
#X connect 28 0 29 0;
#X connect 28 1 30 0;
#X connect 29 0 25 0;
#X connect 30 0 23 0;
#X connect 31 0 32 0;
#X connect 32 0 34 0;
#X connect 33 0 21 0;
#X connect 33 1 22 0;
#X connect 34 0 33 0;
#X connect 34 1 33 1;
#X connect 34 2 33 2;
#X connect 34 3 33 3;
#X connect 34 4 33 4;
#X connect 34 5 33 5;
#X connect 34 6 33 6;
#X connect 34 7 33 7;
#X connect 34 8 33 8;
#X connect 34 9 33 9;
#X connect 34 10 33 10;
#X connect 34 11 33 11;
#X connect 34 12 33 12;
#X connect 34 13 33 13;
#X connect 34 14 33 14;
#X connect 34 15 33 15;
#X connect 35 0 33 0;
#X connect 36 0 34 0;
#X connect 37 0 38 0;
#X connect 38 0 33 0;
#X connect 39 0 35 0;
#X coords 0 -1 1 1 220 60 1 100 100;
