#N canvas 344 184 861 514 12;
#X floatatom 84 -52 5 0 0 0 - - -;
#X obj 139 252 osc~;
#X obj 139 466 *~;
#X obj 84 85 *;
#X obj 202 411 line~;
#X obj 202 189 inlet;
#X obj 84 -76 inlet;
#X obj 139 490 outlet~;
#X obj 202 310 *;
#X obj -1 45 r \$0-delta;
#X obj -19 67 *;
#X obj 66 120 +;
#X obj 262 249 v \$2;
#X obj 305 97 symbol harmamp, f 15;
#X obj 306 120 pack s f, f 18;
#X obj 429 91 f \$1;
#X msg 306 145 \$1\$2;
#X obj 306 168 symbol;
#X symbolatom 306 192 10 0 0 0 - - -;
#X msg 306 215 symbol \$1;
#X obj 305 68 t b b;
#X obj 262 298 s \$0-delta;
#X msg 262 221 bang;
#X floatatom 272 274 5 0 0 0 - - -;
#X obj 202 435 pow~ 2;
#X floatatom 158 339 5 0 0 0 - - -;
#X obj 202 387 pack 0 100;
#X obj 230 338 r harmonics;
#X obj 230 362 unpack;
#X obj 305 20 r harmonics;
#X msg 305 44 bang;
#X obj 102 56 f \$1;
#X obj 102 32 loadbang;
#X obj 67 221 *~;
#X obj 85 193 r~ noise_mod;
#X obj 66 144 sig~;
#X connect 0 0 3 0;
#X connect 0 0 10 0;
#X connect 1 0 2 0;
#X connect 2 0 7 0;
#X connect 3 0 11 1;
#X connect 4 0 24 0;
#X connect 5 0 8 0;
#X connect 5 0 22 0;
#X connect 6 0 0 0;
#X connect 8 0 25 0;
#X connect 8 0 26 0;
#X connect 9 0 10 1;
#X connect 10 0 11 0;
#X connect 11 0 35 0;
#X connect 12 0 23 0;
#X connect 12 0 21 0;
#X connect 12 0 8 1;
#X connect 13 0 14 0;
#X connect 14 0 16 0;
#X connect 15 0 14 1;
#X connect 16 0 17 0;
#X connect 17 0 18 0;
#X connect 18 0 19 0;
#X connect 19 0 12 1;
#X connect 20 0 13 0;
#X connect 20 1 15 0;
#X connect 22 0 12 0;
#X connect 24 0 2 1;
#X connect 26 0 4 0;
#X connect 27 0 28 0;
#X connect 28 1 26 1;
#X connect 29 0 30 0;
#X connect 30 0 20 0;
#X connect 31 0 3 1;
#X connect 32 0 31 0;
#X connect 33 0 1 0;
#X connect 34 0 33 1;
#X connect 35 0 33 0;
