#N canvas 20 50 1420 828 12;
#X obj 179 250 >=;
#X obj 265 231 <=;
#X floatatom 179 130 5 0 0 0 - - -;
#X obj 257 170 float \$1;
#X obj 329 548 tabwrite array1;
#X floatatom 1020 209 5 0 0 0 - - -;
#X obj 329 495 line;
#X obj 225 451 pack 0.5 1000;
#X obj 440 372 del 1000;
#X obj 329 519 pow 2;
#X obj 969 111 r unison_fade;
#X obj 970 26 loadbang;
#X obj 440 429 pack 0 1000;
#X obj 296 70 tgl 15 0 empty empty empty 17 7 0 10 -262144 -1 -1 0
1;
#X obj 179 99 spigot;
#X obj 209 227 - 0.5;
#X obj 295 208 + 0.5;
#X obj 1084 194 * 50;
#X obj 1084 170 random 10;
#X floatatom 1084 218 5 0 0 0 - - -;
#X obj 1066 274 +;
#X obj 1066 298 s \$0-attack;
#X obj 313 425 r \$0-attack;
#X obj 493 280 r \$0-attack;
#X obj 970 50 s \$0-bang;
#X obj 257 144 r \$0-bang;
#X obj 431 477 r \$0-bang;
#X floatatom 1184 218 5 0 0 0 - - -;
#X obj 1166 274 +;
#X obj 1184 170 random 15;
#X obj 1166 298 s \$0-release;
#X obj 514 400 r \$0-release;
#X obj 1084 111 r midi_note;
#X obj 1084 134 bng 15 250 50 0 empty empty empty 17 7 0 10 -262144
-1 -1;
#X obj 225 281 +;
#X obj 1184 194 * 500;
#X obj 179 57 r midi_note;
#X obj 225 308 sel 2;
#X obj 179 153 t f f;
#X obj 514 373 r note_followers_min;
#X obj 440 401 f;
#X obj 225 422 f;
#X obj 263 394 r note_followers_max;
#X obj 493 341 +;
#X obj 511 314 * 0.3;
#X obj 296 43 r note_followers_ring_on;
#X obj 353 232 >=;
#X obj 439 213 <=;
#X floatatom 353 142 5 0 0 0 - - -;
#X obj 383 209 - 0.5;
#X obj 469 190 + 0.5;
#X obj 431 126 r \$0-bang;
#X obj 353 259 +;
#X obj 353 286 sel 2;
#X obj 353 165 t f f;
#X obj 431 152 float \$2;
#X obj 431 504 float \$3;
#X connect 0 0 34 0;
#X connect 1 0 34 1;
#X connect 2 0 38 0;
#X connect 3 0 15 0;
#X connect 3 0 16 0;
#X connect 5 0 20 0;
#X connect 5 0 28 0;
#X connect 6 0 9 0;
#X connect 7 0 6 0;
#X connect 8 0 40 0;
#X connect 9 0 4 0;
#X connect 10 0 5 0;
#X connect 11 0 24 0;
#X connect 12 0 6 0;
#X connect 13 0 14 1;
#X connect 14 0 2 0;
#X connect 14 0 48 0;
#X connect 15 0 0 1;
#X connect 16 0 1 1;
#X connect 17 0 19 0;
#X connect 18 0 17 0;
#X connect 19 0 20 1;
#X connect 20 0 21 0;
#X connect 22 0 7 1;
#X connect 23 0 43 0;
#X connect 23 0 44 0;
#X connect 25 0 3 0;
#X connect 26 0 56 0;
#X connect 27 0 28 1;
#X connect 28 0 30 0;
#X connect 29 0 35 0;
#X connect 31 0 12 1;
#X connect 32 0 33 0;
#X connect 33 0 18 0;
#X connect 33 0 29 0;
#X connect 33 0 5 0;
#X connect 34 0 37 0;
#X connect 35 0 27 0;
#X connect 36 0 14 0;
#X connect 37 0 41 0;
#X connect 37 0 8 0;
#X connect 38 0 0 0;
#X connect 38 1 1 0;
#X connect 39 0 40 1;
#X connect 40 0 12 0;
#X connect 41 0 7 0;
#X connect 42 0 41 1;
#X connect 43 0 8 1;
#X connect 44 0 43 1;
#X connect 45 0 13 0;
#X connect 46 0 52 0;
#X connect 47 0 52 1;
#X connect 48 0 54 0;
#X connect 49 0 46 1;
#X connect 50 0 47 1;
#X connect 51 0 55 0;
#X connect 52 0 53 0;
#X connect 53 0 41 0;
#X connect 53 0 8 0;
#X connect 54 0 46 0;
#X connect 54 1 47 0;
#X connect 55 0 49 0;
#X connect 55 0 50 0;
#X connect 56 0 4 1;
