#N canvas 20 50 723 711 12;
#X obj 307 279 tgl 40 0 empty empty empty 17 7 0 10 -228856 -1 -1 0
1;
#X obj 157 335 *~;
#X obj 67 226 mtof;
#X obj 172 219 / 127;
#X obj 67 193 unpack float float;
#X obj 128 143 inlet;
#X obj 157 359 outlet~;
#X obj 67 289 osc~;
#X obj 172 247 else/adsr~ 10 40 0.5 200;
#X msg 391 160 \$1 10;
#X obj 465 200 del 200;
#X obj 438 299 line;
#X msg 465 224 0 8000;
#X connect 1 0 6 0;
#X connect 2 0 7 0;
#X connect 3 0 9 0;
#X connect 4 0 2 0;
#X connect 4 1 3 0;
#X connect 5 0 4 0;
#X connect 7 0 1 0;
#X connect 8 0 1 1;
#X connect 8 1 0 0;
#X connect 9 0 11 0;
#X connect 9 0 10 0;
#X connect 10 0 12 0;
#X connect 11 0 8 0;
#X connect 12 0 11 0;
