#N canvas 96 79 1344 779 12;
#X msg 354 536 1;
#X obj 354 501 r metro;
#X obj 354 616 pack 0 20;
#X obj 414 592 r smooth;
#X obj 354 640 line~;
#X obj 200 587 osc~;
#X obj 316 665 *~;
#X obj 427 445 loadbang;
#X msg 427 500 set \$1;
#X obj 604 516 osc~;
#X obj 586 712 *~;
#X obj 604 658 *~;
#X obj 604 490 r \$0-amp_freq;
#X obj 316 778 *~;
#X obj 604 682 expr~ ($v1 +1)/2;
#X text 241 783 Original;
#X text 604 465 amp_modulation;
#X obj 316 807 *~ 0.5;
#X obj 200 178 r \$0-vib_freq;
#X obj 316 1051 outlet~;
#X obj 200 351 +~;
#X obj 200 291 *~;
#X obj 200 211 osc~;
#X obj 218 323 r \$0-main-freq;
#X floatatom 57 205 5 0 0 0 - - -;
#X obj 57 231 sig~;
#X obj 509 294 s \$0-main-freq;
#X obj 57 177 r \$0-main-freq;
#X obj 554 237 r \$0-internal-bang;
#X floatatom 509 264 5 0 0 0 - - -;
#X obj 586 737 s~ \$0-amp_mod;
#X obj 164 973 r~ \$0-amp_mod;
#X text 162 952 Modulação;
#X obj 509 237 inlet;
#X obj 354 561 tabread array2;
#X obj 427 472 float \$1;
#X obj 60 83 loadbang;
#X obj 60 131 s vibrato_bright;
#X msg 60 107 0;
#X obj 1036 293 s \$0-amp_freq;
#X floatatom 1036 126 5 0 0 0 - - -;
#X obj 1036 99 * 0.005;
#X obj 1036 260 *;
#X obj 933 131 s \$0-vib_freq;
#X msg 1079 158 0.5;
#X obj 1079 131 loadbang;
#X obj 959 36 r \$0-main-freq;
#X text 909 6 Frequencies for modulation;
#X obj 933 99 * 0.0001;
#X obj 1079 192 r amp_coeficient;
#X floatatom 1079 216 5 0 0 0 - - -;
#X obj 1079 239 change;
#X msg 1079 263 bang;
#X obj 316 1010 *~;
#X obj 622 623 r~ amp_modulation_bright;
#X obj 334 743 r~ amp_mod_bright_inverse;
#X obj 234 397 tgl 15 0 empty empty empty 17 7 0 10 -262144 -1 -1 0
1;
#X obj 234 417 pack 0 30;
#N canvas 0 22 450 300 inv_amp 0;
#X obj 235 77 inlet;
#X obj 235 113 line~;
#X obj 235 160 expr~ 1 - $v1;
#X obj 91 113 inlet~;
#X obj 155 113 inlet~;
#X obj 91 187 *~;
#X obj 155 187 *~;
#X obj 127 230 outlet~;
#X obj 235 137 pow~ 2;
#X connect 0 0 1 0;
#X connect 1 0 8 0;
#X connect 2 0 5 1;
#X connect 3 0 5 0;
#X connect 4 0 6 0;
#X connect 5 0 7 0;
#X connect 6 0 7 0;
#X connect 8 0 2 0;
#X connect 8 0 6 1;
#X restore 167 446 pd inv_amp;
#X obj 234 373 r vibrato_bright;
#X obj 218 257 r~ vib_coeficient;
#X obj 334 980 r~ bright_on;
#X connect 0 0 34 0;
#X connect 1 0 0 0;
#X connect 2 0 4 0;
#X connect 3 0 2 1;
#X connect 4 0 6 1;
#X connect 5 0 6 0;
#X connect 6 0 10 0;
#X connect 6 0 13 0;
#X connect 7 0 35 0;
#X connect 8 0 0 0;
#X connect 9 0 11 0;
#X connect 10 0 30 0;
#X connect 11 0 14 0;
#X connect 12 0 9 0;
#X connect 13 0 17 0;
#X connect 14 0 10 1;
#X connect 17 0 53 0;
#X connect 18 0 22 0;
#X connect 20 0 58 1;
#X connect 21 0 20 0;
#X connect 22 0 21 0;
#X connect 23 0 20 1;
#X connect 24 0 25 0;
#X connect 25 0 58 0;
#X connect 27 0 24 0;
#X connect 28 0 29 0;
#X connect 29 0 26 0;
#X connect 31 0 53 0;
#X connect 33 0 29 0;
#X connect 34 0 2 0;
#X connect 35 0 8 0;
#X connect 36 0 38 0;
#X connect 38 0 37 0;
#X connect 40 0 42 0;
#X connect 41 0 40 0;
#X connect 42 0 39 0;
#X connect 44 0 42 1;
#X connect 45 0 44 0;
#X connect 46 0 41 0;
#X connect 46 0 48 0;
#X connect 48 0 43 0;
#X connect 49 0 42 1;
#X connect 49 0 50 0;
#X connect 50 0 51 0;
#X connect 51 0 52 0;
#X connect 52 0 40 0;
#X connect 53 0 19 0;
#X connect 54 0 11 1;
#X connect 55 0 13 1;
#X connect 56 0 57 0;
#X connect 57 0 58 2;
#X connect 58 0 5 0;
#X connect 59 0 56 0;
#X connect 60 0 21 1;
#X connect 61 0 53 1;
