#N canvas 0 22 1037 489 12;
#N canvas 0 16 1004 856 osc_bright_old 0;
#X msg 492 342 0;
#X obj 492 317 r metro;
#X obj 492 412 pack 0 20;
#X obj 499 389 r smooth;
#X obj 492 436 line~;
#X obj 453 343 osc~;
#X obj 454 441 *~;
#X floatatom 271 94 5 0 0 0 - - -;
#X obj 793 72 loadbang;
#X msg 562 323 set \$1;
#X obj 582 442 osc~;
#X obj 593 587 *~;
#X obj 682 448 tgl 15 0 empty empty empty 17 7 0 10 -262144 -1 -1 0
1;
#X obj 629 532 *~;
#X obj 265 513 s \$0-amp_freq;
#X obj 582 416 r \$0-amp_freq;
#X obj 682 500 line~;
#X obj 557 654 *~;
#X obj 782 554 expr~ 1 - $v1;
#X obj 629 556 expr~ ($v1 +1)/2;
#X floatatom 265 426 5 0 0 0 - - -;
#X obj 421 31 t b b;
#X obj 682 476 pack \$1 1600;
#X obj 265 399 * 0.005;
#X text 473 655 Original;
#X text 403 586 amp_modulation;
#X obj 265 480 *;
#X obj 557 692 *~ 0.5;
#X obj 438 304 +;
#X floatatom 416 271 5 0 0 0 - - -;
#X obj 484 226 / 127;
#X obj 484 250 * 20;
#X obj 458 245 bng 15 250 50 0 empty empty empty 17 7 0 10 -262144
-1 -1;
#X obj 484 202 lfo 0.1;
#X obj 416 214 spigot;
#X obj 455 179 tgl 15 0 empty empty empty 17 7 0 10 -262144 -1 -1 0
1;
#X obj 236 222 spigot;
#X obj 275 194 expr 1 - $f1;
#X msg 455 127 0;
#X text 496 101 vibrato;
#X obj 500 126 r vibrato;
#X obj 530 227 r vib_coeficient;
#X obj 484 176 r \$0-vib_freq;
#X obj 302 231 sel 1;
#X obj 162 453 s \$0-vib_freq;
#X obj 192 399 * 0.0008;
#X obj 565 295 float \$1;
#X obj 682 416 r amp_modulation_bright;
#X obj 283 452 r amp_coeficient_bright;
#X obj 792 121 s amp_coeficient_bright;
#X msg 793 96 0.5;
#X obj 311 25 inlet;
#X obj 492 367 tabread array2;
#X obj 690 712 outlet~;
#X connect 0 0 52 0;
#X connect 1 0 0 0;
#X connect 2 0 4 0;
#X connect 3 0 2 1;
#X connect 4 0 6 1;
#X connect 5 0 6 0;
#X connect 6 0 11 0;
#X connect 6 0 17 0;
#X connect 7 0 36 0;
#X connect 7 0 34 0;
#X connect 8 0 21 0;
#X connect 8 0 38 0;
#X connect 8 0 46 0;
#X connect 8 0 50 0;
#X connect 9 0 0 0;
#X connect 10 0 13 0;
#X connect 11 0 53 0;
#X connect 12 0 22 0;
#X connect 13 0 19 0;
#X connect 15 0 10 0;
#X connect 16 0 13 1;
#X connect 16 0 18 0;
#X connect 17 0 27 0;
#X connect 18 0 17 1;
#X connect 19 0 11 1;
#X connect 20 0 26 0;
#X connect 21 0 7 0;
#X connect 22 0 16 0;
#X connect 23 0 20 0;
#X connect 26 0 14 0;
#X connect 27 0 53 0;
#X connect 28 0 5 0;
#X connect 28 0 23 0;
#X connect 28 0 45 0;
#X connect 29 0 28 0;
#X connect 30 0 31 0;
#X connect 30 0 32 0;
#X connect 31 0 28 1;
#X connect 32 0 21 0;
#X connect 33 0 30 0;
#X connect 34 0 29 0;
#X connect 35 0 34 1;
#X connect 35 0 37 0;
#X connect 36 0 23 0;
#X connect 36 0 5 0;
#X connect 36 0 45 0;
#X connect 37 0 36 1;
#X connect 37 0 43 0;
#X connect 38 0 35 0;
#X connect 40 0 35 0;
#X connect 41 0 31 1;
#X connect 42 0 33 0;
#X connect 43 0 7 0;
#X connect 45 0 44 0;
#X connect 46 0 9 0;
#X connect 47 0 12 0;
#X connect 48 0 26 1;
#X connect 48 0 21 0;
#X connect 50 0 49 0;
#X connect 51 0 7 0;
#X connect 52 0 2 0;
#X restore 63 30 pd osc_bright_old;
