#N canvas 20 44 1420 828 12;
#X obj 385 443 tabread array1;
#X msg 385 418 0;
#X obj 385 383 r metro;
#X obj 385 498 pack 0 20;
#X obj 445 474 r smooth;
#X obj 385 522 line~;
#X obj 197 516 osc~;
#X obj 347 547 *~;
#X obj 458 327 loadbang;
#X obj 458 354 float \$2;
#X msg 458 382 set \$1;
#X obj 635 408 osc~;
#X obj 617 594 *~;
#X obj 635 540 *~;
#X obj 916 349 s \$0-amp_freq;
#X obj 635 372 r \$0-amp_freq;
#X obj 347 660 *~;
#X obj 635 564 expr~ ($v1 +1)/2;
#X floatatom 916 182 5 0 0 0 - - -;
#X obj 916 155 * 0.005;
#X obj 436 899 *~;
#X obj 436 858 *~;
#X obj 461 830 osc~;
#X obj 461 804 float \$3;
#X obj 704 914 *~;
#X text 272 672 Original;
#X text 635 347 amp_modulation;
#X text 395 901 Ring;
#X obj 916 316 *;
#X obj 704 751 *~ 0.5;
#X obj 231 60 r \$0-vib_freq;
#X obj 813 187 s \$0-vib_freq;
#X msg 959 214 0.5;
#X obj 959 187 loadbang;
#X obj 1279 170 expr $f1 * (3.14159 / 180);
#X obj 1226 197 pack 0 0;
#X msg 1226 171 1;
#X obj 1226 94 loadbang;
#X obj 1279 146 expr (\$2 + 1)*24;
#X obj 1226 120 t a a;
#X obj 1226 221 msg polar \$2;
#X obj 1226 245 s to_hoa.map;
#X obj 231 233 +~;
#X obj 231 173 *~;
#X obj 231 93 osc~;
#X obj 249 205 r \$0-main-freq;
#X obj 264 292 tgl 15 0 empty empty empty 17 7 0 10 -262144 -1 -1 1
1;
#X floatatom 102 87 5 0 0 0 - - -;
#X obj 102 113 sig~;
#X obj 264 268 r vibrato;
#X obj 540 176 s \$0-main-freq;
#X obj 457 87 loadbang;
#X obj 540 119 float \$1;
#X obj 102 59 r \$0-main-freq;
#X obj 839 92 r \$0-main-freq;
#X obj 461 779 loadbang;
#X text 789 62 Frequencies for modulation;
#X text 1210 62 Spatialization (hoa.map);
#X floatatom 540 146 5 0 0 0 - - -;
#X obj 264 312 pack 0 30;
#X obj 813 155 * 0.0001;
#X obj 617 619 s~ \$0-amp_mod;
#X obj 785 719 r~ \$0-amp_mod;
#X obj 436 724 r~ \$0-amp_mod;
#X obj 735 488 s~ \$0-orig_on_inverse;
#X obj 365 625 r~ \$0-orig_on_inverse;
#X obj 347 684 s~ \$0-orig;
#X obj 704 719 r~ \$0-orig;
#X obj 349 724 r~ \$0-orig;
#X text 738 914 Original com ou sem modulação;
#X obj 959 248 r amp_coeficient;
#X obj 457 152 0;
#X obj 457 176 s vibrato;
#X obj 436 1068 outlet~;
#N canvas 143 128 1164 540 harmonics 0;
#X obj 22 20 inlet~;
#X obj 22 219 outlet~;
#X obj 74 134 clip 0 1;
#X obj 52 195 catch~ \$0-harmonics_out;
#X obj 84 21 inlet;
#X obj 74 159 s \$0-amp;
#X floatatom 156 153 5 0 0 0 - - -;
#X obj 74 85 env~ 16384 8192;
#X floatatom 155 110 5 0 0 0 - - -;
#X obj 75 109 / 150;
#X obj 84 48 s \$0-main-freq2;
#X obj 375 185 harmonic 2;
#X obj 375 218 throw~ \$0-harmonics_out;
#X obj 486 155 r \$0-amp;
#X obj 565 218 throw~ \$0-harmonics_out;
#X obj 676 155 r \$0-amp;
#X obj 755 218 throw~ \$0-harmonics_out;
#X obj 866 155 r \$0-amp;
#X obj 945 218 throw~ \$0-harmonics_out;
#X obj 1056 155 r \$0-amp;
#X obj 375 308 throw~ \$0-harmonics_out;
#X obj 486 245 r \$0-amp;
#X obj 565 308 throw~ \$0-harmonics_out;
#X obj 676 245 r \$0-amp;
#X obj 755 308 throw~ \$0-harmonics_out;
#X obj 866 245 r \$0-amp;
#X obj 945 308 throw~ \$0-harmonics_out;
#X obj 1056 245 r \$0-amp;
#X obj 375 398 throw~ \$0-harmonics_out;
#X obj 486 335 r \$0-amp;
#X obj 565 398 throw~ \$0-harmonics_out;
#X obj 676 335 r \$0-amp;
#X obj 755 398 throw~ \$0-harmonics_out;
#X obj 866 335 r \$0-amp;
#X obj 945 398 throw~ \$0-harmonics_out;
#X obj 1056 335 r \$0-amp;
#X obj 375 488 throw~ \$0-harmonics_out;
#X obj 486 425 r \$0-amp;
#X obj 565 488 throw~ \$0-harmonics_out;
#X obj 676 425 r \$0-amp;
#X obj 755 488 throw~ \$0-harmonics_out;
#X obj 866 425 r \$0-amp;
#X obj 945 488 throw~ \$0-harmonics_out;
#X obj 1056 425 r \$0-amp;
#X obj 566 186 harmonic 3;
#X obj 755 185 harmonic 4;
#X obj 945 185 harmonic 5;
#X obj 375 275 harmonic 6;
#X obj 565 275 harmonic 7;
#X obj 755 275 harmonic 8;
#X obj 945 275 harmonic 9;
#X obj 375 365 harmonic 10;
#X obj 565 365 harmonic 11;
#X obj 755 366 harmonic 12;
#X obj 945 364 harmonic 13;
#X obj 375 455 harmonic 13;
#X obj 565 455 harmonic 14;
#X obj 755 455 harmonic 15;
#X obj 945 455 harmonic 16;
#X obj 375 155 r \$0-main-freq2;
#X obj 565 155 r \$0-main-freq2;
#X obj 755 155 r \$0-main-freq2;
#X obj 944 155 r \$0-main-freq2;
#X obj 375 245 r \$0-main-freq2;
#X obj 565 245 r \$0-main-freq2;
#X obj 755 245 r \$0-main-freq2;
#X obj 945 245 r \$0-main-freq2;
#X obj 375 335 r \$0-main-freq2;
#X obj 565 335 r \$0-main-freq2;
#X obj 755 335 r \$0-main-freq2;
#X obj 946 335 r \$0-main-freq2;
#X obj 375 425 r \$0-main-freq2;
#X obj 565 425 r \$0-main-freq2;
#X obj 755 425 r \$0-main-freq2;
#X obj 945 425 r \$0-main-freq2;
#X connect 0 0 7 0;
#X connect 2 0 5 0;
#X connect 2 0 6 0;
#X connect 3 0 1 0;
#X connect 4 0 10 0;
#X connect 7 0 8 0;
#X connect 7 0 9 0;
#X connect 9 0 2 0;
#X connect 11 0 12 0;
#X connect 13 0 11 1;
#X connect 15 0 44 1;
#X connect 17 0 45 1;
#X connect 19 0 46 1;
#X connect 21 0 47 1;
#X connect 23 0 48 1;
#X connect 25 0 49 1;
#X connect 27 0 50 1;
#X connect 29 0 51 1;
#X connect 31 0 52 1;
#X connect 33 0 53 1;
#X connect 35 0 54 1;
#X connect 37 0 55 1;
#X connect 39 0 56 1;
#X connect 41 0 57 1;
#X connect 43 0 58 1;
#X connect 44 0 14 0;
#X connect 45 0 16 0;
#X connect 46 0 18 0;
#X connect 47 0 20 0;
#X connect 48 0 22 0;
#X connect 49 0 24 0;
#X connect 50 0 26 0;
#X connect 51 0 28 0;
#X connect 52 0 30 0;
#X connect 53 0 32 0;
#X connect 54 0 34 0;
#X connect 55 0 36 0;
#X connect 56 0 38 0;
#X connect 57 0 40 0;
#X connect 58 0 42 0;
#X connect 59 0 11 0;
#X connect 60 0 44 0;
#X connect 61 0 45 0;
#X connect 62 0 46 0;
#X connect 63 0 47 0;
#X connect 64 0 48 0;
#X connect 65 0 49 0;
#X connect 66 0 50 0;
#X connect 67 0 51 0;
#X connect 68 0 52 0;
#X connect 69 0 53 0;
#X connect 70 0 54 0;
#X connect 71 0 55 0;
#X connect 72 0 56 0;
#X connect 73 0 57 0;
#X connect 74 0 58 0;
#X restore 469 978 pd harmonics;
#X text 403 303 number to read on the array;
#X obj 550 947 r \$0-main-freq;
#N canvas 0 22 450 300 inv_amp 0;
#X obj 235 77 inlet;
#X obj 235 113 line~;
#X obj 235 160 expr~ 1 - $v1;
#X obj 91 113 inlet~;
#X obj 155 113 inlet~;
#X obj 91 187 *~;
#X obj 155 187 *~;
#X obj 127 230 outlet~;
#X obj 235 137 pow~ 2;
#X connect 0 0 1 0;
#X connect 1 0 8 0;
#X connect 2 0 5 1;
#X connect 3 0 5 0;
#X connect 4 0 6 0;
#X connect 5 0 7 0;
#X connect 6 0 7 0;
#X connect 8 0 2 0;
#X connect 8 0 6 1;
#X restore 436 1042 pd inv_amp;
#X obj 436 933 +~;
#X obj 503 1017 r harmonics;
#X floatatom 674 408 5 0 0 0 - - -;
#X floatatom 959 272 5 0 0 0 - - -;
#X obj 959 295 change;
#X msg 959 319 bang;
#X obj 230 410 *~;
#N canvas 0 22 450 300 inv_amp 0;
#X obj 235 77 inlet;
#X obj 235 113 line~;
#X obj 235 160 expr~ 1 - $v1;
#X obj 91 113 inlet~;
#X obj 155 113 inlet~;
#X obj 91 187 *~;
#X obj 155 187 *~;
#X obj 127 230 outlet~;
#X obj 235 137 pow~ 2;
#X connect 0 0 1 0;
#X connect 1 0 8 0;
#X connect 2 0 5 1;
#X connect 3 0 5 0;
#X connect 4 0 6 0;
#X connect 5 0 7 0;
#X connect 6 0 7 0;
#X connect 8 0 2 0;
#X connect 8 0 6 1;
#X restore 197 341 pd inv_amp;
#X obj 260 376 r~ noise_mod;
#X obj 480 873 r~ ring_modulation;
#X obj 735 439 r~ amp_modulation;
#X obj 735 465 expr~ 1 - $v1;
#X obj 249 140 r~ vib_coeficient;
#X obj 722 882 r~ original;
#N canvas 0 22 450 300 inv_amp 0;
#X obj 235 77 inlet;
#X obj 235 113 line~;
#X obj 235 160 expr~ 1 - $v1;
#X obj 91 113 inlet~;
#X obj 155 113 inlet~;
#X obj 91 187 *~;
#X obj 155 187 *~;
#X obj 127 230 outlet~;
#X obj 235 137 pow~ 2;
#X connect 0 0 1 0;
#X connect 1 0 8 0;
#X connect 2 0 5 1;
#X connect 3 0 5 0;
#X connect 4 0 6 0;
#X connect 5 0 7 0;
#X connect 6 0 7 0;
#X connect 8 0 2 0;
#X connect 8 0 6 1;
#X restore 197 451 pd inv_amp;
#X obj 277 426 r noise;
#X connect 0 0 3 0;
#X connect 1 0 0 0;
#X connect 2 0 1 0;
#X connect 3 0 5 0;
#X connect 4 0 3 1;
#X connect 5 0 7 1;
#X connect 6 0 7 0;
#X connect 7 0 12 0;
#X connect 7 0 16 0;
#X connect 8 0 9 0;
#X connect 9 0 10 0;
#X connect 10 0 1 0;
#X connect 11 0 13 0;
#X connect 12 0 61 0;
#X connect 13 0 17 0;
#X connect 15 0 11 0;
#X connect 15 0 80 0;
#X connect 16 0 66 0;
#X connect 17 0 12 1;
#X connect 18 0 28 0;
#X connect 19 0 18 0;
#X connect 20 0 78 0;
#X connect 21 0 20 0;
#X connect 22 0 21 1;
#X connect 23 0 22 0;
#X connect 24 0 78 1;
#X connect 28 0 14 0;
#X connect 29 0 24 0;
#X connect 30 0 44 0;
#X connect 32 0 28 1;
#X connect 33 0 32 0;
#X connect 34 0 35 1;
#X connect 35 0 40 0;
#X connect 36 0 35 0;
#X connect 37 0 39 0;
#X connect 38 0 34 0;
#X connect 39 0 36 0;
#X connect 39 1 38 0;
#X connect 40 0 41 0;
#X connect 42 0 85 1;
#X connect 43 0 42 0;
#X connect 44 0 43 0;
#X connect 45 0 42 1;
#X connect 46 0 59 0;
#X connect 47 0 48 0;
#X connect 48 0 85 0;
#X connect 49 0 46 0;
#X connect 51 0 52 0;
#X connect 51 0 71 0;
#X connect 52 0 58 0;
#X connect 53 0 47 0;
#X connect 54 0 19 0;
#X connect 54 0 60 0;
#X connect 55 0 23 0;
#X connect 58 0 50 0;
#X connect 59 0 85 2;
#X connect 60 0 31 0;
#X connect 62 0 24 0;
#X connect 63 0 21 0;
#X connect 65 0 16 1;
#X connect 67 0 29 0;
#X connect 68 0 21 0;
#X connect 70 0 28 1;
#X connect 70 0 81 0;
#X connect 71 0 72 0;
#X connect 74 0 77 1;
#X connect 76 0 74 1;
#X connect 77 0 73 0;
#X connect 78 0 77 0;
#X connect 78 0 74 0;
#X connect 79 0 77 2;
#X connect 81 0 82 0;
#X connect 82 0 83 0;
#X connect 83 0 18 0;
#X connect 84 0 92 1;
#X connect 85 0 84 0;
#X connect 85 0 92 0;
#X connect 86 0 84 1;
#X connect 87 0 20 1;
#X connect 88 0 13 1;
#X connect 88 0 89 0;
#X connect 89 0 64 0;
#X connect 90 0 43 1;
#X connect 91 0 24 1;
#X connect 92 0 6 0;
#X connect 93 0 92 2;
