#N canvas 20 50 723 687 12;
#X obj 126 93 cyclone/seq music.midi;
#X msg 169 37 read music.midi;
#X obj 128 153 unpack;
#X obj 250 210 cyclone/comment 50 11 helvetica empty 0 0 0 0 0 255
255 255 0 0 Control;
#X obj 348 200 cyclone/comment 50 11 helvetica empty 0 0 0 0 0 255
255 255 0 0 Aftertouch;
#X obj 409 199 cyclone/comment 425 11 helvetica empty 0 0 0 0 0 255
255 255 0 0 Pitch Bend;
#X obj 499 184 cyclone/comment 425 11 helvetica empty 0 0 0 0 0 255
255 255 0 0 Channel;
#X obj 128 213 cyclone/comment 43 11 helvetica empty 0 0 0 0 0 255
255 255 0 0 Note in;
#X obj 184 210 cyclone/comment 425 11 helvetica empty 0 0 0 0 0 255
255 255 0 0 Poly touch;
#X obj 296 200 cyclone/comment 425 11 helvetica empty 0 0 0 0 0 255
255 255 0 0 Program;
#X obj 467 182 nbx 2 14 -1e+37 1e+37 0 0 empty empty empty 0 -8 0 10
-228856 -1 -1 1 256;
#X obj 410 182 nbx 5 14 -1e+37 1e+37 0 0 empty empty empty 0 -8 0 10
-228856 -1 -1 0 256;
#X obj 354 182 nbx 3 14 -1e+37 1e+37 0 0 empty empty empty 0 -8 0 10
-228856 -1 -1 -10 256;
#X obj 297 183 nbx 3 14 -1e+37 1e+37 0 0 empty empty empty 0 -8 0 10
-228856 -1 -1 73 256;
#X obj 128 193 nbx 3 14 -1e+37 1e+37 0 0 empty empty empty 0 -8 0 10
-228856 -1 -1 0 256;
#X obj 138 174 nbx 3 14 -1e+37 1e+37 0 0 empty empty empty 0 -8 0 10
-228856 -1 -1 0 256;
#X obj 184 153 unpack;
#X obj 184 193 nbx 3 14 -1e+37 1e+37 0 0 empty empty empty 0 -8 0 10
-228856 -1 -1 0 256;
#X obj 194 174 nbx 3 14 -1e+37 1e+37 0 0 empty empty empty 0 -8 0 10
-228856 -1 -1 0 256;
#X obj 241 153 unpack;
#X obj 241 193 nbx 3 14 -1e+37 1e+37 0 0 empty empty empty 0 -8 0 10
-228856 -1 -1 0 256;
#X obj 251 174 nbx 3 14 -1e+37 1e+37 0 0 empty empty empty 0 -8 0 10
-228856 -1 -1 0 256;
#X obj 128 129 cyclone/midiparse @hires 2, f 57;
#X obj 464 199 cyclone/comment 215 11 helvetica empty 0 0 0 0 0 255
255 255 0 0 (-8192 to 8191 in @hires 2);
#X obj 313 96 bng 15 250 50 0 empty empty empty 17 7 0 10 -262144 -1
-1;
#X msg 78 45 start -1;
#X obj 455 30 metro;
#X msg 455 54 tick;
#X obj 455 7 tgl 15 0 empty empty empty 17 7 0 10 -228856 -1 -1 1 1
;
#X obj 455 -37 loadbang;
#X obj 507 64 nbx 7 14 -1e+37 1e+37 0 0 empty empty empty 0 -8 0 10
-228856 -1 -1 20.8333 256;
#X obj 507 37 expr 60000 / ($f1 * 24);
#X text 29 44 play:;
#X text 582 57 tick time in ms, f 9;
#X floatatom 508 16 5 0 0 0 - - -;
#X obj 68 -30 r midi_start;
#X obj 584 -19 r midi_tempo_bpm;
#X obj 140 468 outlet~;
#X obj 126 5 t b b;
#X msg 493 -11 120;
#X msg 327 41 stop;
#X obj 135 326 pipe_organ;
#X obj 216 426 outlet~;
#X msg 44 161 0 0;
#X msg 68 209 0;
#X obj 53 261 bng 15 250 50 0 empty empty empty 17 7 0 10 -262144 -1
-1;
#X obj 50 294 makenote 0 0;
#X msg 77 261 50;
#X connect 0 0 22 0;
#X connect 0 1 24 0;
#X connect 1 0 0 0;
#X connect 2 0 14 0;
#X connect 2 0 41 0;
#X connect 2 1 15 0;
#X connect 2 1 41 1;
#X connect 16 0 17 0;
#X connect 16 1 18 0;
#X connect 19 0 20 0;
#X connect 19 1 21 0;
#X connect 22 0 2 0;
#X connect 22 1 16 0;
#X connect 22 2 19 0;
#X connect 22 3 13 0;
#X connect 22 4 12 0;
#X connect 22 5 11 0;
#X connect 22 6 10 0;
#X connect 25 0 0 0;
#X connect 26 0 27 0;
#X connect 27 0 0 0;
#X connect 28 0 26 0;
#X connect 29 0 28 0;
#X connect 29 0 39 0;
#X connect 30 0 26 1;
#X connect 31 0 30 0;
#X connect 34 0 31 0;
#X connect 35 0 38 0;
#X connect 36 0 34 0;
#X connect 38 0 25 0;
#X connect 38 1 1 0;
#X connect 39 0 34 0;
#X connect 40 0 0 0;
#X connect 41 0 37 0;
#X connect 41 1 42 0;
#X connect 43 0 2 0;
#X connect 45 0 46 0;
#X connect 46 0 41 0;
#X connect 46 1 41 1;
#X connect 47 0 46 0;
