#N canvas 351 0 1046 872 12;
#X declare -lib else;
#X declare -lib antescofo;
#X declare -lib ceammc;
#N canvas 248 106 825 630 score_follower 1;
#X obj 354 398 cnv 15 200 100 empty empty Basic 3 7 0 14 -233017 -66577
0;
#X msg 413 400 start;
#X msg 453 400 stop;
#X msg 492 400 info;
#X msg 362 448 version;
#X msg 478 436 actions on;
#X msg 478 458 actions off;
#X obj 435 479 s antescofo-mess;
#X obj 354 295 cnv 15 200 100 empty empty Scoring 3 7 0 14 -233017
-66577 0;
#X msg 400 335 reloadscore;
#X msg 336 363 printscore;
#X msg 358 315 printactions;
#X obj 482 298 bng 15 250 50 0 empty empty empty 17 7 0 10 -191407
-1 -1;
#X obj 482 315 openpanel;
#X msg 482 334 score \$1;
#X obj 432 376 s antescofo-mess;
#X obj 558 295 cnv 15 200 203 empty empty Score_Browsing 3 7 0 14 -233017
-66577 0;
#X msg 618 316 nextevent;
#X msg 642 335 nextlabel;
#X msg 655 355 nextaction;
#X msg 665 376 previousevent;
#X msg 672 398 previouslabel;
#X msg 705 455 killall;
#X obj 655 479 s antescofo-mess;
#X obj 148 219 r antescofo-mess;
#N canvas 20 50 1123 742 dispatch 0;
#X obj 106 35 inlet;
#X obj 106 57 route cue calibration;
#X obj 106 171 send antescofo-labels;
#X obj 167 143 send antescofo_calib;
#X obj 229 119 outlet;
#X obj 253 95 send ante_pos;
#X obj 362 56 r print;
#X obj 362 77 print;
#X connect 0 0 1 0;
#X connect 1 0 2 0;
#X connect 1 1 3 0;
#X connect 1 2 4 0;
#X connect 1 2 5 0;
#X connect 6 0 7 0;
#X restore -48 316 pd dispatch;
#X obj 19 424 s ante_tempo;
#X obj -9 452 nbx 5 14 -1e+37 1e+37 0 0 empty empty Real-time_Tempo_BPM
0 25 0 10 -259565 -1 -1 17 256;
#X symbolatom 109 498 15 0 0 3 Event_Label - -;
#X obj 161 448 nbx 5 14 -1e+37 1e+37 0 0 empty empty Position_in_beats
0 25 0 10 -228856 -1 -1 0 256;
#X obj 225 310 bng 15 250 50 0 empty empty Succesful_score_load 0 25
0 10 -228856 -1 -1;
#X symbolatom 565 418 10 0 0 0 - - -;
#X msg 565 437 gotolabel \$1;
#X obj 94 114 tgl 15 0 empty empty turn_follower_on/off 17 7 0 10 -228856
-1 -1 0 1;
#X msg 94 139 suivi \$1;
#N canvas 137 261 723 711 Observation 0;
#X obj 27 209 r audio-mess;
#X obj 110 508 outlet~;
#X obj 539 53 loadbang;
#X msg 539 75 analysis 4096 512;
#X obj 539 97 s antescofo-mess;
#X text 536 28 Analysis Parameters:;
#X text 171 508 >> to Antescofo~;
#X msg 53 330 start;
#X obj 125 159 tgl 15 0 empty empty empty 17 7 0 10 -262144 -1 -1 0
1;
#X obj 126 83 t f b;
#X msg 7 113 open ./preludio/music_4.wav;
#X obj 110 241 readsf~ 2;
#X obj 160 292 throw~ audio_testL;
#X obj 183 270 throw~ audio_testR;
#X msg 158 149 open ./preludio/measure9-21.wav;
#X obj 16 10 r test_midi;
#X obj 126 48 r test_midi_m9;
#X obj 17 80 t f b;
#X connect 0 0 11 0;
#X connect 2 0 3 0;
#X connect 3 0 4 0;
#X connect 7 0 11 0;
#X connect 8 0 11 0;
#X connect 9 0 8 0;
#X connect 9 1 14 0;
#X connect 10 0 11 0;
#X connect 11 0 1 0;
#X connect 11 0 12 0;
#X connect 11 1 13 0;
#X connect 11 1 1 0;
#X connect 14 0 11 0;
#X connect 15 0 17 0;
#X connect 16 0 9 0;
#X connect 17 0 8 0;
#X connect 17 1 10 0;
#X restore 256 128 pd Observation;
#X obj 208 378 stripnote;
#X obj 203 405 nbx 5 14 -1e+37 1e+37 0 0 empty empty MIDI_Pitch 0 25
0 10 -44450 -1 -1 67 256;
#X obj 269 405 nbx 5 14 -1e+37 1e+37 0 0 empty empty Velocity 0 25
0 10 -228856 -1 -1 1 256;
#X obj -48 336 nbx 5 14 -1e+37 1e+37 0 0 empty empty Event_Number 0
25 0 10 -228856 -1 -1 0 256;
#X obj -66 -122 cnv 15 824 60 empty empty Antescofo_Pd_Help 20 12 0
14 -4032 -66577 0;
#X text -32 -81 By MuTant Team \, Ircam \, 2007-2015.;
#X text 326 -81 http://forumnet.ircam.fr/user-group/antescofo;
#X text -33 -98 Antescofo - Anticipatory Score Following (v0.8);
#X text -38 -10 1 Load a score;
#N canvas 0 22 450 278 (subpatch) 0;
#X array Tempogram(BPM) 100 float 2;
#X coords 0 140 99 10 200 80 1 0 0;
#X restore 467 68 graph;
#N canvas 20 50 1224 768 Tempogram 0;
#X obj 137 124 t f b;
#X obj 272 160 f;
#X obj 296 160 + 1;
#X obj 137 62 r ante_tempo;
#X obj 137 211 tabwrite Tempogram(BPM);
#X obj 272 180 mod 100;
#X obj 137 103 spigot;
#X obj 170 82 inlet;
#X connect 0 0 4 0;
#X connect 0 1 1 0;
#X connect 1 0 2 0;
#X connect 1 0 5 0;
#X connect 2 0 1 1;
#X connect 3 0 6 0;
#X connect 5 0 4 1;
#X connect 6 0 0 0;
#X connect 7 0 6 1;
#X restore 490 34 pd Tempogram;
#X text 677 137 10;
#X obj 468 35 tgl 15 0 empty empty empty 17 7 0 10 -228856 -1 -1 0
1;
#X text 672 59 150;
#X msg -50 15 score music.asco.txt;
#X obj 256 108 tgl 15 0 empty empty empty 17 7 0 10 -262144 -1 -1 0
1;
#X text 254 87 Teste (midi);
#X msg -19 49 start;
#X msg 16 91 play;
#X msg 409 227 tempo \$1;
#X obj 412 205 hsl 128 15 0 127 0 0 empty empty empty -2 -8 0 10 -262144
-1 -1 0 1;
#X obj 110 546 s measure;
#X obj -52 377 s event_number;
#X obj 295 543 s midi_note;
#X obj 265 23 r test_midi;
#X obj 295 496 f 0;
#X floatatom 295 520 5 0 0 0 - - -;
#X obj 271 497 bng 15 250 50 0 empty empty empty 17 7 0 10 -262144
-1 -1;
#X obj 12 269 antescofo~ @outlets beatnum midiout;
#X connect 1 0 7 0;
#X connect 2 0 7 0;
#X connect 3 0 7 0;
#X connect 4 0 7 0;
#X connect 5 0 7 0;
#X connect 6 0 7 0;
#X connect 9 0 15 0;
#X connect 10 0 15 0;
#X connect 11 0 15 0;
#X connect 12 0 13 0;
#X connect 13 0 14 0;
#X connect 14 0 15 0;
#X connect 17 0 23 0;
#X connect 18 0 23 0;
#X connect 19 0 23 0;
#X connect 20 0 23 0;
#X connect 21 0 23 0;
#X connect 22 0 23 0;
#X connect 24 0 64 0;
#X connect 25 0 39 0;
#X connect 25 0 58 0;
#X connect 28 0 57 0;
#X connect 31 0 32 0;
#X connect 32 0 23 0;
#X connect 33 0 34 0;
#X connect 34 0 64 0;
#X connect 35 0 64 0;
#X connect 36 0 37 0;
#X connect 36 1 38 0;
#X connect 37 0 61 1;
#X connect 48 0 46 0;
#X connect 50 0 64 0;
#X connect 53 0 64 0;
#X connect 54 0 64 0;
#X connect 55 0 64 0;
#X connect 56 0 55 0;
#X connect 60 0 51 0;
#X connect 61 0 62 0;
#X connect 62 0 59 0;
#X connect 63 0 61 0;
#X connect 64 0 25 0;
#X connect 64 0 63 0;
#X connect 64 1 26 0;
#X connect 64 1 27 0;
#X connect 64 2 28 0;
#X connect 64 3 29 0;
#X connect 64 4 36 0;
#X connect 64 5 30 0;
#X restore 299 824 pd score_follower;
#X obj 0 -5 cnv 15 422 60 empty empty empty 20 12 0 14 -228856 -66577
0;
#X symbolatom 96 210 10 0 0 3 position measure -;
#X obj 201 210 nbx 5 18 -1e+37 1e+37 0 0 empty event_number event_number
0 25 0 12 -212212 -1 -1 0 256;
#X obj 25 90 bng 35 250 50 0 load_score empty load 6 18 0 10 -128992
-1 -1;
#X obj 145 141 bng 20 250 50 0 play_along_score empty play_along -15
27 0 10 -1317 -1 -1;
#X obj 90 91 tgl 20 0 follow_score empty follow -8 27 0 10 -262144
-1 -1 1 1;
#X obj 207 92 bng 35 250 50 0 stop_score empty stop 6 17 0 10 -258715
-262144 -1;
#X symbolatom 25 210 3 0 0 3 section section -;
#X symbolatom 272 97 12 0 0 3 start_from_measure - start_from_measure
;
#X obj 280 12 bng 20 250 50 0 audio_settings empty audio_settings -35
-8 0 10 -228856 -1 -1;
#X obj 311 210 nbx 5 18 -1e+37 1e+37 0 0 empty ante_tempo actual_tempo
0 25 0 12 -212212 -1 -1 17 256;
#X text 19 1 Prelude \; for organ and electronics \; 2020;
#X obj 346 12 bng 20 250 50 0 ready empty ready -4 -8 0 10 -257985
-1 -1;
#X text -1 40 ____________________________________________________________
;
#X text -1 250 ____________________________________________________________
;
#X text 24 63 Score follower;
#X text -1 789 ____________________________________________________________
;
#X text -1 391 ____________________________________________________________
;
#X obj 100 297 vsl 20 80 0 1 0 0 output electronics_volume empty 0
-9 0 10 -262144 -1 -1 4300 1;
#X obj 124 297 vu 20 80 vu_output empty -1 -8 0 10 -66577 -1 0 0;
#X obj 25 297 vsl 20 80 0 1 0 0 input organ_volume empty 0 -9 0 10
-262144 -1 -1 790 1;
#X obj 49 297 vu 20 80 empty empty -1 -8 0 10 -66577 -1 0 0;
#N canvas 97 88 1327 692 audio 0;
#X obj 35 29 catch~ out_osc;
#X obj 67 180 vcf~;
#X obj 78 150 sig~;
#X floatatom 78 127 5 0 0 0 - - -;
#X obj 89 216 *~ 1;
#X obj 250 156 catch~ bright;
#X obj 176 77 r darkness;
#X obj 176 103 line;
#X floatatom 176 131 5 0 0 0 - - -;
#X obj 78 77 loadbang;
#X msg 78 101 133;
#X obj 461 373 *~;
#X obj 493 312 pack 0 100;
#X obj 493 336 line~;
#X obj 330 462 *~;
#X obj 276 463 *~;
#X obj 318 416 line~;
#X obj 372 252 r rev_wet;
#X obj 332 391 pack 0 100;
#X obj 493 287 expr 1 - \$1;
#X obj 399 535 *~;
#X obj 345 536 *~;
#X obj 453 499 line~;
#X obj 453 474 pack 0 100;
#X obj 453 445 r output;
#X obj 467 562 env~;
#X obj 467 586 - 100;
#X obj 467 610 s vu_output;
#X obj 347 580 dac~ 1 2;
#X obj 45 425 else/plate.rev~ 50 0.9 0.25 0.8 0.8;
#X obj 481 8 *~;
#X obj 763 -11 line~;
#X obj 763 -56 pack 0 100;
#X obj 763 -85 r input;
#X obj 251 235 line~;
#X obj 251 210 pack 0 100;
#X obj 184 214 *~;
#X obj 251 181 r bright_on;
#X obj 66 521 vsl 20 80 0 1 0 0 rev_wet reverb empty 0 -9 0 10 -262144
-1 -1 8 1;
#X text 52 487 Reverb;
#X text 88 511 wet;
#X text 88 591 dry;
#X obj 862 562 xdac~ 1:2;
#X obj 1275 266 hoa.scope~ @size 246 246 @receive "(null)" @send "(null)"
@pinned 0 @background_color 0.93 0.93 0.93 1 @border_color 0.6 0.6
0.6 1 @label_color 0 0 0 1 @ph_color 1 0 0 1 @nh_color 0 0 1 1 @fontname
"Helvetica" @fontweight "normal" @fontslant "roman" @fontsize 11 @label
"(null)" @label_inner 0 @label_side "top" @label_align "left" @label_valign
"top" @label_margins 0 0 @gain 37 @refresh 100 @order 3 @view 0;
#X msg 1275 234 @gain \$1;
#X obj 1279 212 hsl 128 15 0 127 0 0 empty empty empty -2 -8 0 10 -262144
-1 -1 0 1;
#X obj 1099 217 phase->rad~;
#X obj 798 246 hoa.rotate~ 3, f 35;
#N canvas 0 22 720 176 catch_amb~ 0;
#X obj 24 55 catch~ amb_1;
#X obj 114 55 catch~ amb_2;
#X obj 204 55 catch~ amb_3;
#X obj 294 55 catch~ amb_4;
#X obj 384 55 catch~ amb_5;
#X obj 474 55 catch~ amb_6;
#X obj 564 55 catch~ amb_7;
#X obj 24 79 outlet~;
#X obj 114 79 outlet~;
#X obj 204 79 outlet~;
#X obj 294 79 outlet~;
#X obj 384 79 outlet~;
#X obj 474 79 outlet~;
#X obj 564 79 outlet~;
#X connect 0 0 7 0;
#X connect 1 0 8 0;
#X connect 2 0 9 0;
#X connect 3 0 10 0;
#X connect 4 0 11 0;
#X connect 5 0 12 0;
#X connect 6 0 13 0;
#X restore 797 214 pd catch_amb~;
#X f 30;
#X obj 1099 192 lfo.saw~ 0.02;
#X obj 541 87 dac~;
#X obj 481 -32 catch~ audio_testL;
#X obj 616 -32 catch~ audio_testR;
#X obj 616 8 *~;
#X floatatom 1069 316 0 0 1000 0 - revtime-set -;
#X text 1110 319 reverb time;
#X obj 1069 340 s revtime;
#N canvas 734 203 602 538 hann-window 0;
#N canvas 0 0 450 300 (subpatch) 0;
#X array \$0-hann 4096 float 0;
#X coords 0 1 4095 0 300 100 1;
#X restore 148 395 graph;
#X obj 365 185 osc~;
#X obj 365 210 *~ -0.5;
#X obj 365 234 +~ 0.5;
#X obj 348 277 tabwrite~ \$0-hann;
#X obj 124 114 r window-size;
#X obj 195 238 /;
#X obj 213 206 samplerate~;
#X obj 195 316 s window-sec;
#X obj 105 252 swap;
#X obj 105 276 /;
#X obj 105 300 s window-hz;
#X obj 206 266 * 1000;
#X obj 206 293 s window-msec;
#X obj 124 149 t f b f;
#X msg 213 156 resize \$1;
#X obj 213 180 s \$0-hann;
#X obj 317 123 r window-hz;
#X msg 390 155 0;
#X obj 317 151 t f b;
#X text 94 21 calculate Hann window table (variable window size) and
constants window-hz (fundamental frequency of analysis) \, window-sec
and window-msec (analysis window size in seconds and msec)., f 56
;
#X connect 1 0 2 0;
#X connect 2 0 3 0;
#X connect 3 0 4 0;
#X connect 5 0 14 0;
#X connect 6 0 8 0;
#X connect 6 0 12 0;
#X connect 7 0 6 1;
#X connect 7 0 9 1;
#X connect 9 0 10 0;
#X connect 9 1 10 1;
#X connect 10 0 11 0;
#X connect 12 0 13 0;
#X connect 14 0 6 0;
#X connect 14 0 9 0;
#X connect 14 1 7 0;
#X connect 14 2 15 0;
#X connect 15 0 16 0;
#X connect 17 0 19 0;
#X connect 18 0 1 1;
#X connect 19 0 1 0;
#X connect 19 1 4 0;
#X connect 19 1 18 0;
#X restore 1067 370 pd hann-window;
#N canvas 362 131 651 618 tables 0;
#N canvas 0 0 450 300 (subpatch) 0;
#X array \$0-last-real 2048 float 0;
#X coords 0 500 2048 -500 200 150 1;
#X restore 79 42 graph;
#N canvas 0 0 450 300 (subpatch) 0;
#X array \$0-last-imag 2048 float 0;
#X coords 0 500 2048 -500 200 150 1 0 0;
#X restore 364 44 graph;
#N canvas 0 0 450 300 (subpatch) 0;
#X array \$0-amp-real 2048 float 0;
#X coords 0 500 2048 -500 200 150 1;
#X restore 81 232 graph;
#N canvas 0 0 450 300 (subpatch) 0;
#X array \$0-amp-imag 2048 float 0;
#X coords 0 500 2048 -500 200 150 1;
#X restore 368 232 graph;
#N canvas 0 0 450 300 (subpatch) 0;
#X array \$0-inc-real 2048 float 0;
#X coords 0 1 2048 -1 200 150 1;
#X restore 81 424 graph;
#N canvas 0 0 450 300 (subpatch) 0;
#X array \$0-inc-imag 2048 float 0;
#X coords 0 1 2048 -1 200 150 1;
#X restore 370 424 graph;
#X restore 1067 395 pd tables;
#N canvas 280 40 837 707 fft 0;
#X obj 63 584 *~;
#X obj 288 539 *~;
#X obj 259 538 *~;
#X obj 351 540 *~;
#X obj 319 539 *~;
#X obj 319 567 +~;
#X obj 259 568 -~;
#X obj 457 470 *~;
#X obj 183 260 *~;
#X obj 151 260 *~;
#X obj 151 285 +~;
#X obj 275 149 *~;
#X obj 243 149 *~;
#X obj 507 384 *~;
#X obj 475 384 *~;
#X obj 168 113 *~;
#X obj 63 611 outlet~;
#X obj 63 559 *~;
#X obj 205 112 inlet~;
#X obj 168 190 rfft~;
#X obj 63 535 rifft~;
#X obj 475 412 rsqrt~;
#X obj 243 173 +~;
#X obj 397 470 *~;
#X obj 101 583 sig~ 0.0002;
#N canvas 167 161 699 396 decision 0;
#X obj 49 101 inlet~;
#X obj 50 341 outlet~;
#X obj 50 183 -~;
#X obj 50 226 clip~ 0 1;
#X obj 50 204 *~ 1e+20;
#X obj 196 98 inlet~;
#X text 137 213 stronger than;
#X text 139 228 old one;
#X obj 274 202 -~;
#X obj 288 177 lrshift~ 1;
#X obj 274 250 clip~ 0 1;
#X obj 274 228 *~ 1e+20;
#X obj 450 202 -~;
#X obj 450 250 clip~ 0 1;
#X obj 450 228 *~ 1e+20;
#X obj 464 177 lrshift~ -1;
#X obj 50 283 *~;
#X obj 50 312 *~;
#X text 135 199 1 if new signal;
#X text 55 73 new;
#X text 203 70 old;
#X text 51 12 Choose whether to replace the "old" signal with the "new"
one. The "new" one must be stronger than the old one and also must
be stronger than its two neighboring channels;
#X text 267 283 1 if we're louder than neighbor;
#X connect 0 0 2 0;
#X connect 0 0 9 0;
#X connect 0 0 8 0;
#X connect 0 0 12 0;
#X connect 0 0 15 0;
#X connect 2 0 4 0;
#X connect 3 0 16 0;
#X connect 4 0 3 0;
#X connect 5 0 2 1;
#X connect 8 0 11 0;
#X connect 9 0 8 1;
#X connect 10 0 16 1;
#X connect 11 0 10 0;
#X connect 12 0 14 0;
#X connect 13 0 17 1;
#X connect 14 0 13 0;
#X connect 15 0 12 1;
#X connect 16 0 17 0;
#X connect 17 0 1 0;
#X restore 151 312 pd decision;
#X obj 475 434 *~;
#N canvas 352 333 393 308 divide-by-prev 0;
#X obj 204 88 inlet~;
#X obj 266 90 inlet~;
#X obj 204 240 outlet~;
#X obj 267 240 outlet~;
#X obj 70 240 outlet~;
#X obj 138 240 outlet~;
#X obj 171 169 *~;
#X obj 138 169 *~;
#X obj 103 170 *~;
#X obj 70 170 *~;
#X obj 70 198 +~;
#X obj 138 197 -~;
#X obj 89 34 tabreceive~ \$0-last-real;
#X obj 121 61 tabreceive~ \$0-last-imag;
#X connect 0 0 2 0;
#X connect 0 0 9 0;
#X connect 0 0 6 0;
#X connect 1 0 3 0;
#X connect 1 0 8 0;
#X connect 1 0 7 0;
#X connect 6 0 11 1;
#X connect 7 0 11 0;
#X connect 8 0 10 1;
#X connect 9 0 10 0;
#X connect 10 0 4 0;
#X connect 11 0 5 0;
#X connect 12 0 9 1;
#X connect 12 0 7 1;
#X connect 13 0 8 1;
#X connect 13 0 6 1;
#X restore 500 279 pd divide-by-prev;
#N canvas 650 183 602 327 switch 0;
#X obj 61 160 inlet~;
#X obj 149 96 inlet~;
#X obj 211 97 inlet~;
#X obj 315 94 inlet~;
#X obj 375 94 inlet~;
#X obj 409 182 -~;
#X obj 380 228 +~;
#X obj 414 226 *~;
#X obj 292 179 -~;
#X obj 262 225 +~;
#X obj 296 225 *~;
#X obj 261 275 outlet~;
#X obj 380 271 outlet~;
#X text 88 25 switch between two pairs of inputs. If first inlet is
one \, take the left-hand pair \, otherwise the right-hand one.;
#X text 57 137 switch;
#X text 134 73 pass this if one;
#X text 311 74 pass this if zero;
#X connect 0 0 10 1;
#X connect 0 0 7 1;
#X connect 1 0 8 0;
#X connect 2 0 5 0;
#X connect 3 0 9 0;
#X connect 3 0 8 1;
#X connect 4 0 6 0;
#X connect 4 0 5 1;
#X connect 5 0 7 0;
#X connect 6 0 12 0;
#X connect 7 0 6 1;
#X connect 8 0 10 0;
#X connect 9 0 11 0;
#X connect 10 0 9 1;
#X restore 277 369 pd switch;
#X obj 548 357 r revtime;
#X obj 99 560 tabreceive~ \$0-hann;
#X obj 168 84 tabreceive~ \$0-hann;
#X obj 442 174 tabreceive~ \$0-inc-real;
#X obj 459 226 tabreceive~ \$0-inc-imag;
#X obj 616 304 tabsend~ \$0-last-imag;
#X obj 577 327 tabsend~ \$0-last-real;
#X obj 457 510 tabsend~ \$0-inc-imag;
#X obj 397 536 tabsend~ \$0-inc-real;
#X msg 558 380 set \$1;
#X obj 558 404 s revtime-set;
#X obj 681 141 loadbang;
#X msg 681 167 \; pd dsp 1 \; window-size 4096 \; revtime 20;
#X obj 681 50 r window-size;
#X msg 681 72 set \$1 4;
#X obj 681 94 block~;
#X obj 548 428 expr 1 - 0.2/max(0.2 \, $f1);
#X obj 322 55 tabreceive~ \$0-amp-real;
#X obj 337 107 tabreceive~ \$0-amp-imag;
#X obj 319 621 tabsend~ \$0-amp-imag;
#X obj 259 650 tabsend~ \$0-amp-real;
#X text 314 15 previous output amplitude \, encoding both magnitude
and phase, f 33;
#X text 435 136 previous phase increment (unit-magnitude complex number)
, f 31;
#X obj 442 199 +~ 1e-15;
#X obj 322 81 +~ 1e-15;
#X text 61 635 IFFT and output;
#X text 491 457 normalize increments between 0 and 1 according to revtime.
, f 29;
#X text 352 564 propagate amplitudes by multiplying in the increments
\, which advance the phase and drop magnitude according to revtime.
, f 40;
#X text 31 289 choose whether to punch in new (amplitude \, increment)
pair, f 16;
#N canvas 650 183 602 327 switch 0;
#X obj 61 160 inlet~;
#X obj 149 96 inlet~;
#X obj 211 97 inlet~;
#X obj 315 94 inlet~;
#X obj 375 94 inlet~;
#X obj 409 182 -~;
#X obj 380 228 +~;
#X obj 414 226 *~;
#X obj 292 179 -~;
#X obj 262 225 +~;
#X obj 296 225 *~;
#X obj 261 275 outlet~;
#X obj 380 271 outlet~;
#X text 88 25 switch between two pairs of inputs. If first inlet is
one \, take the left-hand pair \, otherwise the right-hand one.;
#X text 57 137 switch;
#X text 134 73 pass this if one;
#X text 311 74 pass this if zero;
#X connect 0 0 10 1;
#X connect 0 0 7 1;
#X connect 1 0 8 0;
#X connect 2 0 5 0;
#X connect 3 0 9 0;
#X connect 3 0 8 1;
#X connect 4 0 6 0;
#X connect 4 0 5 1;
#X connect 5 0 7 0;
#X connect 6 0 12 0;
#X connect 7 0 6 1;
#X connect 8 0 10 0;
#X connect 9 0 11 0;
#X connect 10 0 9 1;
#X restore 397 353 pd switch;
#X connect 0 0 16 0;
#X connect 1 0 6 1;
#X connect 2 0 6 0;
#X connect 3 0 5 1;
#X connect 4 0 5 0;
#X connect 5 0 48 0;
#X connect 6 0 49 0;
#X connect 7 0 1 0;
#X connect 7 0 3 0;
#X connect 7 0 36 0;
#X connect 8 0 10 1;
#X connect 9 0 10 0;
#X connect 10 0 25 0;
#X connect 11 0 22 1;
#X connect 12 0 22 0;
#X connect 13 0 21 0;
#X connect 14 0 21 0;
#X connect 15 0 19 0;
#X connect 17 0 0 0;
#X connect 18 0 15 1;
#X connect 19 0 9 0;
#X connect 19 0 9 1;
#X connect 19 0 27 0;
#X connect 19 0 28 1;
#X connect 19 1 8 0;
#X connect 19 1 8 1;
#X connect 19 1 27 1;
#X connect 19 1 28 2;
#X connect 20 0 17 0;
#X connect 21 0 26 0;
#X connect 22 0 25 1;
#X connect 23 0 2 0;
#X connect 23 0 4 0;
#X connect 23 0 37 0;
#X connect 24 0 0 1;
#X connect 25 0 28 0;
#X connect 25 0 58 0;
#X connect 26 0 23 1;
#X connect 26 0 7 1;
#X connect 27 0 58 1;
#X connect 27 1 58 2;
#X connect 27 2 35 0;
#X connect 27 3 34 0;
#X connect 28 0 20 0;
#X connect 28 0 3 1;
#X connect 28 0 2 1;
#X connect 28 1 20 1;
#X connect 28 1 1 1;
#X connect 28 1 4 1;
#X connect 29 0 38 0;
#X connect 29 0 45 0;
#X connect 30 0 17 1;
#X connect 31 0 15 0;
#X connect 32 0 52 0;
#X connect 33 0 58 4;
#X connect 38 0 39 0;
#X connect 40 0 41 0;
#X connect 42 0 43 0;
#X connect 43 0 44 0;
#X connect 45 0 26 1;
#X connect 46 0 53 0;
#X connect 47 0 11 0;
#X connect 47 0 11 1;
#X connect 47 0 28 4;
#X connect 52 0 58 3;
#X connect 53 0 12 0;
#X connect 53 0 12 1;
#X connect 53 0 28 3;
#X connect 58 0 14 0;
#X connect 58 0 14 1;
#X connect 58 0 23 0;
#X connect 58 1 13 0;
#X connect 58 1 13 1;
#X connect 58 1 7 0;
#X restore 1097 466 pd fft;
#X obj 799 307 hoa.2d.decoder~ 3 binaural @crop 64;
#X obj 918 456 *~;
#X obj 864 457 *~;
#X obj 972 420 line~;
#X obj 972 395 pack 0 100;
#X obj 972 366 r output;
#X obj 986 483 env~;
#X obj 986 507 - 100;
#X obj 986 531 s vu_output;
#X connect 0 0 1 0;
#X connect 1 0 4 0;
#X connect 2 0 1 1;
#X connect 3 0 2 0;
#X connect 4 0 11 0;
#X connect 5 0 36 0;
#X connect 6 0 7 0;
#X connect 7 0 8 0;
#X connect 8 0 1 2;
#X connect 9 0 10 0;
#X connect 10 0 3 0;
#X connect 11 0 21 0;
#X connect 11 0 20 0;
#X connect 12 0 13 0;
#X connect 13 0 11 1;
#X connect 14 0 20 0;
#X connect 15 0 21 0;
#X connect 16 0 14 1;
#X connect 16 0 15 1;
#X connect 17 0 19 0;
#X connect 17 0 18 0;
#X connect 18 0 16 0;
#X connect 19 0 12 0;
#X connect 20 0 25 0;
#X connect 22 0 20 1;
#X connect 22 0 21 1;
#X connect 23 0 22 0;
#X connect 24 0 23 0;
#X connect 25 0 26 0;
#X connect 26 0 27 0;
#X connect 29 0 15 0;
#X connect 29 1 14 0;
#X connect 30 0 50 0;
#X connect 31 0 30 1;
#X connect 31 0 53 1;
#X connect 32 0 31 0;
#X connect 33 0 32 0;
#X connect 34 0 36 1;
#X connect 35 0 34 0;
#X connect 36 0 4 0;
#X connect 37 0 35 0;
#X connect 44 0 43 0;
#X connect 45 0 44 0;
#X connect 46 0 47 7;
#X connect 47 0 43 0;
#X connect 47 0 60 0;
#X connect 47 1 43 1;
#X connect 47 1 60 1;
#X connect 47 2 43 2;
#X connect 47 2 60 2;
#X connect 47 3 43 3;
#X connect 47 3 60 3;
#X connect 47 4 43 4;
#X connect 47 4 60 4;
#X connect 47 5 43 5;
#X connect 47 5 60 5;
#X connect 47 6 43 6;
#X connect 47 6 60 6;
#X connect 48 0 47 0;
#X connect 48 1 47 1;
#X connect 48 2 47 2;
#X connect 48 3 47 3;
#X connect 48 4 47 4;
#X connect 48 5 47 5;
#X connect 48 6 47 6;
#X connect 49 0 46 0;
#X connect 51 0 30 0;
#X connect 52 0 53 0;
#X connect 53 0 50 1;
#X connect 54 0 56 0;
#X connect 60 0 62 0;
#X connect 60 1 61 0;
#X connect 61 0 66 0;
#X connect 61 0 42 1;
#X connect 62 0 42 0;
#X connect 63 0 61 1;
#X connect 63 0 62 1;
#X connect 64 0 63 0;
#X connect 65 0 64 0;
#X connect 66 0 67 0;
#X connect 67 0 68 0;
#X restore 186 805 pd audio;
#X floatatom 1117 595 5 0 0 0 - - -;
#X obj 71 971 s original;
#X msg 71 941 \$1 1000;
#X floatatom 71 913 5 0 0 0 - - -;
#X msg 161 941 \$1 1000;
#X floatatom 161 913 5 0 0 0 - - -;
#X obj 161 971 s ring_modulation;
#X msg 682 940 \$1 1000;
#X floatatom 682 912 5 0 0 0 - - -;
#X obj 682 970 s bright_on;
#X msg 71 888 0;
#X msg 161 887 0;
#X msg 682 888 0;
#X obj 71 1089 s amp_modulation;
#X msg 71 1064 \$1 1000;
#X floatatom 71 1036 5 0 0 0 - - -;
#X msg 71 1011 0;
#X obj 199 1089 s amp_coeficient;
#X obj 202 1026 hsl 128 15 0 3 0 0 empty empty empty -2 -8 0 10 -262144
-1 -1 4800 1;
#X floatatom 199 1068 5 0 0 0 - - -;
#X msg 128 887 0.4;
#X obj 199 1046 pow 4;
#X obj 350 1089 s vibrato;
#X obj 350 1066 tgl 15 0 empty empty empty 17 7 0 10 -262144 -1 -1
0 1;
#X obj 452 1026 hsl 128 15 0 3 0 0 empty empty empty -2 -8 0 10 -262144
-1 -1 0 1;
#X floatatom 449 1068 5 0 0 0 - - -;
#X obj 449 1046 pow 4;
#X obj 449 1089 s vib_coeficient;
#X msg 681 1074 \$1 1000;
#X floatatom 681 1046 5 0 0 0 - - -;
#X msg 681 1021 0;
#X msg 647 1021 1;
#X obj 862 1034 hsl 128 15 0 3 0 0 empty empty empty -2 -8 0 10 -262144
-1 -1 0 1;
#X floatatom 859 1076 5 0 0 0 - - -;
#X obj 859 1054 pow 4;
#X msg 645 889 0.2;
#X obj 681 1099 s amp_modulation_bright;
#X obj 859 1099 s amp_coeficient_bright;
#X floatatom 35 1199 5 0 0 0 - - -;
#X obj 38 1178 hsl 128 15 0 5000 0 0 empty empty empty -2 -8 0 10 -262144
-1 -1 0 1;
#X obj 35 1222 s smooth;
#X obj 197 1222 s rand_amp_on;
#X obj 197 1202 tgl 15 0 empty empty empty 17 7 0 10 -262144 -1 -1
0 1;
#X floatatom 305 1199 5 0 0 0 - - -;
#X obj 308 1178 hsl 128 15 0 5000 0 0 empty empty empty -2 -8 0 10
-262144 -1 -1 0 1;
#X obj 305 1222 s rand_tempo;
#X obj 452 1222 s rand_dyn_range;
#X msg 454 1260 2;
#X obj 454 1284 s rand_dyn_min;
#X obj 36 1289 s array1_zero;
#X msg 36 1262 1 3000;
#X msg 1 1261 0;
#X msg 725 1255 1 3000;
#X msg 690 1254 0;
#X floatatom 845 1199 5 0 0 0 - - -;
#X obj 848 1178 hsl 128 15 0 5000 0 0 empty empty empty -2 -8 0 10
-262144 -1 -1 0 1;
#X msg 944 1260 2;
#X obj 687 1199 tgl 15 0 empty empty empty 17 7 0 10 -262144 -1 -1
0 1;
#X obj 687 1222 s rand_amp_on_bright;
#X obj 845 1222 s rand_tempo_bright;
#X obj 1012 1222 s rand_dyn_range_bright;
#X obj 944 1284 s rand_dyn_min_bright;
#X obj 725 1282 s array2_zero;
#X obj 351 881 tgl 15 0 empty empty empty 17 7 0 10 -262144 -1 -1 0
1;
#X obj 1118 619 mtof;
#X obj 1118 643 osc~;
#X obj 1128 755 dac~;
#N canvas 0 22 450 278 (subpatch) 0;
#X array array1 15 float 3;
#A 0 0 0 0 0 0 0 0 0 0 0 0 0 0 0 0;
#X coords 0 0.5 15 0 100 130 2 0 0;
#X restore 26 558 graph;
#X obj 153 560 vsl 8 125 0 100 0 0 empty rand_dyn_range_monitor dyn_range
-13 -9 0 10 -262144 -1 -1 6324 1;
#X obj 145 560 vsl 8 125 0 100 0 0 empty rand_dyn_min_monitor empty
0 -9 0 10 -262144 -1 -1 124 1;
#N canvas 0 22 450 278 (subpatch) 0;
#X array array2 56 float 3;
#A 0 0 0 0 0 0 0 0 0 0 0 0 0 0 0 0 0 0 0 0 0 0 0 0 0 0 0 0 0 0 0 0
0 0 0 0 0 0 0 0 0 0 0 0 0 0 0 0 0 0 0 0 0 0 0 0 0;
#X coords 0 0.5 56 0 100 130 2 0 0;
#X restore 265 558 graph;
#X obj 393 560 vsl 8 125 0 100 0 0 empty rand_dyn_range_bright_monitor
dyn_range -20 -9 0 10 -262144 -1 -1 5084 1;
#X obj 385 560 vsl 8 125 0 100 0 0 empty rand_dyn_min_bright_monitor
empty 0 -9 0 10 -262144 -1 -1 124 1;
#X obj 1182 615 tgl 15 0 empty empty empty 17 7 0 10 -262144 -1 -1
0 1;
#X obj 1086 612 bng 15 250 50 0 empty empty empty 17 7 0 10 -262144
-1 -1;
#X text 591 848 ] \; ] \; ] \; ] \; ] \; ] \; ] \; ] \; ] \; ] \; ]
\; ] \; ] \; ] \; ] \; ] \; ] \; ] \; ] \; ] \; ] \; ] \; ] \; ] \;
] \; ] \; ] \; ] \; ] \; ] \; ] \; ] \; ] \; ] \; ] \; ] \; ] \; ]
\; ] \; ] \; ] \; ] \; ] \; ] \;;
#X obj 953 669 s midi_note;
#X obj 951 557 tgl 15 0 empty empty empty 17 7 0 10 -262144 -1 -1 0
1;
#X obj 952 577 metro 1000;
#N canvas 875 0 371 486 electronics 0;
#N canvas 0 0 1440 878 oscilators_bright 0;
#X obj 20 135 osc_bright 0;
#X obj 30 165 osc_bright 1;
#X obj 40 195 osc_bright 2;
#X obj 50 225 osc_bright 3;
#X obj 60 255 osc_bright 4;
#X obj 70 285 osc_bright 5;
#X obj 80 315 osc_bright 6;
#X obj 90 345 osc_bright 7;
#X obj 100 375 osc_bright 8;
#X obj 110 405 osc_bright 9;
#X obj 120 135 osc_bright 10;
#X obj 130 165 osc_bright 11;
#X obj 140 195 osc_bright 12;
#X obj 150 225 osc_bright 13;
#X obj 160 255 osc_bright 14;
#X obj 170 285 osc_bright 15;
#X obj 180 315 osc_bright 16;
#X obj 190 345 osc_bright 17;
#X obj 200 375 osc_bright 18;
#X obj 20 105 unpack f f f f f f f f f f f f f f f f f f f;
#X obj 349 205 unpack f f f f f f f f f f f f f f f f f f f;
#X msg 349 153 3406.5 3695.5 4023.5 4347 4573.5 4903 5397.5 5719 5904
6095 6298.5 6662.5 7371 8261.5 9134.5 10203 11295 12067.5;
#X obj 349 235 osc_bright 19;
#X obj 359 265 osc_bright 20;
#X obj 369 295 osc_bright 21;
#X obj 379 325 osc_bright 22;
#X obj 389 355 osc_bright 23;
#X obj 399 385 osc_bright 24;
#X obj 409 415 osc_bright 25;
#X obj 419 445 osc_bright 26;
#X obj 429 475 osc_bright 27;
#X obj 439 505 osc_bright 28;
#X obj 449 235 osc_bright 29;
#X obj 459 265 osc_bright 30;
#X obj 469 295 osc_bright 31;
#X obj 479 325 osc_bright 32;
#X obj 489 355 osc_bright 33;
#X obj 499 385 osc_bright 34;
#X obj 509 415 osc_bright 35;
#X obj 519 445 osc_bright 36;
#X obj 529 475 osc_bright 37;
#X obj 708 317 unpack f f f f f f f f f f f f f f f f f f f;
#X msg 708 265 7102 7719 8370.5 8920.5 9476.5 10300.5 11116.5 11623
11999 12393.5 12961 14033.5 15632.5 17396 19337.5 21498 23362.5;
#X obj 708 347 osc_bright 38;
#X obj 718 377 osc_bright 39;
#X obj 728 407 osc_bright 40;
#X obj 738 437 osc_bright 41;
#X obj 748 467 osc_bright 42;
#X obj 758 497 osc_bright 43;
#X obj 768 527 osc_bright 44;
#X obj 778 557 osc_bright 45;
#X obj 788 587 osc_bright 46;
#X obj 798 617 osc_bright 47;
#X obj 808 347 osc_bright 48;
#X obj 818 377 osc_bright 49;
#X obj 828 407 osc_bright 50;
#X obj 838 437 osc_bright 51;
#X obj 848 467 osc_bright 52;
#X obj 858 497 osc_bright 53;
#X obj 868 527 osc_bright 54;
#X obj 878 557 osc_bright 55;
#X obj 897 582 osc_bright 56;
#X msg 20 53 0 0 0 2097 2250 2323.5 2579.5 2818 2901 3003 3092 3206.5
3456 3915 4346.5 4788 5415 5880 6187.5;
#X obj 20 28 loadbang;
#X obj 350 128 loadbang;
#X obj 708 237 loadbang;
#N canvas 0 22 720 176 throw_amb~ 0;
#X obj 24 55 throw~ amb_1;
#X obj 24 26 inlet~;
#X obj 114 26 inlet~;
#X obj 204 26 inlet~;
#X obj 294 26 inlet~;
#X obj 384 26 inlet~;
#X obj 474 26 inlet~;
#X obj 564 26 inlet~;
#X obj 114 55 throw~ amb_2;
#X obj 204 55 throw~ amb_3;
#X obj 294 55 throw~ amb_4;
#X obj 384 55 throw~ amb_5;
#X obj 474 55 throw~ amb_6;
#X obj 564 55 throw~ amb_7;
#X connect 1 0 0 0;
#X connect 2 0 8 0;
#X connect 3 0 9 0;
#X connect 4 0 10 0;
#X connect 5 0 11 0;
#X connect 6 0 12 0;
#X connect 7 0 13 0;
#X restore 490 927 pd throw_amb~;
#X f 30;
#N canvas 0 22 1004 856 osc_bright_old 0;
#X msg 492 342 0;
#X obj 492 317 r metro;
#X obj 492 412 pack 0 20;
#X obj 499 389 r smooth;
#X obj 492 436 line~;
#X obj 453 343 osc~;
#X obj 454 441 *~;
#X floatatom 271 94 5 0 0 0 - - -;
#X obj 793 72 loadbang;
#X msg 562 323 set \$1;
#X obj 582 442 osc~;
#X obj 593 587 *~;
#X obj 682 448 tgl 15 0 empty empty empty 17 7 0 10 -262144 -1 -1 0.4
1;
#X obj 629 532 *~;
#X obj 265 513 s \$0-amp_freq;
#X obj 582 416 r \$0-amp_freq;
#X obj 682 500 line~;
#X obj 557 654 *~;
#X obj 782 554 expr~ 1 - $v1;
#X obj 629 556 expr~ ($v1 +1)/2;
#X floatatom 265 426 5 0 0 0 - - -;
#X obj 421 31 t b b;
#X obj 682 476 pack \$1 1600;
#X obj 265 399 * 0.005;
#X text 473 655 Original;
#X text 403 586 amp_modulation;
#X obj 265 480 *;
#X obj 557 692 *~ 0.5;
#X obj 438 304 +;
#X floatatom 416 271 5 0 0 0 - - -;
#X obj 484 226 / 127;
#X obj 484 250 * 20;
#X obj 458 245 bng 15 250 50 0 empty empty empty 17 7 0 10 -262144
-1 -1;
#X obj 484 202 lfo 0.1;
#X obj 416 214 spigot;
#X obj 455 179 tgl 15 0 empty empty empty 17 7 0 10 -262144 -1 -1 1
1;
#X obj 236 222 spigot;
#X obj 275 194 expr 1 - $f1;
#X msg 455 127 0;
#X text 496 101 vibrato;
#X obj 500 126 r vibrato;
#X obj 530 227 r vib_coeficient;
#X obj 484 176 r \$0-vib_freq;
#X obj 302 231 sel 1;
#X obj 162 453 s \$0-vib_freq;
#X obj 192 399 * 0.0008;
#X obj 565 295 float \$1;
#X obj 682 416 r amp_modulation_bright;
#X obj 283 452 r amp_coeficient_bright;
#X obj 792 121 s amp_coeficient_bright;
#X msg 793 96 0.5;
#X obj 311 25 inlet;
#X obj 492 367 tabread array2;
#X obj 690 712 outlet~;
#X connect 0 0 52 0;
#X connect 1 0 0 0;
#X connect 2 0 4 0;
#X connect 3 0 2 1;
#X connect 4 0 6 1;
#X connect 5 0 6 0;
#X connect 6 0 11 0;
#X connect 6 0 17 0;
#X connect 7 0 36 0;
#X connect 7 0 34 0;
#X connect 8 0 21 0;
#X connect 8 0 38 0;
#X connect 8 0 46 0;
#X connect 8 0 50 0;
#X connect 9 0 0 0;
#X connect 10 0 13 0;
#X connect 11 0 53 0;
#X connect 12 0 22 0;
#X connect 13 0 19 0;
#X connect 15 0 10 0;
#X connect 16 0 13 1;
#X connect 16 0 18 0;
#X connect 17 0 27 0;
#X connect 18 0 17 1;
#X connect 19 0 11 1;
#X connect 20 0 26 0;
#X connect 21 0 7 0;
#X connect 22 0 16 0;
#X connect 23 0 20 0;
#X connect 26 0 14 0;
#X connect 27 0 53 0;
#X connect 28 0 5 0;
#X connect 28 0 23 0;
#X connect 28 0 45 0;
#X connect 29 0 28 0;
#X connect 30 0 31 0;
#X connect 30 0 32 0;
#X connect 31 0 28 1;
#X connect 32 0 21 0;
#X connect 33 0 30 0;
#X connect 34 0 29 0;
#X connect 35 0 34 1;
#X connect 35 0 37 0;
#X connect 36 0 23 0;
#X connect 36 0 5 0;
#X connect 36 0 45 0;
#X connect 37 0 36 1;
#X connect 37 0 43 0;
#X connect 38 0 35 0;
#X connect 40 0 35 0;
#X connect 41 0 31 1;
#X connect 42 0 33 0;
#X connect 43 0 7 0;
#X connect 45 0 44 0;
#X connect 46 0 9 0;
#X connect 47 0 12 0;
#X connect 48 0 26 1;
#X connect 48 0 21 0;
#X connect 50 0 49 0;
#X connect 51 0 7 0;
#X connect 52 0 2 0;
#X restore 1093 427 pd osc_bright_old;
#X obj 73 613 msg mute;
#X msg 73 569 0 \$1 \, 1 \$2 \, 2 \$3 \, 3 \$4 \, 4 \$5 \, 5 \$6 \,
6 \$7 \, 7 \$8 \, 8 \$9 \, 9 \$10 \, 10 \$11 \, 11 \$12 \, 12 \$13
\, 13 \$14 \, 14 \$15;
#X obj 73 545 ui.radio @size 239 15 @receive "(null)" @send "(null)"
@pinned 0 @presetname "ui.radio.0" @mouse_events 0 @background_color
0.93 0.93 0.93 1 @border_color 0.6 0.6 0.6 1 @label_color 0 0 0 1 @active_color
0 0.75 1 1 @fontname "Helvetica" @fontweight "normal" @fontslant "roman"
@fontsize 11 @label "(null)" @label_inner 0 @label_side "top" @label_align
"left" @label_valign "top" @label_margins 0 0 @nitems 15 @mode 1;
#X text 35 542 Mute;
#X obj 301 795 hoa.2d.map~ 3 56, f 94;
#X obj 1054 815 hoa.scope~ @size 246 246 @receive "(null)" @send "(null)"
@pinned 0 @background_color 0.93 0.93 0.93 1 @border_color 0.6 0.6
0.6 1 @label_color 0 0 0 1 @ph_color 1 0 0 1 @nh_color 0 0 1 1 @fontname
"Helvetica" @fontweight "normal" @fontslant "roman" @fontsize 11 @label
"(null)" @label_inner 0 @label_side "top" @label_align "left" @label_valign
"top" @label_margins 0 0 @gain 78 @refresh 100 @order 3 @view 0;
#X msg 1054 783 @gain \$1;
#X obj 1058 761 hsl 128 15 0 127 0 0 empty empty empty -2 -8 0 10 -262144
-1 -1 0 1;
#X obj 64 745 r to_hoamap_bright;
#X obj 64 769 print;
#X connect 0 0 72 0;
#X connect 1 0 72 1;
#X connect 2 0 72 2;
#X connect 3 0 72 3;
#X connect 4 0 72 4;
#X connect 5 0 72 5;
#X connect 6 0 72 6;
#X connect 7 0 72 7;
#X connect 8 0 72 8;
#X connect 9 0 72 9;
#X connect 10 0 72 10;
#X connect 11 0 72 11;
#X connect 12 0 72 12;
#X connect 13 0 72 13;
#X connect 14 0 72 14;
#X connect 15 0 72 15;
#X connect 16 0 72 16;
#X connect 17 0 72 17;
#X connect 18 0 72 18;
#X connect 19 0 0 0;
#X connect 19 1 1 0;
#X connect 19 2 2 0;
#X connect 19 3 3 0;
#X connect 19 4 4 0;
#X connect 19 5 5 0;
#X connect 19 6 6 0;
#X connect 19 7 7 0;
#X connect 19 8 8 0;
#X connect 19 9 9 0;
#X connect 19 10 10 0;
#X connect 19 11 11 0;
#X connect 19 11 18 0;
#X connect 19 11 17 0;
#X connect 19 11 16 0;
#X connect 19 11 15 0;
#X connect 19 11 14 0;
#X connect 19 11 13 0;
#X connect 19 11 12 0;
#X connect 20 0 22 0;
#X connect 20 1 23 0;
#X connect 20 2 24 0;
#X connect 20 3 25 0;
#X connect 20 4 26 0;
#X connect 20 5 27 0;
#X connect 20 6 28 0;
#X connect 20 7 29 0;
#X connect 20 8 30 0;
#X connect 20 9 31 0;
#X connect 20 10 32 0;
#X connect 20 11 33 0;
#X connect 20 12 34 0;
#X connect 20 13 35 0;
#X connect 20 14 36 0;
#X connect 20 15 37 0;
#X connect 20 16 38 0;
#X connect 20 17 39 0;
#X connect 20 18 40 0;
#X connect 21 0 20 0;
#X connect 22 0 72 19;
#X connect 23 0 72 20;
#X connect 24 0 72 21;
#X connect 25 0 72 22;
#X connect 26 0 72 23;
#X connect 27 0 72 24;
#X connect 28 0 72 25;
#X connect 29 0 72 26;
#X connect 30 0 72 27;
#X connect 31 0 72 28;
#X connect 32 0 72 29;
#X connect 33 0 72 30;
#X connect 34 0 72 31;
#X connect 35 0 72 32;
#X connect 36 0 72 33;
#X connect 37 0 72 34;
#X connect 38 0 72 35;
#X connect 39 0 72 36;
#X connect 40 0 72 37;
#X connect 41 0 43 0;
#X connect 41 1 44 0;
#X connect 41 2 45 0;
#X connect 41 3 46 0;
#X connect 41 4 47 0;
#X connect 41 5 48 0;
#X connect 41 6 49 0;
#X connect 41 7 50 0;
#X connect 41 8 51 0;
#X connect 41 9 52 0;
#X connect 41 10 53 0;
#X connect 41 11 54 0;
#X connect 41 12 55 0;
#X connect 41 13 56 0;
#X connect 41 14 57 0;
#X connect 41 15 58 0;
#X connect 41 16 59 0;
#X connect 41 17 60 0;
#X connect 41 18 61 0;
#X connect 42 0 41 0;
#X connect 43 0 72 38;
#X connect 44 0 72 39;
#X connect 45 0 72 40;
#X connect 46 0 72 41;
#X connect 47 0 72 42;
#X connect 48 0 72 43;
#X connect 49 0 72 44;
#X connect 50 0 72 45;
#X connect 51 0 72 46;
#X connect 53 0 72 47;
#X connect 54 0 72 48;
#X connect 55 0 72 49;
#X connect 56 0 72 50;
#X connect 57 0 72 51;
#X connect 58 0 72 52;
#X connect 59 0 72 53;
#X connect 60 0 72 54;
#X connect 61 0 72 55;
#X connect 62 0 19 0;
#X connect 63 0 62 0;
#X connect 64 0 21 0;
#X connect 65 0 42 0;
#X connect 68 0 72 0;
#X connect 69 0 68 0;
#X connect 70 0 69 0;
#X connect 72 0 66 0;
#X connect 72 0 73 0;
#X connect 72 1 66 1;
#X connect 72 1 73 1;
#X connect 72 2 66 2;
#X connect 72 2 73 2;
#X connect 72 3 66 3;
#X connect 72 3 73 3;
#X connect 72 4 66 4;
#X connect 72 4 73 4;
#X connect 72 5 66 5;
#X connect 72 5 73 5;
#X connect 72 6 66 6;
#X connect 72 6 73 6;
#X connect 74 0 73 0;
#X connect 75 0 74 0;
#X connect 76 0 72 0;
#X connect 76 0 77 0;
#X restore 28 58 pd oscilators_bright;
#N canvas 20 11 861 607 oscilators 0;
#X obj 675 153 oscilator 349.228 1 269.292;
#X obj 675 176 oscilator 415.305 2 349.228;
#X obj 675 199 oscilator 523.251 3 415.305;
#X obj 675 222 oscilator 659.255 4 761.672;
#X obj 675 245 oscilator 761.672 5 659.255;
#X obj 675 268 oscilator 806.964 6 761.672;
#X obj 675 291 oscilator 830.609 7 806.964;
#X obj 675 314 oscilator 987.767 8 830.6;
#X obj 675 337 oscilator 1108.73 9 987.767;
#X obj 675 360 oscilator 1141.22 10 1141.22;
#X obj 675 383 oscilator 1396.91 11 1141.22;
#X obj 675 406 oscilator 1479.98 12 1396.91;
#X obj 675 429 oscilator 1523.34 13 1479.98;
#X obj 675 452 oscilator 1661.22 14 1523.34;
#X obj 399 492 hoa.2d.map~ 3 15, f 35;
#X obj 399 341 r to_hoa.map;
#X obj 675 130 oscilator 269.292 0 254.177;
#X obj 146 188 msg mute;
#X msg 146 144 0 \$1 \, 1 \$2 \, 2 \$3 \, 3 \$4 \, 4 \$5 \, 5 \$6 \,
6 \$7 \, 7 \$8 \, 8 \$9 \, 9 \$10 \, 10 \$11 \, 11 \$12 \, 12 \$13
\, 13 \$14 \, 14 \$15;
#X obj 146 120 ui.radio @size 239 15 @receive "(null)" @send "(null)"
@pinned 0 @presetname "ui.radio.1" @mouse_events 0 @background_color
0.93 0.93 0.93 1 @border_color 0.6 0.6 0.6 1 @label_color 0 0 0 1 @active_color
0 0.75 1 1 @fontname "Helvetica" @fontweight "normal" @fontslant "roman"
@fontsize 11 @label "(null)" @label_inner 0 @label_side "top" @label_align
"left" @label_valign "top" @label_margins 0 0 @nitems 15 @mode 1;
#X text 108 117 Mute;
#X obj 203 534 throw~ amb_1;
#X obj 293 534 throw~ amb_2;
#X obj 383 534 throw~ amb_3;
#X obj 473 534 throw~ amb_4;
#X obj 563 534 throw~ amb_5;
#X obj 653 534 throw~ amb_6;
#X obj 743 534 throw~ amb_7;
#X connect 0 0 14 1;
#X connect 1 0 14 2;
#X connect 2 0 14 3;
#X connect 3 0 14 4;
#X connect 4 0 14 5;
#X connect 5 0 14 6;
#X connect 6 0 14 7;
#X connect 7 0 14 8;
#X connect 8 0 14 9;
#X connect 9 0 14 10;
#X connect 10 0 14 11;
#X connect 11 0 14 12;
#X connect 12 0 14 13;
#X connect 13 0 14 14;
#X connect 14 0 21 0;
#X connect 14 1 22 0;
#X connect 14 2 23 0;
#X connect 14 3 24 0;
#X connect 14 4 25 0;
#X connect 14 5 26 0;
#X connect 14 6 27 0;
#X connect 15 0 14 0;
#X connect 16 0 14 0;
#X connect 17 0 14 0;
#X connect 18 0 17 0;
#X connect 19 0 18 0;
#X coords 0 607 1 606 300 40 0;
#X restore 28 33 pd oscilators;
#N canvas 147 39 1420 828 random_array1 0;
#X obj 93 191 tgl 15 0 empty empty empty 17 7 0 10 -262144 -1 -1 0
1;
#X floatatom 125 188 5 0 0 0 - - -;
#X obj 125 83 r rand_tempo;
#X obj 125 164 line;
#X floatatom 171 188 5 0 0 0 - - -;
#X obj 171 164 line;
#X obj 171 112 r rand_dyn_range;
#X floatatom 219 189 5 0 0 0 - - -;
#X obj 219 165 line;
#X obj 219 141 r rand_dyn_min;
#X obj 93 52 r rand_amp_on;
#N canvas 20 50 1344 779 components_amp 0;
#X obj 212 521 tabwrite array1;
#X floatatom 314 273 5 0 0 0 - - -;
#X obj 80 298 *;
#X floatatom 116 455 5 0 0 0 - - -;
#X obj 80 165 bng 15 250 50 0 empty empty empty 17 7 0 10 -262144 -1
-1;
#X obj 53 87 metro 500;
#X obj 258 68 inlet;
#X obj 53 66 tgl 15 0 empty empty empty 17 7 0 10 -262144 -1 -1 0 1
;
#X obj 52 38 inlet;
#X obj 212 465 pack \$1 \$2;
#X obj 212 489 line;
#X obj 130 213 random 25;
#X obj 350 81 inlet;
#X text 50 12 on off;
#X text 202 33 metro ms;
#X text 321 41 dynamic range;
#X obj 60 190 0.5;
#X obj 60 219 / 25;
#X obj 92 339 *;
#X obj 431 82 inlet;
#X text 430 44 minimum;
#X obj 143 314 / 100;
#X obj 108 389 +;
#X obj 109 419 clip 0 0.5;
#X obj 163 356 / 200;
#X obj 144 263 pack \$1 1000;
#X obj 144 287 line;
#X obj 314 215 random 15;
#X obj 59 683 t b b b;
#X obj 139 702 f;
#X obj 171 702 f;
#X obj 203 702 f;
#X obj 139 672 unpack f f f;
#X text 797 62 rand_amp_on: turn on/off the random amplitude of components
\; rand_tempo: time (ms) to change one amplitude \; rand_dyn_range:
dynamic range of the amplitude \; rand_dyn_min: min value of the dynamic
range \;;
#X obj 106 825 tabwrite array1;
#X obj 69 743 pack \$1 \$2;
#X obj 69 767 line;
#X text 70 618 Notes written in the score;
#X floatatom 106 791 5 0 0 0 - - -;
#X floatatom 201 787 5 0 0 0 - - -;
#X obj 133 646 r note;
#N canvas 20 50 969 617 receive_notes 0;
#X obj 39 37 r note_1;
#X obj 39 63 line;
#X obj 39 87 tabwrite array1;
#X obj 141 64 1;
#X obj 179 63 line;
#X obj 179 87 tabwrite array1;
#X obj 319 63 line;
#X obj 319 87 tabwrite array1;
#X obj 459 63 line;
#X obj 459 87 tabwrite array1;
#X obj 39 143 line;
#X obj 39 167 tabwrite array1;
#X obj 179 143 line;
#X obj 179 167 tabwrite array1;
#X obj 319 143 line;
#X obj 319 167 tabwrite array1;
#X obj 459 143 line;
#X obj 459 167 tabwrite array1;
#X obj 39 223 line;
#X obj 39 247 tabwrite array1;
#X obj 179 223 line;
#X obj 179 247 tabwrite array1;
#X obj 319 223 line;
#X obj 319 247 tabwrite array1;
#X obj 459 223 line;
#X obj 459 247 tabwrite array1;
#X obj 39 303 line;
#X obj 39 327 tabwrite array1;
#X obj 179 303 line;
#X obj 179 327 tabwrite array1;
#X obj 319 303 line;
#X obj 319 327 tabwrite array1;
#X obj 179 37 r note_2;
#X obj 319 37 r note_3;
#X obj 459 37 r note_4;
#X obj 39 117 r note_5;
#X obj 179 117 r note_6;
#X obj 319 117 r note_7;
#X obj 459 117 r note_8;
#X obj 39 197 r note_9;
#X obj 179 197 r note_10;
#X obj 319 197 r note_11;
#X obj 459 197 r note_12;
#X obj 39 277 r note_13;
#X obj 179 277 r note_14;
#X obj 319 277 r note_15;
#X obj 281 64 2;
#X obj 421 64 3;
#X obj 561 64 4;
#X obj 141 144 5;
#X obj 281 144 6;
#X obj 421 144 7;
#X obj 561 144 8;
#X obj 141 224 9;
#X obj 281 224 10;
#X obj 421 224 11;
#X obj 561 224 12;
#X obj 141 304 13;
#X obj 281 304 14;
#X obj 421 304 15;
#X obj 643 44 bng 15 250 50 0 empty empty empty 17 7 0 10 -262144 -1
-1;
#X obj 643 20 loadbang;
#X connect 0 0 1 0;
#X connect 1 0 2 0;
#X connect 3 0 2 1;
#X connect 4 0 5 0;
#X connect 6 0 7 0;
#X connect 8 0 9 0;
#X connect 10 0 11 0;
#X connect 12 0 13 0;
#X connect 14 0 15 0;
#X connect 16 0 17 0;
#X connect 18 0 19 0;
#X connect 20 0 21 0;
#X connect 22 0 23 0;
#X connect 24 0 25 0;
#X connect 26 0 27 0;
#X connect 28 0 29 0;
#X connect 30 0 31 0;
#X connect 32 0 4 0;
#X connect 33 0 6 0;
#X connect 34 0 8 0;
#X connect 35 0 10 0;
#X connect 36 0 12 0;
#X connect 37 0 14 0;
#X connect 38 0 16 0;
#X connect 39 0 18 0;
#X connect 40 0 20 0;
#X connect 41 0 22 0;
#X connect 42 0 24 0;
#X connect 43 0 26 0;
#X connect 44 0 28 0;
#X connect 45 0 30 0;
#X connect 46 0 5 1;
#X connect 47 0 7 1;
#X connect 48 0 9 1;
#X connect 49 0 11 1;
#X connect 50 0 13 1;
#X connect 51 0 15 1;
#X connect 52 0 17 1;
#X connect 53 0 19 1;
#X connect 54 0 21 1;
#X connect 55 0 23 1;
#X connect 56 0 25 1;
#X connect 57 0 27 1;
#X connect 58 0 29 1;
#X connect 59 0 31 1;
#X connect 60 0 48 0;
#X connect 60 0 52 0;
#X connect 60 0 56 0;
#X connect 60 0 47 0;
#X connect 60 0 59 0;
#X connect 60 0 55 0;
#X connect 60 0 51 0;
#X connect 60 0 58 0;
#X connect 60 0 54 0;
#X connect 60 0 50 0;
#X connect 60 0 46 0;
#X connect 60 0 57 0;
#X connect 60 0 53 0;
#X connect 60 0 49 0;
#X connect 60 0 3 0;
#X connect 61 0 60 0;
#X restore 561 40 pd receive_notes;
#X connect 1 0 0 1;
#X connect 2 0 18 0;
#X connect 3 0 9 0;
#X connect 4 0 11 0;
#X connect 4 0 16 0;
#X connect 4 0 27 0;
#X connect 5 0 4 0;
#X connect 6 0 5 1;
#X connect 6 0 9 1;
#X connect 7 0 5 0;
#X connect 8 0 7 0;
#X connect 9 0 10 0;
#X connect 10 0 0 0;
#X connect 11 0 2 1;
#X connect 12 0 25 0;
#X connect 16 0 17 0;
#X connect 17 0 2 0;
#X connect 18 0 22 0;
#X connect 19 0 24 0;
#X connect 21 0 18 1;
#X connect 22 0 23 0;
#X connect 23 0 3 0;
#X connect 24 0 22 1;
#X connect 25 0 26 0;
#X connect 26 0 21 0;
#X connect 27 0 1 0;
#X connect 28 0 30 0;
#X connect 28 1 29 0;
#X connect 28 2 31 0;
#X connect 29 0 34 1;
#X connect 29 0 39 0;
#X connect 30 0 35 0;
#X connect 31 0 35 1;
#X connect 32 0 29 1;
#X connect 32 1 30 1;
#X connect 32 2 31 1;
#X connect 35 0 36 0;
#X connect 36 0 34 0;
#X connect 36 0 38 0;
#X connect 40 0 32 0;
#X connect 40 0 28 0;
#X restore 63 247 pd components_amp;
#X obj 276 330 s rand_tempo_monitor;
#X obj 276 307 s rand_dyn_range_monitor;
#X obj 276 223 s rand_dyn_min_monitor;
#X obj 565 216 array set array1;
#X obj 566 161 bng 15 250 50 0 empty empty empty 17 7 0 10 -262144
-1 -1;
#X obj 566 115 tgl 15 0 empty empty empty 17 7 0 10 -262144 -1 -1 0
1;
#X obj 566 135 metro 5000;
#X msg 565 183 0 0 0 0 0 0 0 0 0 0 0 0 0 0 0;
#X obj 566 62 r array1_zero;
#X obj 566 87 unpack f f;
#X obj 681 142 r array1_zero_now;
#X obj 888 280 array set array1;
#X obj 888 155 r initial_chord;
#X obj 252 274 +;
#X obj 1008 155 r second_chord;
#X msg 1010 205 0.2 0.2 0.2 0.2 0.2 0.2 0.2 0.2 0.2 0.2 0.2 0.2 0.2
0.5 0.2;
#X msg 888 180 0.2 0.13 0.14 0.15 0.1 0.1 0.1 0.11 0.12 0.13 0.14 0.2
0.26 0.3 0.4;
#X connect 0 0 11 0;
#X connect 1 0 11 1;
#X connect 1 0 12 0;
#X connect 2 0 3 0;
#X connect 3 0 1 0;
#X connect 4 0 11 2;
#X connect 4 0 25 1;
#X connect 5 0 4 0;
#X connect 6 0 5 0;
#X connect 7 0 11 3;
#X connect 7 0 14 0;
#X connect 7 0 25 0;
#X connect 8 0 7 0;
#X connect 9 0 8 0;
#X connect 10 0 0 0;
#X connect 16 0 19 0;
#X connect 17 0 18 0;
#X connect 18 0 16 0;
#X connect 19 0 15 0;
#X connect 20 0 21 0;
#X connect 21 0 17 0;
#X connect 21 1 18 1;
#X connect 22 0 16 0;
#X connect 24 0 28 0;
#X connect 25 0 13 0;
#X connect 26 0 27 0;
#X connect 27 0 23 0;
#X connect 28 0 23 0;
#X restore 28 99 pd random_array1;
#N canvas 20 50 1420 828 random_array2 0;
#N canvas 20 50 1420 828 bright_amp 0;
#X floatatom 314 273 5 0 0 0 - - -;
#X obj 80 298 *;
#X floatatom 116 455 5 0 0 0 - - -;
#X obj 80 165 bng 15 250 50 0 empty empty empty 17 7 0 10 -262144 -1
-1;
#X obj 53 87 metro 500;
#X obj 258 68 inlet;
#X obj 53 66 tgl 15 0 empty empty empty 17 7 0 10 -262144 -1 -1 0 1
;
#X obj 52 38 inlet;
#X obj 212 465 pack \$1 \$2;
#X obj 212 489 line;
#X obj 130 213 random 25;
#X obj 350 81 inlet;
#X text 50 12 on off;
#X text 219 37 metro ms;
#X text 321 41 dynamic range;
#X obj 60 190 0.5;
#X obj 60 219 / 25;
#X obj 92 339 *;
#X obj 431 82 inlet;
#X text 430 44 minimum;
#X obj 143 314 / 100;
#X obj 108 389 +;
#X obj 109 419 clip 0 0.5;
#X obj 163 356 / 200;
#X obj 144 263 pack \$1 1000;
#X obj 144 287 line;
#X text 797 62 rand_amp_on: turn on/off the random amplitude of components
\; rand_tempo: time (ms) to change one amplitude \; rand_dyn_range:
dynamic range of the amplitude \; rand_dyn_min: min value of the dynamic
range \;;
#X obj 212 521 tabwrite array2;
#X obj 314 215 random 55;
#X connect 0 0 27 1;
#X connect 1 0 17 0;
#X connect 2 0 8 0;
#X connect 3 0 10 0;
#X connect 3 0 15 0;
#X connect 3 0 28 0;
#X connect 4 0 3 0;
#X connect 5 0 4 1;
#X connect 5 0 8 1;
#X connect 6 0 4 0;
#X connect 7 0 6 0;
#X connect 8 0 9 0;
#X connect 9 0 27 0;
#X connect 10 0 1 1;
#X connect 11 0 24 0;
#X connect 15 0 16 0;
#X connect 16 0 1 0;
#X connect 17 0 21 0;
#X connect 18 0 23 0;
#X connect 20 0 17 1;
#X connect 21 0 22 0;
#X connect 22 0 2 0;
#X connect 23 0 21 1;
#X connect 24 0 25 0;
#X connect 25 0 20 0;
#X connect 28 0 0 0;
#X restore 107 209 pd bright_amp;
#X obj 78 183 tgl 15 0 empty empty empty 17 7 0 10 -262144 -1 -1 0
1;
#X floatatom 98 180 5 0 0 0 - - -;
#X obj 98 156 line;
#X floatatom 149 180 5 0 0 0 - - -;
#X obj 149 156 line;
#X floatatom 197 181 5 0 0 0 - - -;
#X obj 197 157 line;
#X obj 87 34 r rand_amp_on_bright;
#X obj 98 72 r rand_tempo_bright;
#X obj 129 104 r rand_dyn_range_bright;
#X obj 198 133 r rand_dyn_min_bright;
#X obj 270 185 s rand_dyn_min_bright_monitor;
#X obj 270 270 s rand_dyn_range_bright_monitor;
#X obj 17 239 s rand_tempo_bright_monitor;
#X obj 585 123 bng 15 250 50 0 empty empty empty 17 7 0 10 -262144
-1 -1;
#X obj 585 77 tgl 15 0 empty empty empty 17 7 0 10 -262144 -1 -1 0
1;
#X obj 584 187 array set array2;
#X obj 585 97 metro 9000;
#X msg 584 145 0 0 0 0 0 0 0 0 0 0 0 0 0 0 0 0 0 0 0 0 0 0 0 0 0 0
0 0 0 0 0 0 0 0 0 0 0 0 0 0 0 0 0 0 0 0 0 0 0 0 0 0 0 0 0 0;
#X obj 585 52 unpack f f;
#X obj 585 27 r array2_zero;
#X obj 736 99 r array2_zero_now;
#X obj 260 231 +;
#X connect 1 0 0 0;
#X connect 2 0 0 1;
#X connect 2 0 14 0;
#X connect 3 0 2 0;
#X connect 4 0 0 2;
#X connect 4 0 23 1;
#X connect 5 0 4 0;
#X connect 6 0 0 3;
#X connect 6 0 12 0;
#X connect 6 0 23 0;
#X connect 7 0 6 0;
#X connect 8 0 1 0;
#X connect 9 0 3 0;
#X connect 10 0 5 0;
#X connect 11 0 7 0;
#X connect 15 0 19 0;
#X connect 16 0 18 0;
#X connect 18 0 15 0;
#X connect 19 0 17 0;
#X connect 20 0 16 0;
#X connect 20 1 18 1;
#X connect 21 0 20 0;
#X connect 22 0 15 0;
#X connect 23 0 13 0;
#X restore 28 121 pd random_array2;
#X text 26 14 Instrument;
#X text 26 80 Instrumentist;
#N canvas 20 50 625 347 note_followers 0;
#X obj 28 297 note_follow 92;
#X obj 28 31 note_follow 60.5 0;
#X obj 28 50 note_follow 65 1;
#X obj 28 69 note_follow 68 2;
#X obj 28 88 note_follow 72 3;
#X obj 28 107 note_follow 76 4;
#X obj 28 126 note_follow 78.5 5;
#X obj 28 145 note_follow 79.5 6;
#X obj 28 164 note_follow 80 93.5 7;
#X obj 28 183 note_follow 83 96.02 8;
#X obj 28 202 note_follow 85 97.25 9;
#X obj 28 221 note_follow 85.5 10;
#X obj 28 240 note_follow 89 11;
#X obj 28 259 note_follow 90 12;
#X obj 28 278 note_follow 90.5 13;
#X obj 303 28 note_follow_ring 39.4 74.8 0;
#X obj 303 47 note_follow_ring 36.1 78.5 1;
#X obj 303 66 note_follow_ring 44.6 82.1 2;
#X obj 303 85 note_follow_ring 48.6 86.1 3;
#X obj 303 104 note_follow_ring 43.76 89.29 4;
#X obj 303 123 note_follow_ring 29.6 91 5;
#X obj 303 142 note_follow_ring 18.38 91.75 6;
#X obj 303 161 note_follow_ring 51.17 93.5 7;
#X obj 303 180 note_follow_ring 46.64 96.02 8;
#X obj 303 199 note_follow_ring 23.88 97.25 9;
#X obj 303 218 note_follow_ring 59.6 99.33 10;
#X obj 303 237 note_follow_ring 40.13 101.5 11;
#X obj 303 256 note_follow_ring 28.88 102.25 12;
#X obj 303 275 note_follow_ring 48.91 103.26 13;
#X restore 28 143 pd note_followers;
#X text 205 201 Parameters list \; -- \; original \; ring_modulation
\; bright \; -- \; amp_modulation \; amp_coeficient \; -- \; vibrato
\; vib_coeficient \; -- \; amp_modulation_bright \; amp_coeficient_bright
\; -- \; smooth \; -- \; random_amp_on \; rand_tempo \; rand_dyn_range
\; rand_dyn_min \; array1_zero \; -- \; random_amp_on_bright \; rand_tempo_bright
\; rand_dyn_range_bright \; rand_dyn_min_bright \; array2_zero \; --
\; note_followers_on \; unison_fade \; -- \; darkness \;;
#N canvas 0 22 450 300 array1_write 0;
#X obj 7 17 r array1_write;
#X obj 7 41 unpack 0 0;
#X obj 7 66 tabwrite array1;
#X connect 0 0 1 0;
#X connect 1 0 2 0;
#X connect 1 1 2 1;
#X restore 28 167 pd array1_write;
#N canvas 0 22 343 498 harmonics 0;
#N canvas 125 127 718 497 harmonic 0;
#X floatatom 93 46 5 0 0 0 - - -;
#X obj 93 209 osc~;
#X obj 93 333 *~;
#X obj 93 183 *;
#X obj 111 154 float \$1;
#X obj 111 128 bang;
#X obj 206 235 /;
#X obj 241 164 float \$1;
#X obj 241 140 r metro;
#X obj 206 259 pack 0 300;
#X obj 206 283 line~;
#X obj 93 22 r \$0-main-freq;
#X obj 206 102 r \$0-env;
#X obj 241 188 * 0.3;
#X obj 93 357 throw~ \$0-harmonics_out;
#X connect 0 0 5 0;
#X connect 0 0 3 0;
#X connect 1 0 2 0;
#X connect 2 0 14 0;
#X connect 3 0 1 0;
#X connect 4 0 3 1;
#X connect 5 0 4 0;
#X connect 6 0 9 0;
#X connect 7 0 13 0;
#X connect 8 0 7 0;
#X connect 9 0 10 0;
#X connect 10 0 2 1;
#X connect 11 0 0 0;
#X connect 12 0 6 0;
#X connect 13 0 6 1;
#X restore 68 234 pd harmonic 2;
#X obj 39 104 inlet~;
#X obj 67 200 s \$0-env;
#X obj 69 417 catch~ \$0-harmonics_out;
#X obj 39 441 outlet~;
#N canvas 125 127 718 497 harmonic 0;
#X floatatom 93 46 5 0 0 0 - - -;
#X obj 93 209 osc~;
#X obj 93 333 *~;
#X obj 93 183 *;
#X obj 111 154 float \$1;
#X obj 111 128 bang;
#X obj 206 235 /;
#X obj 241 164 float \$1;
#X obj 241 140 r metro;
#X obj 206 259 pack 0 300;
#X obj 206 283 line~;
#X obj 93 22 r \$0-main-freq;
#X obj 206 102 r \$0-env;
#X obj 241 188 * 0.3;
#X obj 93 357 throw~ \$0-harmonics_out;
#X connect 0 0 5 0;
#X connect 0 0 3 0;
#X connect 1 0 2 0;
#X connect 2 0 14 0;
#X connect 3 0 1 0;
#X connect 4 0 3 1;
#X connect 5 0 4 0;
#X connect 6 0 9 0;
#X connect 7 0 13 0;
#X connect 8 0 7 0;
#X connect 9 0 10 0;
#X connect 10 0 2 1;
#X connect 11 0 0 0;
#X connect 12 0 6 0;
#X connect 13 0 6 1;
#X restore 68 253 pd harmonic 3;
#N canvas 125 127 718 497 harmonic 0;
#X floatatom 93 46 5 0 0 0 - - -;
#X obj 93 209 osc~;
#X obj 93 333 *~;
#X obj 93 183 *;
#X obj 111 154 float \$1;
#X obj 111 128 bang;
#X obj 206 235 /;
#X obj 241 164 float \$1;
#X obj 241 140 r metro;
#X obj 206 259 pack 0 300;
#X obj 206 283 line~;
#X obj 93 22 r \$0-main-freq;
#X obj 206 102 r \$0-env;
#X obj 241 188 * 0.3;
#X obj 93 357 throw~ \$0-harmonics_out;
#X connect 0 0 5 0;
#X connect 0 0 3 0;
#X connect 1 0 2 0;
#X connect 2 0 14 0;
#X connect 3 0 1 0;
#X connect 4 0 3 1;
#X connect 5 0 4 0;
#X connect 6 0 9 0;
#X connect 7 0 13 0;
#X connect 8 0 7 0;
#X connect 9 0 10 0;
#X connect 10 0 2 1;
#X connect 11 0 0 0;
#X connect 12 0 6 0;
#X connect 13 0 6 1;
#X restore 68 272 pd harmonic 4;
#N canvas 125 127 718 497 harmonic 0;
#X floatatom 93 46 5 0 0 0 - - -;
#X obj 93 209 osc~;
#X obj 93 333 *~;
#X obj 93 183 *;
#X obj 111 154 float \$1;
#X obj 111 128 bang;
#X obj 206 235 /;
#X obj 241 164 float \$1;
#X obj 241 140 r metro;
#X obj 206 259 pack 0 300;
#X obj 206 283 line~;
#X obj 93 22 r \$0-main-freq;
#X obj 206 102 r \$0-env;
#X obj 241 188 * 0.3;
#X obj 93 357 throw~ \$0-harmonics_out;
#X connect 0 0 5 0;
#X connect 0 0 3 0;
#X connect 1 0 2 0;
#X connect 2 0 14 0;
#X connect 3 0 1 0;
#X connect 4 0 3 1;
#X connect 5 0 4 0;
#X connect 6 0 9 0;
#X connect 7 0 13 0;
#X connect 8 0 7 0;
#X connect 9 0 10 0;
#X connect 10 0 2 1;
#X connect 11 0 0 0;
#X connect 12 0 6 0;
#X connect 13 0 6 1;
#X restore 68 291 pd harmonic 5;
#N canvas 125 127 718 497 harmonic 0;
#X floatatom 93 46 5 0 0 0 - - -;
#X obj 93 209 osc~;
#X obj 93 333 *~;
#X obj 93 183 *;
#X obj 111 154 float \$1;
#X obj 111 128 bang;
#X obj 206 235 /;
#X obj 241 164 float \$1;
#X obj 241 140 r metro;
#X obj 206 259 pack 0 300;
#X obj 206 283 line~;
#X obj 93 22 r \$0-main-freq;
#X obj 206 102 r \$0-env;
#X obj 241 188 * 0.3;
#X obj 93 357 throw~ \$0-harmonics_out;
#X connect 0 0 5 0;
#X connect 0 0 3 0;
#X connect 1 0 2 0;
#X connect 2 0 14 0;
#X connect 3 0 1 0;
#X connect 4 0 3 1;
#X connect 5 0 4 0;
#X connect 6 0 9 0;
#X connect 7 0 13 0;
#X connect 8 0 7 0;
#X connect 9 0 10 0;
#X connect 10 0 2 1;
#X connect 11 0 0 0;
#X connect 12 0 6 0;
#X connect 13 0 6 1;
#X restore 68 310 pd harmonic 6;
#N canvas 125 127 718 497 harmonic 0;
#X floatatom 93 46 5 0 0 0 - - -;
#X obj 93 209 osc~;
#X obj 93 333 *~;
#X obj 93 183 *;
#X obj 111 154 float \$1;
#X obj 111 128 bang;
#X obj 206 235 /;
#X obj 241 164 float \$1;
#X obj 241 140 r metro;
#X obj 206 259 pack 0 300;
#X obj 206 283 line~;
#X obj 93 22 r \$0-main-freq;
#X obj 206 102 r \$0-env;
#X obj 241 188 * 0.3;
#X obj 93 357 throw~ \$0-harmonics_out;
#X connect 0 0 5 0;
#X connect 0 0 3 0;
#X connect 1 0 2 0;
#X connect 2 0 14 0;
#X connect 3 0 1 0;
#X connect 4 0 3 1;
#X connect 5 0 4 0;
#X connect 6 0 9 0;
#X connect 7 0 13 0;
#X connect 8 0 7 0;
#X connect 9 0 10 0;
#X connect 10 0 2 1;
#X connect 11 0 0 0;
#X connect 12 0 6 0;
#X connect 13 0 6 1;
#X restore 68 329 pd harmonic 7;
#N canvas 125 127 718 497 harmonic 0;
#X floatatom 93 46 5 0 0 0 - - -;
#X obj 93 209 osc~;
#X obj 93 333 *~;
#X obj 93 183 *;
#X obj 111 154 float \$1;
#X obj 111 128 bang;
#X obj 206 235 /;
#X obj 241 164 float \$1;
#X obj 241 140 r metro;
#X obj 206 259 pack 0 300;
#X obj 206 283 line~;
#X obj 93 22 r \$0-main-freq;
#X obj 206 102 r \$0-env;
#X obj 241 188 * 0.3;
#X obj 93 357 throw~ \$0-harmonics_out;
#X connect 0 0 5 0;
#X connect 0 0 3 0;
#X connect 1 0 2 0;
#X connect 2 0 14 0;
#X connect 3 0 1 0;
#X connect 4 0 3 1;
#X connect 5 0 4 0;
#X connect 6 0 9 0;
#X connect 7 0 13 0;
#X connect 8 0 7 0;
#X connect 9 0 10 0;
#X connect 10 0 2 1;
#X connect 11 0 0 0;
#X connect 12 0 6 0;
#X connect 13 0 6 1;
#X restore 68 348 pd harmonic 8;
#N canvas 125 127 718 497 harmonic 0;
#X floatatom 93 46 5 0 0 0 - - -;
#X obj 93 209 osc~;
#X obj 93 333 *~;
#X obj 93 183 *;
#X obj 111 154 float \$1;
#X obj 111 128 bang;
#X obj 206 235 /;
#X obj 241 164 float \$1;
#X obj 241 140 r metro;
#X obj 206 259 pack 0 300;
#X obj 206 283 line~;
#X obj 93 22 r \$0-main-freq;
#X obj 206 102 r \$0-env;
#X obj 241 188 * 0.3;
#X obj 93 357 throw~ \$0-harmonics_out;
#X connect 0 0 5 0;
#X connect 0 0 3 0;
#X connect 1 0 2 0;
#X connect 2 0 14 0;
#X connect 3 0 1 0;
#X connect 4 0 3 1;
#X connect 5 0 4 0;
#X connect 6 0 9 0;
#X connect 7 0 13 0;
#X connect 8 0 7 0;
#X connect 9 0 10 0;
#X connect 10 0 2 1;
#X connect 11 0 0 0;
#X connect 12 0 6 0;
#X connect 13 0 6 1;
#X restore 68 367 pd harmonic 9;
#X obj 235 88 / 100;
#X obj 235 112 clip 0 1;
#X obj 265 34 env~ 16384 16384;
#X obj 68 146 loadbang;
#X msg 68 170 1;
#X connect 1 0 4 0;
#X connect 3 0 4 0;
#X connect 12 0 13 0;
#X connect 14 0 12 0;
#X connect 15 0 16 0;
#X connect 16 0 2 0;
#X restore 655 928 pd harmonics;
#X coords 0 486 1 485 85 60 0;
#X restore 84 805 pd electronics;
#X obj 181 445 nbx 5 14 -1e+37 1e+37 0 0 empty smooth fade_time 0 -8
0 10 -262144 -1 -1 1000 256;
#X obj 85 510 nbx 5 14 -1e+37 1e+37 0 0 empty rand_tempo_monitor tempo
54 8 0 9 -262144 -1 -1 300 256;
#X obj 26 510 tgl 15 0 empty rand_amp_on random 17 7 0 10 -262144 -1
-1 0 1;
#X text 24 412 Monitor;
#X obj 326 511 nbx 5 14 -1e+37 1e+37 0 0 empty rand_tempo_bright_monitor
tempo 54 8 0 9 -262144 -1 -1 200 256;
#X obj 266 510 tgl 15 0 empty rand_amp_on_bright random 17 7 0 10 -262144
-1 -1 0 1;
#X obj 26 718 tgl 15 0 empty note_followers_on note_followers 17 7
0 10 -262144 -1 -1 0 1;
#X text 1104 47 Parameters list \; -- \; original \; ring_modulation
\; bright \; -- \; amp_modulation \; amp_coeficient \; -- \; vibrato
\; vib_coeficient \; -- \; amp_modulation_bright \; amp_coeficient_bright
\; -- \; smooth \; -- \; random_amp_on \; rand_tempo \; rand_dyn_range
\; rand_dyn_min \; array1_zero \; -- \; random_amp_on_bright \; rand_tempo_bright
\; rand_dyn_range_bright \; rand_dyn_min_bright \; array2_zero \; --
\; note_followers_on \; unison_fade \; -- \; darkness \; reverb \;
;
#X obj 26 743 tgl 15 0 empty amp_modulation amp_modulation 17 7 0 10
-262144 -1 -1 0 1;
#X obj 135 743 nbx 5 14 -1e+37 1e+37 0 0 empty amp_coeficient coef
54 8 0 9 -262144 -1 -1 0 256;
#X obj 26 767 tgl 15 0 empty vibrato vibrato 17 7 0 10 -262144 -1 -1
1 1;
#X obj 91 767 nbx 5 14 -1e+37 1e+37 0 0 empty vib_coeficient coef 54
8 0 9 -262144 -1 -1 1 256;
#X obj 266 743 tgl 15 0 empty amp_modulation_bright amp_modulation
17 7 0 10 -262144 -1 -1 0.4 1;
#X obj 375 743 nbx 5 14 -1e+37 1e+37 0 0 empty amp_coeficient_bright
coef 54 8 0 9 -262144 -1 -1 0.01 256;
#X text 25 689 bell components;
#X text 263 690 bright components;
#X obj 145 91 bng 20 250 50 0 start empty start -3 27 0 10 -2261 -1
-1;
#X text 146 122 or;
#X obj 1138 671 *~ 0;
#X obj 950 346 r stop_score;
#X obj 29 464 hsl 100 8 0 1 0 0 empty original_monitor original_chord
-2 -8 0 10 -262144 -1 -1 0 1;
#X obj 30 490 hsl 100 8 0 1 0 0 empty ring_modulation_monitor ring_modulation
-2 -8 0 10 -262144 -1 -1 0 1;
#X obj 269 494 hsl 100 8 0 1 0 0 empty bright_on_monitor bright -2
-8 0 10 -262144 -1 -1 0 1;
#X obj 135 719 nbx 5 14 -1e+37 1e+37 0 0 empty midi_note midi 54 8
0 9 -262144 -1 -1 67 256;
#X obj 1118 571 r midi_note;
#X msg 452 1198 20;
#X obj 955 649 hsl 128 15 0 127 0 0 empty empty empty -2 -8 0 10 -262144
-1 -1 0 1;
#X obj 952 601 random 60;
#X obj 952 625 + 40;
#X text 23 265 Organ;
#X text 88 265 Electronics;
#X msg 37 888 0.3;
#X msg 351 903 \; note_followers_on \$1 \; note_followers_ring_on \$1
\; note_followers_min 0 \; note_followers_max 0.7 \; unison_fade 120
\;;
#X obj 272 78 bng 15 250 50 0 empty empty empty 17 7 0 10 -262144 -1
-1;
#X msg 899 28 \; antescofo-mess stop \;;
#X msg 895 64 \; array2_zero_now bang \;;
#N canvas 0 22 1003 617 click 0;
#N canvas 0 0 1440 878 (subpatch) 0;
#X array click 100 float 1;
#A 0 0 0.0387244 0.0706152 0.148064 0.216401 0.312074 0.482917 0.601368
0.847383 0.444193 -5.96046e-08 -0.0706153 -0.282461 -0.460138 -0.569478
-0.667428 -0.724376 -0.840549 -0.929388 -0.872437 -0.284736 -0.19362
-0.104781 -0.0683346 0.018226 0.0637842 0.186791 0.298409 0.425972
0.492031 0.656041 0.765381 0.87472 0.993172 0.785882 0.694765 0.457863
0.38497 0.305243 0.218682 0.179958 0.0865633 -0.73804 -0.605922 -0.526195
-0.435078 -0.343962 -0.205009 -0.125282 0.0159481 0.100231 0.170846
0.257407 0.355357 0.453307 0.942857 0.23235 0.168568 -0.0409997 -0.239178
-0.341684 -0.842857 -0.676537 -0.512527 -0.166285 -0.0250543 0.0751737
0.928571 0.448751 0.348523 0.223238 0.137816 0.0523946 -0.0432776 -0.100225
-0.168563 -0.2369 -0.282458 -0.366741 -0.412299 -0.494304 0.0774516
0.06834 0.0569504 0.018226 -0.00455314 -0.0387218 -0.0615009 -0.08428
-0.12756 -0.170841 -0.211843 -0.230066 -0.257401 -0.264235 0.0296155
-0.102506 -0.0592257 -0.0296129 0;
#X coords 0 1 99 -1 200 140 1;
#X restore 251 63 graph;
#X obj 247 330 tabplay~ click;
#X msg 247 306 bang;
#X obj 247 378 dac~;
#X obj 247 275 r measure;
#X msg 399 309 bang;
#X obj 399 381 dac~;
#X obj 399 357 *~ 0.1;
#X obj 399 333 tabplay~ click-2;
#X obj 399 278 r event_number;
#N canvas 0 0 1440 878 (subpatch) 0;
#X array click-2 100 float 1;
#A 0 0 0.0387244 0.0142857 0.0285714 0.0285714 0.0428571 0.0285714
0.0285714 0.0285714 0.0285714 0.0714286 0.0714286 0.0714286 0.0714286
0.0857143 0.1 0.114286 0.114286 0.128571 0.142857 0.157143 0.185714
0.214285 0.257142 0.285714 0.314285 0.328571 0.342857 0.357142 0.357142
0.357142 0.357142 0.342857 0.328571 0.3 0.285714 0.257142 0.228571
0.214285 0.185714 0.171428 0.142857 0.128571 0.1 0.0857143 0.0714286
0.0571429 0.0285715 0.0285715 0.0142859 -0.0285712 -0.0285712 -0.0571426
-0.0857139 -0.114285 -0.142857 -0.157142 -0.185714 -0.214285 -0.242856
-0.257142 -0.285713 -0.299999 -0.314285 -0.328571 -0.328571 -0.342856
-0.342856 -0.342856 -0.342856 -0.342856 -0.328571 -0.314285 -0.299999
-0.285713 -0.257142 -0.242856 -0.228571 -0.199999 -0.185714 -0.171428
-0.157142 -0.142857 -0.114285 -0.0999996 -0.0857139 -0.0571426 -0.0428569
-0.0285712 -0.0285712 -0.0142855 1.78814e-07 0.0142859 0.0142859 0.0285715
0.0296155 -0.102506 -0.0592257 -0.0296129 0;
#X coords 0 1 99 -1 200 140 1;
#X restore 462 66 graph;
#X obj 167 168 * 0.1;
#X obj 163 103 tgl 15 0 empty empty empty 17 7 0 10 -262144 -1 -1 0
1;
#X obj 247 354 *~ 0.2;
#X obj 120 169 * 0.2;
#X obj 102 31 loadbang;
#X msg 102 57 0;
#X connect 1 0 13 0;
#X connect 2 0 1 0;
#X connect 4 0 2 0;
#X connect 5 0 8 0;
#X connect 7 0 6 0;
#X connect 7 0 6 1;
#X connect 8 0 7 0;
#X connect 9 0 5 0;
#X connect 11 0 7 1;
#X connect 12 0 11 0;
#X connect 12 0 14 0;
#X connect 13 0 3 0;
#X connect 13 0 3 1;
#X connect 14 0 13 1;
#X connect 15 0 16 0;
#X connect 16 0 12 0;
#X coords 0 -1 1 1 80 20 1 100 100;
#X restore 341 265 pd click;
#N canvas 0 22 327 214 declare 0;
#X obj 14 19 declare -lib else;
#X obj 14 44 declare -lib antescofo;
#X text 17 143 Acknowledgements;
#X text 17 159 MuTAnt team (Ircam) for Antescofo \; Alexandre Porres
for Else Library \;;
#X obj 14 67 declare -lib ceammc;
#X restore 247 805 pd declare;
#X msg 37 1011 1;
#X msg 1012 1198 60;
#X obj 885 936 s vibrato_bright;
#X obj 893 906 tgl 15 0 empty empty empty 17 7 0 10 -262144 -1 -1 0
1;
#N canvas 0 22 450 300 parameters_monitor_arrays 0;
#N canvas 0 22 778 453 (subpatch) 0;
#X array a-original 100 float 5;
#A 0 0 0 0 0 0 0 0 0 0 0 0 0 0 0 0 0 0 0 0 0 0 0 0 0 0 0 0 0 0 0 0
0 0 0 0 0 0 0.4 0.4 0.4 0.4 0.349714 0.4 0 0.4 0.212 0 0.108 0.312286
0 0.3 0.3 0.3 0.3 0.3 0 0.3 0.3 0.3 0.3 0.3 0 0 0.3 0.3 0.3 0.3 0 0.1952
0 0.2576 0.4 0.4 0.223654 0 0 0.018 0 0 0 0 0 0 0 0 0 0 0 0 0 0 0 0
0 0 0 0.084 0.3 0 0;
#X coords 0 1 99 0 200 50 1 0 0;
#X restore 23 69 graph;
#N canvas 0 22 450 300 a-original 0;
#X obj 29 161 tabwrite a-original;
#X obj 47 37 r original;
#X obj 47 61 line;
#X obj 177 66 r event_number;
#X obj 29 135 f;
#X obj 97 96 t b b;
#X obj 159 135 f;
#X connect 1 0 2 0;
#X connect 2 0 4 1;
#X connect 3 0 6 1;
#X connect 3 0 5 0;
#X connect 4 0 0 0;
#X connect 5 0 6 0;
#X connect 5 1 4 0;
#X connect 6 0 0 1;
#X restore 128 30 pd a-original;
#N canvas 0 22 450 278 (subpatch) 0;
#X array a-vib_coeficient 100 float 5;
#A 0 1 1 1 1 1 1 1 1 1 1 1 1 1 1 1 1 1 1 1 1 1 1 1 1 1 1 1 1 1 1 1
1 1 1 1 1 0 6 6 6 6 6 3 0 3 3 3 3 6 0 6 6 6 4 3 0 4 4 6 6 6 0 6 6 6
6 6 6 6 0 6 6 6 6 6 0 6 6 6 6 6 6 6 6 6 0 6 3 6 6 0 3 3 3 3 3 3 3 6
6;
#X coords 0 12 99 0 200 50 1 0 0;
#X restore 23 184 graph;
#N canvas 0 22 631 411 a-vib_coeficient 0;
#X obj 47 61 line;
#X obj 177 66 r event_number;
#X obj 29 135 f;
#X obj 97 96 t b b;
#X obj 159 135 f;
#X obj 47 37 r vib_coeficient;
#X obj 29 161 tabwrite a-vib_coeficient;
#X connect 0 0 2 1;
#X connect 1 0 4 1;
#X connect 1 0 3 0;
#X connect 2 0 6 0;
#X connect 3 0 4 0;
#X connect 3 1 2 0;
#X connect 4 0 6 1;
#X connect 5 0 0 0;
#X restore 86 145 pd a-vib_coeficient;
#N canvas 0 0 1440 872 score_electronics 0;
#N canvas 0 22 450 278 (subpatch) 0;
#X array a-original-A 40 float 3;
#A 0 0.0249995 0.2 0.514997 0.549996 0.564995 0.574995 0.584995 0.584995
0.594995 0.594995 0.584995 0.569995 0.569995 0.554996 0.539996 0.519997
0.514997 0.504997 0.504997 0.504997 0.489997 0.514997 0.529996 0.539996
0.549996 0.574995 0.589995 0.575 0.559996 0.569995 0.569995 0.529987
0.514987 0.435 0.365003 0.3 0.150008 0.045 0.095 0.275;
#X coords 0 1 40 0 400 100 1 0 0;
#X restore 56 31 graph;
#X obj 154 335 s original;
#X obj 71 240 r event_number;
#X obj 69 352 r original;
#X floatatom 69 376 5 0 0 0 - - -;
#X obj 486 744 f;
#X obj 441 707 t b b;
#X obj 410 744 f;
#X obj 338 736 line;
#X msg 338 662 0 \, 1;
#X obj 354 688 del 1;
#X msg 380 714 0;
#X symbolatom 396 515 10 0 0 0 - - -;
#X obj 397 489 r measure;
#X floatatom 515 698 5 0 0 0 - - -;
#X obj 396 538 sel measure10;
#X obj 396 562 0;
#X obj 344 631 spigot;
#X obj 344 542 bang;
#X obj 505 667 r event_number;
#X obj 379 777 tabwrite a-measures-A;
#X msg 104 492 \; antescofo-mess play \;;
#X obj 284 646 bng 15 250 50 0 empty empty empty 17 7 0 10 -262144
-1 -1;
#X obj 532 308 hsl 128 15 0 127 0 0 empty empty empty -2 -8 0 10 -262144
-1 -1 0 1;
#X msg 529 333 \; antescofo-mess tempo \$1 \;;
#X obj 529 260 tgl 15 0 empty empty empty 17 7 0 10 -262144 -1 -1 0
1;
#X obj 529 280 metro 1000;
#X obj 384 612 tgl 15 0 empty empty empty 17 7 0 10 -262144 -1 -1 0
1;
#N canvas 0 22 450 278 (subpatch) 0;
#X array a-measures-A 40 float 1;
#A 0 0 0 0 0 0 0 0 0 0 0 0 0 0 0 0 0 0 0 0 0 0 0 0 0 0 0 0 0 0 0 0
0 0 0 0 0 0 0 0 0;
#X coords 0 1 39 0 400 20 1 0 0;
#X restore 613 455 graph;
#X obj 71 268 tabread a-original-A;
#N canvas 0 22 450 278 (subpatch) 0;
#X coords 0 1 39 0 40 20 1 0 0;
#X restore 66 131 graph;
#X obj 71 292 pack 0 200;
#N canvas 0 22 450 278 (subpatch) 0;
#X coords 0 1 39 0 60 20 1 0 0;
#X restore 106 131 graph;
#N canvas 0 22 450 278 (subpatch) 0;
#X coords 0 1 39 0 60 20 1 0 0;
#X restore 166 131 graph;
#N canvas 0 22 450 278 (subpatch) 0;
#X coords 0 1 39 0 60 20 1 0 0;
#X restore 226 131 graph;
#N canvas 0 22 450 278 (subpatch) 0;
#X coords 0 1 39 0 60 20 1 0 0;
#X restore 286 131 graph;
#N canvas 0 22 450 278 (subpatch) 0;
#X coords 0 1 39 0 60 20 1 0 0;
#X restore 346 131 graph;
#N canvas 0 22 450 278 (subpatch) 0;
#X coords 0 1 39 0 30 20 1 0 0;
#X restore 406 131 graph;
#N canvas 0 22 450 278 (subpatch) 0;
#X coords 0 1 39 0 10 20 1 0 0;
#X restore 56 131 graph;
#N canvas 0 22 450 278 (subpatch) 0;
#X coords 0 1 39 0 20 20 1 0 0;
#X restore 436 131 graph;
#X text 53 150 1;
#X text 65 150 2;
#X text 105 150 3;
#X text 165 150 4;
#X text 225 150 5;
#X text 285 150 6;
#X text 345 150 7;
#X text 405 150 8;
#X text 435 150 9;
#X connect 2 0 29 0;
#X connect 3 0 4 0;
#X connect 5 0 20 1;
#X connect 6 0 7 0;
#X connect 6 1 5 0;
#X connect 7 0 20 0;
#X connect 8 0 7 1;
#X connect 9 0 10 0;
#X connect 9 0 8 0;
#X connect 10 0 11 0;
#X connect 11 0 8 0;
#X connect 12 0 15 0;
#X connect 12 0 18 0;
#X connect 13 0 12 0;
#X connect 15 0 16 0;
#X connect 16 0 27 0;
#X connect 17 0 9 0;
#X connect 17 0 22 0;
#X connect 18 0 17 0;
#X connect 19 0 5 1;
#X connect 19 0 6 0;
#X connect 19 0 14 0;
#X connect 23 0 24 0;
#X connect 25 0 26 0;
#X connect 26 0 23 0;
#X connect 27 0 17 1;
#X connect 29 0 31 0;
#X restore 288 11 pd score_electronics;
#X restore 220 406 pd parameters_monitor_arrays;
#X obj 275 153 hsl 90 15 0 127 0 0 antescofo_tempo empty change_tempo
-2 -8 0 10 -262144 -1 -1 0 1;
#N canvas 599 132 284 185 ui_messages 1;
#N canvas 20 50 1202 692 chords 0;
#X msg 22 42 list 269.292 349.228 415.305 523.251 659.255 761.672 806.964
830.609 987.767 1108.73 1141.22 1396.91 1479.98 1523.34 1661.22;
#X text 21 19 CHORD 1: BELLS;
#X text 21 107 CHORD 2: BELLS RING MODULATION;
#X text 21 219 CHORD 3: BRIGHT (sum freqs of the ring modulation >
807);
#X msg 21 127 24 32.5 43 45 66 80 83 102.5 108 121 136 138 157 256
269 349 415 523 618.5 659 762 764.5 807 830.5 938.5 988 1109 1141 1182.5
1397 1421 1480 1523 1569 1637.5 1818.5 2096.5 2250 2538 2877 3003 3184.5
;
#X text 22 234 a + b \, b + c \, c + d;
#X msg 24 270 [1637.5 \, 1769 \, 1926.5 \, 2097 \, 2250 \, 2323.5 \,
2579.5 \, 2818 \, 2901 \, 3003 \, 3092 \, 3206.5 \, 3456 \, 3915 \,
4346.5 \, 4788 \, 5415 \, 5880 \, 6187.5] \; [3406.5 \, 3695.5 \, 4023.5
\, 4347 \, 4573.5 \, 4903 \, 5397.5 \, 5719 \, 5904 \, 6095 \, 6298.5
\, 6662.5 \, 7371 \, 8261.5 \, 9134.5 \, 10203 \, 11295 \, 12067.5]
\; [7102.0 \, 7719 \, 8370.5 \, 8920.5 \, 9476.5 \, 10300.5 \, 11116.5
\, 11623 \, 11999 \, 12393.5 \, 12961 \, 14033.5 \, 15632.5 \, 17396
\, 19337.5 \, 21498 \, 23362.5];
#X text 22 250 the process was repeated three times;
#X obj 832 270 else/iterate;
#X floatatom 832 294 5 0 0 0 - - -;
#X obj 832 341 else/stream;
#X obj 832 317 ftom;
#X floatatom 919 316 5 0 0 0 - - -;
#X msg 832 365 add \$1;
#X msg 792 658 60.5 \; 65 \; 68 \; 72 \; 76 \; 78.5 \; 79.5 \; 80 \;
83 \; 85 \; 85.5 \; 89 \; 90 \; 90.4999 \; 92 \;;
#X text 775 629 midi notes chord1;
#X msg 663 162 18.6432 \; 23.8921 \; 28.7389 \; 29.5259 \; 36.1564
\; 39.4868 \; 40.1242 \; 43.7774 \; 44.6823 \; 46.65 \; 48.6732 \;
48.926 \; 51.1591 \; 59.6237 \; 60.4812 \; 64.9887 \; 67.9873 \; 71.9917
\; 74.8952 \; 75.9933 \; 78.5074 \; 78.5642 \; 79.5008 \; 79.9977 \;
82.1142 \; 83.0041 \; 85.0042 \; 85.4967 \; 86.1152 \; 89.0011 \; 89.296
\; 90.0003 \; 90.4961 \; 91.0112 \; 91.751 \; 93.5661 \; 96.0289 \;
97.2522 \; 99.3374 \; 101.508 \; 102.25 \; 103.266 \;;
#X msg 829 54 79.9365 \, 269.292 \, 618.52 \, 66.0765 \, 349.228 \,
764.533 \, 107.946 \, 415.305 \, 938.556 \, 136.004 \, 523.251 \, 1182.51
\, 102.417 \, 659.255 \, 1420.93 \, 45.2914 \, 761.672 \, 1568.64 \,
23.6458 \, 806.964 \, 1637.57 \, 157.157 \, 830.609 \, 1818.38 \, 120.964
\, 987.767 \, 2096.5 \, 32.4883 \, 1108.73 \, 2249.95 \, 255.694 \,
1141.22 \, 2538.13 \, 83.0648 \, 1396.91 \, 2876.89 \, 43.3667 \, 1479.98
\, 3003.32 \, 137.874 \, 1523.34 \, 3184.56, f 31;
#X msg 1116 130 39.4731 \; 60.5 \; 74.8958 \; 36.1765 \; 65 \; 78.5649
\; 44.6737 \; 68 \; 82.1153 \; 48.6737 \; 72 \; 86.1153 \; 43.7634
\; 76 \; 89.2951 \; 29.6377 \; 78.5 \; 91.0072 \; 18.3859 \; 79.5 \;
91.7518 \; 51.1765 \; 80 \; 93.5649 \; 46.6449 \; 83 \; 96.0289 \;
23.8859 \; 85 \; 97.2518 \; 59.603 \; 85.5 \; 99.3383 \; 40.1377 \;
89 \; 101.507 \; 28.8859 \; 90 \; 102.252 \; 48.9102 \; 90.5 \; 103.266
\;;
#X msg 889 440 1661.22;
#X floatatom 891 499 5 0 0 0 - - -;
#X obj 889 469 ftom;
#X connect 8 0 9 0;
#X connect 9 0 11 0;
#X connect 10 0 13 0;
#X connect 11 0 10 0;
#X connect 12 0 10 1;
#X connect 17 0 8 0;
#X connect 19 0 21 0;
#X connect 21 0 20 0;
#X restore 12 34 pd chords and notes;
#N canvas 20 44 1420 828 interface_messages 1;
#X msg 45 385 \; antescofo-mess stop \;;
#X msg 45 325 \; antescofo-mess play \;;
#X msg 46 449 \; antescofo-mess suivi \$1 \;;
#X obj 46 424 r follow_score;
#X obj 45 302 r play_along_score;
#X obj 45 228 r load_score;
#X obj 45 362 r stop_score;
#X msg 45 187 \; pd audio-properties \;;
#X obj 45 162 r audio_settings;
#X obj 47 580 loadbang;
#X msg 47 604 \; reverb 0.001 \;;
#X msg 45 251 \; antescofo-mess score score.txt \;;
#X obj 293 314 r start;
#X msg 293 338 \; antescofo-mess start \;;
#X obj 490 307 r original;
#X obj 490 331 line;
#X obj 490 355 s original_monitor;
#X obj 645 332 line;
#X obj 645 308 r ring_modulation;
#X obj 843 331 line;
#X obj 843 307 r bright_on;
#X obj 843 355 s bright_on_monitor;
#X obj 645 356 s ring_modulation_monitor;
#X msg 380 453 \; antescofo-mess tempo \$1 \;;
#X obj 380 428 r antescofo_tempo;
#X obj 151 80 tgl 15 0 empty empty empty 17 7 0 10 -262144 -1 -1 1
1;
#X obj 151 127 s metro;
#X obj 46 80 tgl 15 0 empty empty empty 17 7 0 10 -262144 -1 -1 1 1
;
#X msg 46 113 \; pd dsp \$1 \;;
#X msg 46 42 1;
#X obj 151 102 metro 50;
#X obj 46 18 r ready;
#X obj 46 488 r start_from_measure;
#X msg 259 88 \; organ_volume 0.1 \;;
#X msg 407 88 \; electronics_volume 0.1 \;;
#X msg 46 511 \; antescofo-mess startfromlabel \$1 \;;
#X connect 3 0 2 0;
#X connect 4 0 1 0;
#X connect 5 0 11 0;
#X connect 6 0 0 0;
#X connect 8 0 7 0;
#X connect 9 0 10 0;
#X connect 12 0 13 0;
#X connect 14 0 15 0;
#X connect 15 0 16 0;
#X connect 17 0 22 0;
#X connect 18 0 17 0;
#X connect 19 0 21 0;
#X connect 20 0 19 0;
#X connect 24 0 23 0;
#X connect 25 0 30 0;
#X connect 27 0 28 0;
#X connect 29 0 27 0;
#X connect 29 0 25 0;
#X connect 30 0 26 0;
#X connect 31 0 29 0;
#X connect 31 0 33 0;
#X connect 31 0 34 0;
#X connect 32 0 35 0;
#X restore 12 11 pd interface_messages;
#X coords 0 185 1 184 85 60 0;
#X restore 321 805 pd ui_messages;
#X obj 220 406 cnv 15 18 18 empty empty empty 20 12 0 14 -2341 -66577
0;
#X obj 84 805 cnv 15 18 18 empty empty empty 20 12 0 14 -2341 -66577
0;
#X obj 299 824 cnv 15 18 18 empty empty empty 20 12 0 14 -2341 -66577
0;
#X obj 247 805 cnv 15 18 18 empty empty empty 20 12 0 14 -2341 -66577
0;
#X obj 187 805 cnv 15 18 18 empty empty empty 20 12 0 14 -2341 -66577
0;
#X obj 321 806 cnv 15 18 18 empty empty empty 20 12 0 14 -2341 -66577
0;
#X obj 1182 635 * 0.005;
#N canvas 77 241 450 300 test_with_midi 0;
#X obj 106 124 tgl 15 0 test_midi empty from_beginning 17 7 0 10 -262144
-1 -1 0 1;
#X obj 106 144 tgl 15 0 test_midi_m9 empty measure_9 17 7 0 10 -262144
-1 -1 0 1;
#X coords 0 -1 1 1 120 100 1 100 100;
#X restore 289 293 pd test_with_midi;
#X msg 951 369 \; original 0 1000 \; ring_modulation 0 1000 \; bright_on
0 1000 \; amp_modulation 0 \; rand_amp_on 0 \; array1_zero 0 \; array2_zero
0 \; array1_zero_now bang \; rand_amp_on_bright 0 \; array2_zero_now
bang \; note_followers_on 0 \; note_followers_ring_on 0 \;;
#N canvas 463 80 485 728 instructions 0;
#X text 20 163 5) Alternatives:;
#X text 20 323 6) The organist can start or you can test the setup
selecting "from_beginning" in "test_with_midi".;
#X text 42 271 c) Write "measure_number" in "start_from_measure" field
to start the follower (or player) in certain measure. For example:
measure_9 \;;
#X text 20 363 7) Regulate volumes;
#X text 20 34 1) Click "audio_settings" configure audio;
#X text 20 64 2) Click "ready" to load initial parameters and turn
on DSP;
#X text 20 94 3) Click "load" to load the score (score.txt);
#X text 20 124 4) Select the "follow" box to allow the score follower
to follow the score;
#X text 41 191 a) Click start to "start" the recognition of the organ
playing \;;
#X text 41 231 b) Click "play_along" to play the electronic part strictly
\, not following the organ \;;
#X text 20 4 Instructions:;
#X text 20 393 8) Click "stop" and repeat 5 and 6;
#X text 20 433 Notes:;
#X text 20 453 comment;
#X restore 311 36 pd instructions;
#X obj 342 266 cnv 15 18 18 empty empty empty 20 12 0 14 -2341 -66577
0;
#X text 251 36 click ->;
#X obj 473 220 else/keyboard 17 80 4 3 0 0 empty empty;
#X obj 476 117 r midi_note;
#X floatatom 505 154 5 0 0 0 - - -;
#X connect 24 0 88 0;
#X connect 26 0 25 0;
#X connect 27 0 26 0;
#X connect 28 0 30 0;
#X connect 29 0 28 0;
#X connect 31 0 33 0;
#X connect 32 0 31 0;
#X connect 34 0 27 0;
#X connect 35 0 29 0;
#X connect 36 0 32 0;
#X connect 38 0 37 0;
#X connect 39 0 38 0;
#X connect 40 0 39 0;
#X connect 42 0 45 0;
#X connect 43 0 41 0;
#X connect 44 0 29 0;
#X connect 45 0 43 0;
#X connect 47 0 46 0;
#X connect 48 0 50 0;
#X connect 49 0 51 0;
#X connect 50 0 49 0;
#X connect 52 0 60 0;
#X connect 53 0 52 0;
#X connect 54 0 53 0;
#X connect 55 0 53 0;
#X connect 56 0 58 0;
#X connect 57 0 61 0;
#X connect 58 0 57 0;
#X connect 59 0 32 0;
#X connect 62 0 64 0;
#X connect 63 0 62 0;
#X connect 66 0 65 0;
#X connect 67 0 69 0;
#X connect 68 0 67 0;
#X connect 71 0 72 0;
#X connect 74 0 73 0;
#X connect 75 0 73 0;
#X connect 76 0 86 0;
#X connect 77 0 86 0;
#X connect 78 0 83 0;
#X connect 79 0 78 0;
#X connect 80 0 85 0;
#X connect 81 0 82 0;
#X connect 87 0 136 0;
#X connect 88 0 89 0;
#X connect 89 0 122 0;
#X connect 97 0 155 0;
#X connect 101 0 102 0;
#X connect 102 0 131 0;
#X connect 123 0 157 0;
#X connect 128 0 98 0;
#X connect 128 0 24 0;
#X connect 129 0 70 0;
#X connect 130 0 100 0;
#X connect 131 0 132 0;
#X connect 132 0 130 0;
#X connect 135 0 27 0;
#X connect 137 0 9 0;
#X connect 142 0 39 0;
#X connect 143 0 84 0;
#X connect 145 0 144 0;
#X connect 155 0 122 1;
#X connect 162 0 161 0;
#X connect 162 0 163 0;
#X coords 0 872 1 871 424 450 0;
