#N canvas 0 0 803 878 12;
#X declare -lib else;
#X declare -lib antescofo;
#N canvas 248 106 825 630 score_follower 0;
#X obj 354 398 cnv 15 200 100 empty empty Basic 3 7 0 14 -233017 -66577
0;
#X msg 413 400 start;
#X msg 453 400 stop;
#X msg 492 400 info;
#X msg 362 448 version;
#X msg 478 436 actions on;
#X msg 478 458 actions off;
#X obj 435 479 s antescofo-mess;
#X obj 354 295 cnv 15 200 100 empty empty Scoring 3 7 0 14 -233017
-66577 0;
#X msg 400 335 reloadscore;
#X msg 336 363 printscore;
#X msg 358 315 printactions;
#X obj 482 298 bng 15 250 50 0 empty empty empty 17 7 0 10 -191407
-1 -1;
#X obj 482 315 openpanel;
#X msg 482 334 score \$1;
#X obj 432 376 s antescofo-mess;
#X obj 558 295 cnv 15 200 203 empty empty Score_Browsing 3 7 0 14 -233017
-66577 0;
#X msg 618 316 nextevent;
#X msg 642 335 nextlabel;
#X msg 655 355 nextaction;
#X msg 665 376 previousevent;
#X msg 672 398 previouslabel;
#X msg 705 455 killall;
#X obj 655 479 s antescofo-mess;
#X obj 148 219 r antescofo-mess;
#N canvas 20 50 1123 742 dispatch 0;
#X obj 106 35 inlet;
#X obj 106 57 route cue calibration;
#X obj 106 171 send antescofo-labels;
#X obj 167 143 send antescofo_calib;
#X obj 229 119 outlet;
#X obj 253 95 send ante_pos;
#X obj 362 56 r print;
#X obj 362 77 print;
#X connect 0 0 1 0;
#X connect 1 0 2 0;
#X connect 1 1 3 0;
#X connect 1 2 4 0;
#X connect 1 2 5 0;
#X connect 6 0 7 0;
#X restore -48 316 pd dispatch;
#X obj 19 424 s ante_tempo;
#X obj -9 452 nbx 5 14 -1e+37 1e+37 0 0 empty empty Real-time_Tempo_BPM
0 25 0 10 -259565 -1 -1 24 256;
#X symbolatom 109 498 15 0 0 3 Event_Label - -;
#X obj 161 448 nbx 5 14 -1e+37 1e+37 0 0 empty empty Position_in_beats
0 25 0 10 -228856 -1 -1 208.16 256;
#X obj 225 310 bng 15 250 50 0 empty empty Succesful_score_load 0 25
0 10 -228856 -1 -1;
#X symbolatom 565 418 10 0 0 0 - - -;
#X msg 565 437 gotolabel \$1;
#X obj 94 114 tgl 15 0 empty empty turn_follower_on/off 17 7 0 10 -228856
-1 -1 0 1;
#X msg 94 139 suivi \$1;
#N canvas 20 50 723 711 Observation 0;
#X obj 16 10 inlet;
#X obj 110 131 readsf~;
#X obj 27 99 r audio-mess;
#X obj 110 398 outlet~;
#X obj 316 38 loadbang;
#X msg 316 60 analysis 4096 512;
#X obj 316 82 s antescofo-mess;
#X text 313 13 Analysis Parameters:;
#X text 171 398 >> to Antescofo~;
#X msg 53 220 start;
#X obj 125 89 tgl 15 0 empty empty empty 17 7 0 10 -262144 -1 -1 0
1;
#X obj 126 13 t f b;
#X obj 125 205 throw~ audio_test;
#X obj 171 176 *~ 3;
#X msg 16 54 open ./preludio/music_4.wav;
#X connect 0 0 11 0;
#X connect 1 0 3 0;
#X connect 1 0 13 0;
#X connect 2 0 1 0;
#X connect 4 0 5 0;
#X connect 5 0 6 0;
#X connect 9 0 1 0;
#X connect 10 0 1 0;
#X connect 11 0 10 0;
#X connect 11 1 14 0;
#X connect 13 0 12 0;
#X connect 14 0 1 0;
#X restore 256 128 pd Observation;
#X obj 208 378 stripnote;
#X obj 203 405 nbx 5 14 -1e+37 1e+37 0 0 empty empty MIDI_Pitch 0 25
0 10 -44450 -1 -1 44 256;
#X obj 269 405 nbx 5 14 -1e+37 1e+37 0 0 empty empty Velocity 0 25
0 10 -228856 -1 -1 110 256;
#X obj -48 336 nbx 5 14 -1e+37 1e+37 0 0 empty empty Event_Number 0
25 0 10 -228856 -1 -1 319 256;
#X obj -66 -122 cnv 15 824 60 empty empty Antescofo_Pd_Help 20 12 0
14 -4032 -66577 0;
#X text -32 -81 By MuTant Team \, Ircam \, 2007-2015.;
#X text 326 -81 http://forumnet.ircam.fr/user-group/antescofo;
#X text -33 -98 Antescofo - Anticipatory Score Following (v0.8);
#X text -38 -10 1 Load a score;
#N canvas 0 22 450 278 (subpatch) 0;
#X array Tempogram(BPM) 100 float 2;
#X coords 0 140 99 10 200 80 1 0 0;
#X restore 467 68 graph;
#N canvas 20 50 1224 768 Tempogram 0;
#X obj 137 124 t f b;
#X obj 272 160 f;
#X obj 296 160 + 1;
#X obj 137 62 r ante_tempo;
#X obj 137 211 tabwrite Tempogram(BPM);
#X obj 272 180 mod 100;
#X obj 137 103 spigot;
#X obj 170 82 inlet;
#X connect 0 0 4 0;
#X connect 0 1 1 0;
#X connect 1 0 2 0;
#X connect 1 0 5 0;
#X connect 2 0 1 1;
#X connect 3 0 6 0;
#X connect 5 0 4 1;
#X connect 6 0 0 0;
#X connect 7 0 6 1;
#X restore 490 34 pd Tempogram;
#X text 677 137 10;
#X obj 468 35 tgl 15 0 empty empty empty 17 7 0 10 -228856 -1 -1 0
1;
#X text 672 59 150;
#X msg -50 15 score music.asco.txt;
#X obj 256 108 tgl 15 0 empty empty empty 17 7 0 10 -262144 -1 -1 0
1;
#X text 254 87 Teste (midi);
#X msg -19 49 start;
#X msg 16 91 play;
#X msg 409 227 tempo \$1;
#X obj 412 205 hsl 128 15 0 127 0 0 empty empty empty -2 -8 0 10 -262144
-1 -1 0 1;
#X obj 110 546 s measure;
#X obj -52 377 s event_number;
#X obj 295 543 s midi_note;
#X obj 265 23 r test_midi;
#X obj 295 496 f 0;
#X floatatom 295 520 5 0 0 0 - - -;
#X obj 271 497 bng 15 250 50 0 empty empty empty 17 7 0 10 -262144
-1 -1;
#X obj 12 269 antescofo~ @outlets beatnum midiout;
#X connect 1 0 7 0;
#X connect 2 0 7 0;
#X connect 3 0 7 0;
#X connect 4 0 7 0;
#X connect 5 0 7 0;
#X connect 6 0 7 0;
#X connect 9 0 15 0;
#X connect 10 0 15 0;
#X connect 11 0 15 0;
#X connect 12 0 13 0;
#X connect 13 0 14 0;
#X connect 14 0 15 0;
#X connect 17 0 23 0;
#X connect 18 0 23 0;
#X connect 19 0 23 0;
#X connect 20 0 23 0;
#X connect 21 0 23 0;
#X connect 22 0 23 0;
#X connect 24 0 64 0;
#X connect 25 0 39 0;
#X connect 25 0 58 0;
#X connect 28 0 57 0;
#X connect 31 0 32 0;
#X connect 32 0 23 0;
#X connect 33 0 34 0;
#X connect 34 0 64 0;
#X connect 35 0 64 0;
#X connect 36 0 37 0;
#X connect 36 1 38 0;
#X connect 37 0 61 1;
#X connect 48 0 46 0;
#X connect 50 0 64 0;
#X connect 51 0 35 0;
#X connect 53 0 64 0;
#X connect 54 0 64 0;
#X connect 55 0 64 0;
#X connect 56 0 55 0;
#X connect 60 0 51 0;
#X connect 61 0 62 0;
#X connect 62 0 59 0;
#X connect 63 0 61 0;
#X connect 64 0 25 0;
#X connect 64 0 63 0;
#X connect 64 1 26 0;
#X connect 64 1 27 0;
#X connect 64 2 28 0;
#X connect 64 3 29 0;
#X connect 64 4 36 0;
#X connect 64 5 30 0;
#X restore 301 212 pd score_follower;
#X obj 3 1 cnv 15 422 60 empty empty empty 20 12 0 14 -228856 -66577
0;
#X symbolatom 99 366 10 0 0 3 position measure -;
#X obj 204 366 nbx 5 18 -1e+37 1e+37 0 0 empty event_number event_number
0 25 0 12 -212212 -1 -1 319 256;
#X obj 28 246 bng 35 250 50 0 load_score empty load 6 18 0 10 -128992
-1 -1;
#X obj 148 297 bng 20 250 50 0 play_along_score empty play_along -15
27 0 10 -1317 -1 -1;
#X obj 93 247 tgl 20 0 follow_score empty follow -8 27 0 10 -262144
-1 -1 0 1;
#X obj 210 248 bng 35 250 50 0 stop_score empty stop 6 17 0 10 -258715
-262144 -1;
#X symbolatom 28 366 3 0 0 3 section section -;
#X symbolatom 275 253 12 0 0 3 play_from_measure - play_from_measure
;
#X obj 322 26 bng 20 250 50 0 audio_settings empty audio_settings -35
-8 0 10 -228856 -1 -1;
#X obj 314 366 nbx 5 18 -1e+37 1e+37 0 0 empty ante_tempo actual_tempo
0 25 0 12 -212212 -1 -1 24 256;
#X text 22 7 Prelude \; for organ and electronics \; 2020;
#X obj 388 26 bng 20 250 50 0 ready empty ready -4 -8 0 10 -257985
-1 -1;
#N canvas 20 50 1202 692 others 0;
#X obj 142 92 tgl 15 0 empty empty empty 17 7 0 10 -262144 -1 -1 1
1;
#X obj 142 139 s metro;
#X obj 37 92 tgl 15 0 empty empty empty 17 7 0 10 -262144 -1 -1 1 1
;
#X msg 37 125 \; pd dsp \$1 \;;
#X msg 37 54 1;
#X obj 142 114 metro 50;
#X obj 37 30 r ready;
#X floatatom 31 324 5 0 0 0 - - -;
#X obj 31 347 s amp_coeficient;
#X obj 34 280 hsl 128 15 0 6 0 0 empty empty empty -2 -8 0 10 -262144
-1 -1 0 1;
#X obj 31 300 pow 4;
#X msg 105 305 0.03;
#X floatatom 31 435 5 0 0 0 - - -;
#X obj 34 391 hsl 128 15 0 3 0 0 empty empty empty -2 -8 0 10 -262144
-1 -1 0 1;
#X obj 31 411 pow 4;
#X obj 31 458 s vib_coeficient;
#X msg 105 416 0.02;
#X msg 151 305 0.1;
#X msg 149 416 1.05;
#N canvas 20 50 1202 692 chords 0;
#X msg 22 42 list 269.292 349.228 415.305 523.251 659.255 761.672 806.964
830.609 987.767 1108.73 1141.22 1396.91 1479.98 1523.34 1661.22;
#X text 21 19 CHORD 1: BELLS;
#X text 21 107 CHORD 2: BELLS RING MODULATION;
#X text 21 219 CHORD 3: BRIGHT (sum freqs of the ring modulation >
807);
#X msg 21 127 24 32.5 43 45 66 80 83 102.5 108 121 136 138 157 256
269 349 415 523 618.5 659 762 764.5 807 830.5 938.5 988 1109 1141 1182.5
1397 1421 1480 1523 1569 1637.5 1818.5 2096.5 2250 2538 2877 3003 3184.5
;
#X text 22 234 a + b \, b + c \, c + d;
#X msg 24 270 [1637.5 \, 1769 \, 1926.5 \, 2097 \, 2250 \, 2323.5 \,
2579.5 \, 2818 \, 2901 \, 3003 \, 3092 \, 3206.5 \, 3456 \, 3915 \,
4346.5 \, 4788 \, 5415 \, 5880 \, 6187.5] \; [3406.5 \, 3695.5 \, 4023.5
\, 4347 \, 4573.5 \, 4903 \, 5397.5 \, 5719 \, 5904 \, 6095 \, 6298.5
\, 6662.5 \, 7371 \, 8261.5 \, 9134.5 \, 10203 \, 11295 \, 12067.5]
\; [7102.0 \, 7719 \, 8370.5 \, 8920.5 \, 9476.5 \, 10300.5 \, 11116.5
\, 11623 \, 11999 \, 12393.5 \, 12961 \, 14033.5 \, 15632.5 \, 17396
\, 19337.5 \, 21498 \, 23362.5];
#X text 22 250 the process was repeated three times;
#X obj 832 270 else/iterate;
#X floatatom 832 294 5 0 0 0 - - -;
#X obj 832 341 else/stream;
#X obj 832 317 ftom;
#X floatatom 919 316 5 0 0 0 - - -;
#X msg 832 365 add \$1;
#X msg 792 658 60.5 \; 65 \; 68 \; 72 \; 76 \; 78.5 \; 79.5 \; 80 \;
83 \; 85 \; 85.5 \; 89 \; 90 \; 90.4999 \; 92 \;;
#X text 775 629 midi notes chord1;
#X msg 663 162 18.6432 \; 23.8921 \; 28.7389 \; 29.5259 \; 36.1564
\; 39.4868 \; 40.1242 \; 43.7774 \; 44.6823 \; 46.65 \; 48.6732 \;
48.926 \; 51.1591 \; 59.6237 \; 60.4812 \; 64.9887 \; 67.9873 \; 71.9917
\; 74.8952 \; 75.9933 \; 78.5074 \; 78.5642 \; 79.5008 \; 79.9977 \;
82.1142 \; 83.0041 \; 85.0042 \; 85.4967 \; 86.1152 \; 89.0011 \; 89.296
\; 90.0003 \; 90.4961 \; 91.0112 \; 91.751 \; 93.5661 \; 96.0289 \;
97.2522 \; 99.3374 \; 101.508 \; 102.25 \; 103.266 \;;
#X msg 829 54 79.9365 \, 269.292 \, 618.52 \, 66.0765 \, 349.228 \,
764.533 \, 107.946 \, 415.305 \, 938.556 \, 136.004 \, 523.251 \, 1182.51
\, 102.417 \, 659.255 \, 1420.93 \, 45.2914 \, 761.672 \, 1568.64 \,
23.6458 \, 806.964 \, 1637.57 \, 157.157 \, 830.609 \, 1818.38 \, 120.964
\, 987.767 \, 2096.5 \, 32.4883 \, 1108.73 \, 2249.95 \, 255.694 \,
1141.22 \, 2538.13 \, 83.0648 \, 1396.91 \, 2876.89 \, 43.3667 \, 1479.98
\, 3003.32 \, 137.874 \, 1523.34 \, 3184.56, f 31;
#X msg 1116 130 39.4731 \; 60.5 \; 74.8958 \; 36.1765 \; 65 \; 78.5649
\; 44.6737 \; 68 \; 82.1153 \; 48.6737 \; 72 \; 86.1153 \; 43.7634
\; 76 \; 89.2951 \; 29.6377 \; 78.5 \; 91.0072 \; 18.3859 \; 79.5 \;
91.7518 \; 51.1765 \; 80 \; 93.5649 \; 46.6449 \; 83 \; 96.0289 \;
23.8859 \; 85 \; 97.2518 \; 59.603 \; 85.5 \; 99.3383 \; 40.1377 \;
89 \; 101.507 \; 28.8859 \; 90 \; 102.252 \; 48.9102 \; 90.5 \; 103.266
\;;
#X msg 889 440 1661.22;
#X floatatom 891 499 5 0 0 0 - - -;
#X obj 889 469 ftom;
#X connect 8 0 9 0;
#X connect 9 0 11 0;
#X connect 10 0 13 0;
#X connect 11 0 10 0;
#X connect 12 0 10 1;
#X connect 17 0 8 0;
#X connect 19 0 21 0;
#X connect 21 0 20 0;
#X restore 28 223 pd chords and notes;
#N canvas 20 50 1420 828 interface_messages 0;
#X msg 20 238 \; antescofo-mess stop \;;
#X msg 20 178 \; antescofo-mess play \;;
#X msg 21 302 \; antescofo-mess suivi \$1 \;;
#X obj 21 277 r follow_score;
#X obj 20 155 r play_along_score;
#X obj 20 81 r load_score;
#X obj 20 215 r stop_score;
#X obj 21 341 r play_from_measure;
#X msg 21 364 \; antescofo-mess playfromlabel \$1 \;;
#X msg 20 40 \; pd audio-properties \;;
#X obj 20 15 r audio_settings;
#X obj 25 425 loadbang;
#X msg 25 449 \; reverb 0.001 \;;
#X msg 20 104 \; antescofo-mess score score.txt \;;
#X obj 268 167 r start;
#X msg 268 191 \; antescofo-mess start \;;
#X obj 465 160 r original;
#X obj 465 184 line;
#X obj 465 208 s original_monitor;
#X obj 620 185 line;
#X obj 620 161 r ring_modulation;
#X obj 818 184 line;
#X obj 818 160 r bright_on;
#X obj 818 208 s bright_on_monitor;
#X obj 620 209 s ring_modulation_monitor;
#X connect 3 0 2 0;
#X connect 4 0 1 0;
#X connect 5 0 13 0;
#X connect 6 0 0 0;
#X connect 7 0 8 0;
#X connect 10 0 9 0;
#X connect 11 0 12 0;
#X connect 14 0 15 0;
#X connect 16 0 17 0;
#X connect 17 0 18 0;
#X connect 19 0 24 0;
#X connect 20 0 19 0;
#X connect 21 0 23 0;
#X connect 22 0 21 0;
#X restore 28 200 pd interface_messages;
#X connect 0 0 5 0;
#X connect 2 0 3 0;
#X connect 4 0 2 0;
#X connect 4 0 0 0;
#X connect 5 0 1 0;
#X connect 6 0 4 0;
#X connect 7 0 8 0;
#X connect 9 0 10 0;
#X connect 10 0 7 0;
#X connect 11 0 7 0;
#X connect 12 0 15 0;
#X connect 13 0 14 0;
#X connect 14 0 12 0;
#X connect 16 0 12 0;
#X connect 17 0 7 0;
#X connect 18 0 12 0;
#X restore 356 811 pd others;
#X text 2 46 ____________________________________________________________
;
#X text 2 396 ____________________________________________________________
;
#X text 27 219 Score follower;
#X text 2 795 ____________________________________________________________
;
#X text 2 196 ____________________________________________________________
;
#X obj 104 104 vsl 20 80 0 1 0 0 output empty empty 0 -9 0 10 -262144
-1 -1 0 1;
#X obj 128 104 vu 20 80 vu_output empty -1 -8 0 10 -66577 -1 0 0;
#X obj 29 104 vsl 20 80 0 3 0 0 input empty empty 0 -9 0 10 -262144
-1 -1 0 1;
#X obj 53 104 vu 20 80 empty empty -1 -8 0 10 -66577 -1 0 0;
#N canvas 27 186 1327 692 audio 0;
#X obj 35 29 catch~ out_osc;
#X obj 67 180 vcf~;
#X obj 78 150 sig~;
#X floatatom 78 127 5 0 0 0 - - -;
#X obj 89 216 *~ 1;
#X obj 250 156 catch~ bright;
#X obj 176 77 r darkness;
#X obj 176 103 line;
#X floatatom 176 131 5 0 0 0 - - -;
#X obj 78 77 loadbang;
#X msg 78 101 133;
#X obj 461 373 *~;
#X obj 493 312 pack 0 100;
#X obj 493 336 line~;
#X obj 330 462 *~;
#X obj 276 463 *~;
#X obj 318 416 line~;
#X obj 372 252 r rev_wet;
#X obj 332 391 pack 0 100;
#X obj 493 287 expr 1 - \$1;
#X obj 399 535 *~;
#X obj 345 536 *~;
#X obj 453 499 line~;
#X obj 453 474 pack 0 100;
#X obj 453 445 r output;
#X obj 467 562 env~;
#X obj 467 586 - 100;
#X obj 467 610 s vu_output;
#X obj 347 580 dac~ 1 2;
#X obj 420 41 catch~ audio_test;
#X obj 45 425 else/plate.rev~ 50 0.9 0.25 0.8 0.8;
#X obj 345 81 *~;
#X obj 452 124 line~;
#X obj 452 99 pack 0 100;
#X obj 452 70 r input;
#X obj 251 235 line~;
#X obj 251 210 pack 0 100;
#X obj 184 214 *~;
#X obj 251 181 r bright_on;
#X obj 66 521 vsl 20 80 0 1 0 0 rev_wet reverb empty 0 -9 0 10 -262144
-1 -1 8 1;
#X text 52 487 Reverb;
#X text 88 511 wet;
#X text 88 591 dry;
#X floatatom 794 175 5 0 0 2 - - -;
#X floatatom 832 194 5 0 0 2 - - -;
#X msg 648 193 bang;
#X obj 747 353 route 0 1 2 3;
#X floatatom 747 402 10 0 0 0 - - -;
#X floatatom 826 402 10 0 0 0 - - -;
#X floatatom 905 402 10 0 0 0 - - -;
#X floatatom 984 402 10 0 0 0 - - -;
#X floatatom 844 326 0 0 0 3 actual_azimuth - -;
#X floatatom 856 292 0 0 0 3 actual_elevation - -;
#X floatatom 866 271 7 0 0 1 actual_spreading - -;
#X obj 797 159 hsl 100 13 0 360 0 0 empty empty azimuth 10 7 0 10 -262144
-1 -1 0 1;
#X obj 835 177 hsl 100 13 0 360 0 0 empty empty elevation 10 7 0 10
-262144 -1 -1 0 1;
#X floatatom 872 214 5 0 0 2 - - -;
#X obj 875 197 hsl 100 13 0 100 0 0 empty empty spread 10 7 0 10 -262144
-1 -1 0 1;
#X obj 728 142 metro 100;
#X obj 728 120 tgl 15 0 empty empty empty 17 7 0 10 -262144 -1 -1 0
1;
#X text 982 195 (0-100);
#X text 942 174 (0-360);
#X text 902 156 (0-360);
#X obj 633 513 *~;
#X obj 736 513 *~;
#X obj 747 244 vbap 90 0 30;
#X obj 746 425 pack 0 100;
#X obj 746 449 line~;
#X obj 825 425 pack 0 100;
#X obj 825 449 line~;
#X obj 906 425 pack 0 100;
#X obj 906 449 line~;
#X obj 985 425 pack 0 100;
#X obj 985 449 line~;
#X obj 833 513 *~;
#X obj 933 513 *~;
#X msg 670 72 define_loudspeakers 2 -72 72 -108 108;
#X obj 1104 59 cube_sphere 0 63 16 262143 0 0 63 29;
#X obj 1113 537 r from_GUI;
#X floatatom 1033 630 5 0 0 0 - - -;
#X floatatom 1073 630 5 0 0 0 - - -;
#X obj 1033 608 unpack;
#X text 1074 607 source 1;
#X obj 1113 566 route 1 2 3 4 5;
#X obj 1104 32 r to_GUI;
#X obj 1104 197 s from_GUI;
#X msg 1103 250 \; to_GUI size 127 \; to_GUI vis 1 1 \; to_GUI src_font
16 \; to_GUI frame_col 22 \; to_GUI sphere_col 0 \; to_GUI src_col
1 22 \;;
#X obj 1103 224 loadbang;
#X text 1108 632 degree azim;
#X obj 670 47 loadbang;
#X obj 633 537 throw~ out_1;
#X obj 733 537 throw~ out_2;
#X obj 833 537 throw~ out_1;
#X obj 933 537 throw~ out_2;
#X obj 381 136 dac~;
#X connect 0 0 1 0;
#X connect 1 0 4 0;
#X connect 2 0 1 1;
#X connect 3 0 2 0;
#X connect 4 0 11 0;
#X connect 5 0 37 0;
#X connect 6 0 7 0;
#X connect 7 0 8 0;
#X connect 8 0 1 2;
#X connect 9 0 10 0;
#X connect 10 0 3 0;
#X connect 11 0 21 0;
#X connect 11 0 20 0;
#X connect 12 0 13 0;
#X connect 13 0 11 1;
#X connect 14 0 20 0;
#X connect 15 0 21 0;
#X connect 16 0 14 1;
#X connect 16 0 15 1;
#X connect 17 0 19 0;
#X connect 17 0 18 0;
#X connect 18 0 16 0;
#X connect 19 0 12 0;
#X connect 20 0 25 0;
#X connect 20 0 28 1;
#X connect 21 0 28 0;
#X connect 22 0 20 1;
#X connect 22 0 21 1;
#X connect 23 0 22 0;
#X connect 24 0 23 0;
#X connect 25 0 26 0;
#X connect 26 0 27 0;
#X connect 29 0 31 0;
#X connect 30 0 15 0;
#X connect 30 1 14 0;
#X connect 31 0 94 0;
#X connect 31 0 94 1;
#X connect 32 0 31 1;
#X connect 33 0 32 0;
#X connect 34 0 33 0;
#X connect 35 0 37 1;
#X connect 36 0 35 0;
#X connect 37 0 4 0;
#X connect 38 0 36 0;
#X connect 43 0 65 1;
#X connect 44 0 65 2;
#X connect 45 0 65 0;
#X connect 46 0 47 0;
#X connect 46 1 48 0;
#X connect 46 2 49 0;
#X connect 46 3 50 0;
#X connect 47 0 66 0;
#X connect 48 0 68 0;
#X connect 49 0 70 0;
#X connect 50 0 72 0;
#X connect 54 0 43 0;
#X connect 55 0 44 0;
#X connect 56 0 65 3;
#X connect 57 0 56 0;
#X connect 58 0 65 0;
#X connect 59 0 58 0;
#X connect 63 0 90 0;
#X connect 64 0 91 0;
#X connect 65 0 46 0;
#X connect 65 1 51 0;
#X connect 65 2 52 0;
#X connect 65 3 53 0;
#X connect 66 0 67 0;
#X connect 67 0 63 1;
#X connect 68 0 69 0;
#X connect 69 0 64 1;
#X connect 70 0 71 0;
#X connect 71 0 74 1;
#X connect 72 0 73 0;
#X connect 73 0 75 1;
#X connect 74 0 92 0;
#X connect 75 0 93 0;
#X connect 76 0 65 0;
#X connect 77 0 85 0;
#X connect 78 0 83 0;
#X connect 81 0 79 0;
#X connect 81 1 80 0;
#X connect 83 0 81 0;
#X connect 84 0 77 0;
#X connect 87 0 86 0;
#X connect 89 0 76 0;
#X restore 363 62 pd audio;
#N canvas 0 0 424 120 Acknowledgements 0;
#X text 114 59 Acknowledgements;
#X text 114 75 MuTAnt team (Ircam) for Antescofo \; Alexandre Porres
for Else Library \;;
#X coords 0 120 1 119 300 60 0;
#X restore 219 811 pd Acknowledgements;
#X obj 399 91 tgl 15 0 test_midi empty empty 17 7 0 10 -262144 -1 -1
0 1;
#X text 362 89 Test;
#X floatatom 667 612 5 0 0 0 - - -;
#X obj 74 977 s original;
#X msg 74 947 \$1 1000;
#X floatatom 74 919 5 0 0 0 - - -;
#X msg 164 947 \$1 1000;
#X floatatom 164 919 5 0 0 0 - - -;
#X obj 164 977 s ring_modulation;
#X msg 685 946 \$1 1000;
#X floatatom 685 918 5 0 0 0 - - -;
#X obj 685 976 s bright_on;
#X msg 74 894 0;
#X msg 164 893 0;
#X msg 685 894 0;
#X obj 74 1095 s amp_modulation;
#X msg 74 1070 \$1 1000;
#X floatatom 74 1042 5 0 0 0 - - -;
#X msg 74 1017 0;
#X obj 202 1095 s amp_coeficient;
#X obj 205 1032 hsl 128 15 0 3 0 0 empty empty empty -2 -8 0 10 -262144
-1 -1 0 1;
#X floatatom 202 1074 5 0 0 0 - - -;
#X msg 131 893 0.4;
#X obj 202 1052 pow 4;
#X obj 353 1095 s vibrato;
#X obj 353 1072 tgl 15 0 empty empty empty 17 7 0 10 -262144 -1 -1
0 1;
#X obj 455 1032 hsl 128 15 0 3 0 0 empty empty empty -2 -8 0 10 -262144
-1 -1 0 1;
#X floatatom 452 1074 5 0 0 0 - - -;
#X obj 452 1052 pow 4;
#X obj 452 1095 s vib_coeficient;
#X msg 684 1080 \$1 1000;
#X floatatom 684 1052 5 0 0 0 - - -;
#X msg 684 1027 0;
#X msg 650 1027 1;
#X obj 865 1040 hsl 128 15 0 3 0 0 empty empty empty -2 -8 0 10 -262144
-1 -1 0 1;
#X floatatom 862 1082 5 0 0 0 - - -;
#X obj 862 1060 pow 4;
#X msg 648 895 0.2;
#X obj 684 1105 s amp_modulation_bright;
#X obj 862 1105 s amp_coeficient_bright;
#X floatatom 38 1205 5 0 0 0 - - -;
#X obj 41 1184 hsl 128 15 0 5000 0 0 empty empty empty -2 -8 0 10 -262144
-1 -1 0 1;
#X obj 38 1228 s smooth;
#X obj 200 1228 s rand_amp_on;
#X obj 200 1208 tgl 15 0 empty empty empty 17 7 0 10 -262144 -1 -1
0 1;
#X msg 40 1017 0.6;
#X floatatom 308 1205 5 0 0 0 - - -;
#X obj 311 1184 hsl 128 15 0 5000 0 0 empty empty empty -2 -8 0 10
-262144 -1 -1 0 1;
#X obj 308 1228 s rand_tempo;
#X obj 455 1228 s rand_dyn_range;
#X msg 457 1266 2;
#X obj 457 1290 s rand_dyn_min;
#X obj 39 1295 s array1_zero;
#X msg 39 1268 1 3000;
#X msg 4 1267 0;
#X msg 728 1261 1 3000;
#X msg 693 1260 0;
#X floatatom 848 1205 5 0 0 0 - - -;
#X obj 851 1184 hsl 128 15 0 5000 0 0 empty empty empty -2 -8 0 10
-262144 -1 -1 0 1;
#X msg 947 1266 2;
#X obj 690 1205 tgl 15 0 empty empty empty 17 7 0 10 -262144 -1 -1
0 1;
#X obj 690 1228 s rand_amp_on_bright;
#X obj 848 1228 s rand_tempo_bright;
#X obj 1015 1228 s rand_dyn_range_bright;
#X obj 947 1290 s rand_dyn_min_bright;
#X obj 728 1288 s array2_zero;
#X obj 354 887 tgl 15 0 empty empty empty 17 7 0 10 -262144 -1 -1 0
1;
#X obj 668 636 mtof;
#X obj 668 660 osc~;
#X obj 653 732 dac~;
#N canvas 0 22 450 278 (subpatch) 0;
#X array array1 15 float 3;
#A 0 0 0 0.235 0.025 0 0 0.065 0.109 0.015 0.085 0.125 0.195 0.045
0.045 0.025;
#X coords 0 0.5 15 0 100 130 2 0 0;
#X restore 29 564 graph;
#X obj 156 566 vsl 8 125 0 100 0 0 empty rand_dyn_range_monitor dyn_range
-13 -9 0 10 -262144 -1 -1 6324 1;
#X obj 148 566 vsl 8 125 0 100 0 0 empty rand_dyn_min_monitor empty
0 -9 0 10 -262144 -1 -1 124 1;
#N canvas 0 22 450 278 (subpatch) 0;
#X array array2 56 float 3;
#A 0 0 0 0 0 0 0 0 0 0 0 0 0 0 0 0 0 0 0 0 0 0 0.0386 0 0 0 0 0 0 0
0 0 0 0 0 0 0 0 0 0 0 0 0 0 0 0 0 0 0 0 0 0 0 0 0 0 0;
#X coords 0 0.5 56 0 100 130 2 0 0;
#X restore 268 564 graph;
#X obj 396 566 vsl 8 125 0 100 0 0 empty rand_dyn_range_bright_monitor
dyn_range -20 -9 0 10 -262144 -1 -1 1612 1;
#X obj 388 566 vsl 8 125 0 100 0 0 empty rand_dyn_min_bright_monitor
empty 0 -9 0 10 -262144 -1 -1 124 1;
#X obj 732 632 tgl 15 0 empty empty empty 17 7 0 10 -262144 -1 -1 0
1;
#X obj 636 629 bng 15 250 50 0 empty empty empty 17 7 0 10 -262144
-1 -1;
#X text 594 854 ] \; ] \; ] \; ] \; ] \; ] \; ] \; ] \; ] \; ] \; ]
\; ] \; ] \; ] \; ] \; ] \; ] \; ] \; ] \; ] \; ] \; ] \; ] \; ] \;
] \; ] \; ] \; ] \; ] \; ] \; ] \; ] \; ] \; ] \; ] \; ] \; ] \; ]
\; ] \; ] \; ] \; ] \; ] \; ] \;;
#X obj 501 615 s midi_note;
#X obj 499 503 tgl 15 0 empty empty empty 17 7 0 10 -262144 -1 -1 0
1;
#X obj 500 523 metro 1000;
#N canvas 875 0 371 486 electronics 1;
#N canvas 0 0 1440 878 oscilators_bright 0;
#X obj 20 135 osc_bright 0;
#X obj 30 165 osc_bright 1;
#X obj 40 195 osc_bright 2;
#X obj 50 225 osc_bright 3;
#X obj 60 255 osc_bright 4;
#X obj 70 285 osc_bright 5;
#X obj 80 315 osc_bright 6;
#X obj 90 345 osc_bright 7;
#X obj 100 375 osc_bright 8;
#X obj 110 405 osc_bright 9;
#X obj 120 135 osc_bright 10;
#X obj 130 165 osc_bright 11;
#X obj 140 195 osc_bright 12;
#X obj 150 225 osc_bright 13;
#X obj 160 255 osc_bright 14;
#X obj 170 285 osc_bright 15;
#X obj 180 315 osc_bright 16;
#X obj 190 345 osc_bright 17;
#X obj 200 375 osc_bright 18;
#X obj 20 105 unpack f f f f f f f f f f f f f f f f f f f;
#X obj 349 205 unpack f f f f f f f f f f f f f f f f f f f;
#X msg 349 153 3406.5 3695.5 4023.5 4347 4573.5 4903 5397.5 5719 5904
6095 6298.5 6662.5 7371 8261.5 9134.5 10203 11295 12067.5;
#X obj 349 235 osc_bright 19;
#X obj 359 265 osc_bright 20;
#X obj 369 295 osc_bright 21;
#X obj 379 325 osc_bright 22;
#X obj 389 355 osc_bright 23;
#X obj 399 385 osc_bright 24;
#X obj 409 415 osc_bright 25;
#X obj 419 445 osc_bright 26;
#X obj 429 475 osc_bright 27;
#X obj 439 505 osc_bright 28;
#X obj 449 235 osc_bright 29;
#X obj 459 265 osc_bright 30;
#X obj 469 295 osc_bright 31;
#X obj 479 325 osc_bright 32;
#X obj 489 355 osc_bright 33;
#X obj 499 385 osc_bright 34;
#X obj 509 415 osc_bright 35;
#X obj 519 445 osc_bright 36;
#X obj 529 475 osc_bright 37;
#X obj 708 317 unpack f f f f f f f f f f f f f f f f f f f;
#X msg 708 265 7102 7719 8370.5 8920.5 9476.5 10300.5 11116.5 11623
11999 12393.5 12961 14033.5 15632.5 17396 19337.5 21498 23362.5;
#X obj 708 347 osc_bright 38;
#X obj 718 377 osc_bright 39;
#X obj 728 407 osc_bright 40;
#X obj 738 437 osc_bright 41;
#X obj 748 467 osc_bright 42;
#X obj 758 497 osc_bright 43;
#X obj 768 527 osc_bright 44;
#X obj 778 557 osc_bright 45;
#X obj 788 587 osc_bright 46;
#X obj 798 617 osc_bright 47;
#X obj 808 347 osc_bright 48;
#X obj 818 377 osc_bright 49;
#X obj 828 407 osc_bright 50;
#X obj 838 437 osc_bright 51;
#X obj 848 467 osc_bright 52;
#X obj 858 497 osc_bright 53;
#X obj 868 527 osc_bright 54;
#X obj 878 557 osc_bright 55;
#X obj 888 587 osc_bright 56;
#X msg 20 53 0 0 0 2097 2250 2323.5 2579.5 2818 2901 3003 3092 3206.5
3456 3915 4346.5 4788 5415 5880 6187.5;
#X obj 20 28 loadbang;
#X obj 350 128 loadbang;
#X obj 708 237 loadbang;
#X connect 19 1 1 0;
#X connect 19 2 2 0;
#X connect 19 3 3 0;
#X connect 19 4 4 0;
#X connect 19 5 5 0;
#X connect 19 6 6 0;
#X connect 19 7 7 0;
#X connect 19 8 8 0;
#X connect 19 9 9 0;
#X connect 19 10 10 0;
#X connect 19 11 11 0;
#X connect 19 12 12 0;
#X connect 19 13 13 0;
#X connect 19 14 14 0;
#X connect 19 15 15 0;
#X connect 19 16 16 0;
#X connect 19 17 17 0;
#X connect 19 18 18 0;
#X connect 20 0 22 0;
#X connect 20 1 23 0;
#X connect 20 2 24 0;
#X connect 20 3 25 0;
#X connect 20 4 26 0;
#X connect 20 5 27 0;
#X connect 20 6 28 0;
#X connect 20 7 29 0;
#X connect 20 8 30 0;
#X connect 20 9 31 0;
#X connect 20 10 32 0;
#X connect 20 11 33 0;
#X connect 20 12 34 0;
#X connect 20 13 35 0;
#X connect 20 14 36 0;
#X connect 20 15 37 0;
#X connect 20 16 38 0;
#X connect 20 17 39 0;
#X connect 20 18 40 0;
#X connect 21 0 20 0;
#X connect 41 0 43 0;
#X connect 41 1 44 0;
#X connect 41 2 45 0;
#X connect 41 3 46 0;
#X connect 41 4 47 0;
#X connect 41 5 48 0;
#X connect 41 6 49 0;
#X connect 41 7 50 0;
#X connect 41 8 51 0;
#X connect 41 9 52 0;
#X connect 41 10 53 0;
#X connect 41 11 54 0;
#X connect 41 12 55 0;
#X connect 41 13 56 0;
#X connect 41 14 57 0;
#X connect 41 15 58 0;
#X connect 41 16 59 0;
#X connect 41 17 60 0;
#X connect 41 18 61 0;
#X connect 42 0 41 0;
#X connect 62 0 19 0;
#X connect 63 0 62 0;
#X connect 64 0 21 0;
#X connect 65 0 42 0;
#X restore 28 58 pd oscilators_bright;
#N canvas 20 11 1420 828 oscilators 1;
#X obj 225 72 oscilator 349.228 1 269.292;
#X obj 225 95 oscilator 415.305 2 349.228;
#X obj 225 118 oscilator 523.251 3 415.305;
#X obj 225 141 oscilator 659.255 4 761.672;
#X obj 225 164 oscilator 761.672 5 659.255;
#X obj 225 187 oscilator 806.964 6 761.672;
#X obj 225 210 oscilator 830.609 7 806.964;
#X obj 225 233 oscilator 987.767 8 830.6;
#X obj 225 256 oscilator 1108.73 9 987.767;
#X obj 225 279 oscilator 1141.22 10 1141.22;
#X obj 225 302 oscilator 1396.91 11 1141.22;
#X obj 225 325 oscilator 1479.98 12 1396.91;
#X obj 225 348 oscilator 1523.34 13 1479.98;
#X obj 225 371 oscilator 1661.22 14 1523.34;
#X obj 418 524 hoa.scope~ @size 246 246 @receive "(null)" @send "(null)"
@pinned 0 @background_color 0.93 0.93 0.93 1 @border_color 0.6 0.6
0.6 1 @label_color 0 0 0 1 @ph_color 1 0 0 1 @nh_color 0 0 1 1 @fontname
"Helvetica" @fontweight "normal" @fontslant "roman" @fontsize 11 @label
"(null)" @label_inner 0 @label_side "top" @label_align "left" @label_valign
"top" @label_margins 0 0 @gain 123 @refresh 100 @order 3 @view 0;
#X obj -51 431 hoa.2d.map~ 3 15, f 35;
#X obj -51 260 r to_hoa.map;
#X msg 418 492 @gain \$1;
#X obj 422 470 hsl 128 15 0 127 0 0 empty empty empty -2 -8 0 10 -262144
-1 -1 0 1;
#X obj 225 49 oscilator 269.292 0 254.177;
#X obj -304 99 msg mute;
#X msg -304 55 0 \$1 \, 1 \$2 \, 2 \$3 \, 3 \$4 \, 4 \$5 \, 5 \$6 \,
6 \$7 \, 7 \$8 \, 8 \$9 \, 9 \$10 \, 10 \$11 \, 11 \$12 \, 12 \$13
\, 13 \$14 \, 14 \$15;
#X obj -304 31 ui.radio @size 239 15 @receive "(null)" @send "(null)"
@pinned 0 @presetname "ui.radio.1" @mouse_events 0 @background_color
0.93 0.93 0.93 1 @border_color 0.6 0.6 0.6 1 @label_color 0 0 0 1 @active_color
0 0.75 1 1 @fontname "Helvetica" @fontweight "normal" @fontslant "roman"
@fontsize 11 @label "(null)" @label_inner 0 @label_side "top" @label_align
"left" @label_valign "top" @label_margins 0 0 @nitems 15 @mode 1;
#X text -308 3 Mute;
#X obj 242 475 phase->rad~;
#X obj -119 504 hoa.rotate~ 3, f 52;
#X obj 242 450 osc~ 0.01;
#X obj -227 563 throw~ amb_1;
#X obj -137 563 throw~ amb_2;
#X obj -47 563 throw~ amb_3;
#X obj 43 563 throw~ amb_4;
#X obj 133 563 throw~ amb_5;
#X obj 223 563 throw~ amb_6;
#X obj 313 563 throw~ amb_7;
#X connect 0 0 15 1;
#X connect 1 0 15 2;
#X connect 2 0 15 3;
#X connect 3 0 15 4;
#X connect 4 0 15 5;
#X connect 5 0 15 6;
#X connect 6 0 15 7;
#X connect 7 0 15 8;
#X connect 8 0 15 9;
#X connect 9 0 15 10;
#X connect 10 0 15 11;
#X connect 11 0 15 12;
#X connect 12 0 15 13;
#X connect 13 0 15 14;
#X connect 15 0 25 0;
#X connect 15 1 25 1;
#X connect 15 2 25 2;
#X connect 15 3 25 3;
#X connect 15 4 25 4;
#X connect 15 5 25 5;
#X connect 15 6 25 6;
#X connect 16 0 15 0;
#X connect 17 0 14 0;
#X connect 18 0 17 0;
#X connect 19 0 15 0;
#X connect 20 0 15 0;
#X connect 21 0 20 0;
#X connect 22 0 21 0;
#X connect 24 0 25 7;
#X connect 25 0 14 0;
#X connect 25 0 27 0;
#X connect 25 1 14 1;
#X connect 25 1 28 0;
#X connect 25 2 14 2;
#X connect 25 2 29 0;
#X connect 25 3 14 3;
#X connect 25 3 30 0;
#X connect 25 4 14 4;
#X connect 25 4 31 0;
#X connect 25 5 14 5;
#X connect 25 5 32 0;
#X connect 25 6 14 6;
#X connect 25 6 33 0;
#X connect 26 0 24 0;
#X restore 28 34 pd oscilators;
#N canvas 20 50 1420 828 random_array1 0;
#X obj 93 191 tgl 15 0 empty empty empty 17 7 0 10 -262144 -1 -1 1
1;
#X floatatom 125 188 5 0 0 0 - - -;
#X obj 125 83 r rand_tempo;
#X obj 125 164 line;
#X floatatom 171 188 5 0 0 0 - - -;
#X obj 171 164 line;
#X obj 171 112 r rand_dyn_range;
#X floatatom 219 189 5 0 0 0 - - -;
#X obj 219 165 line;
#X obj 219 141 r rand_dyn_min;
#X obj 93 52 r rand_amp_on;
#N canvas 20 50 1344 779 components_amp 0;
#X obj 212 521 tabwrite array1;
#X floatatom 314 273 5 0 0 0 - - -;
#X obj 80 298 *;
#X floatatom 116 455 5 0 0 0 - - -;
#X obj 80 165 bng 15 250 50 0 empty empty empty 17 7 0 10 -262144 -1
-1;
#X obj 53 87 metro 500;
#X obj 258 68 inlet;
#X obj 53 66 tgl 15 0 empty empty empty 17 7 0 10 -262144 -1 -1 1 1
;
#X obj 52 38 inlet;
#X obj 212 465 pack \$1 \$2;
#X obj 212 489 line;
#X obj 130 213 random 25;
#X obj 350 81 inlet;
#X text 50 12 on off;
#X text 202 33 metro ms;
#X text 321 41 dynamic range;
#X obj 60 190 0.5;
#X obj 60 219 / 25;
#X obj 92 339 *;
#X obj 431 82 inlet;
#X text 430 44 minimum;
#X obj 143 314 / 100;
#X obj 108 389 +;
#X obj 109 419 clip 0 0.5;
#X obj 163 356 / 200;
#X obj 144 263 pack \$1 1000;
#X obj 144 287 line;
#X obj 314 215 random 15;
#X obj 59 683 t b b b;
#X obj 139 702 f;
#X obj 171 702 f;
#X obj 203 702 f;
#X obj 139 672 unpack f f f;
#X text 797 62 rand_amp_on: turn on/off the random amplitude of components
\; rand_tempo: time (ms) to change one amplitude \; rand_dyn_range:
dynamic range of the amplitude \; rand_dyn_min: min value of the dynamic
range \;;
#X obj 106 825 tabwrite array1;
#X obj 69 743 pack \$1 \$2;
#X obj 69 767 line;
#X text 70 618 Notes written in the score;
#X floatatom 106 791 5 0 0 0 - - -;
#X floatatom 201 787 5 0 0 0 - - -;
#X obj 133 646 r note;
#N canvas 20 50 969 617 receive_notes 0;
#X obj 39 37 r note_1;
#X obj 39 63 line;
#X obj 39 87 tabwrite array1;
#X obj 141 64 1;
#X obj 179 63 line;
#X obj 179 87 tabwrite array1;
#X obj 319 63 line;
#X obj 319 87 tabwrite array1;
#X obj 459 63 line;
#X obj 459 87 tabwrite array1;
#X obj 39 143 line;
#X obj 39 167 tabwrite array1;
#X obj 179 143 line;
#X obj 179 167 tabwrite array1;
#X obj 319 143 line;
#X obj 319 167 tabwrite array1;
#X obj 459 143 line;
#X obj 459 167 tabwrite array1;
#X obj 39 223 line;
#X obj 39 247 tabwrite array1;
#X obj 179 223 line;
#X obj 179 247 tabwrite array1;
#X obj 319 223 line;
#X obj 319 247 tabwrite array1;
#X obj 459 223 line;
#X obj 459 247 tabwrite array1;
#X obj 39 303 line;
#X obj 39 327 tabwrite array1;
#X obj 179 303 line;
#X obj 179 327 tabwrite array1;
#X obj 319 303 line;
#X obj 319 327 tabwrite array1;
#X obj 179 37 r note_2;
#X obj 319 37 r note_3;
#X obj 459 37 r note_4;
#X obj 39 117 r note_5;
#X obj 179 117 r note_6;
#X obj 319 117 r note_7;
#X obj 459 117 r note_8;
#X obj 39 197 r note_9;
#X obj 179 197 r note_10;
#X obj 319 197 r note_11;
#X obj 459 197 r note_12;
#X obj 39 277 r note_13;
#X obj 179 277 r note_14;
#X obj 319 277 r note_15;
#X obj 281 64 2;
#X obj 421 64 3;
#X obj 561 64 4;
#X obj 141 144 5;
#X obj 281 144 6;
#X obj 421 144 7;
#X obj 561 144 8;
#X obj 141 224 9;
#X obj 281 224 10;
#X obj 421 224 11;
#X obj 561 224 12;
#X obj 141 304 13;
#X obj 281 304 14;
#X obj 421 304 15;
#X obj 643 44 bng 15 250 50 0 empty empty empty 17 7 0 10 -262144 -1
-1;
#X obj 643 20 loadbang;
#X connect 0 0 1 0;
#X connect 1 0 2 0;
#X connect 3 0 2 1;
#X connect 4 0 5 0;
#X connect 6 0 7 0;
#X connect 8 0 9 0;
#X connect 10 0 11 0;
#X connect 12 0 13 0;
#X connect 14 0 15 0;
#X connect 16 0 17 0;
#X connect 18 0 19 0;
#X connect 20 0 21 0;
#X connect 22 0 23 0;
#X connect 24 0 25 0;
#X connect 26 0 27 0;
#X connect 28 0 29 0;
#X connect 30 0 31 0;
#X connect 32 0 4 0;
#X connect 33 0 6 0;
#X connect 34 0 8 0;
#X connect 35 0 10 0;
#X connect 36 0 12 0;
#X connect 37 0 14 0;
#X connect 38 0 16 0;
#X connect 39 0 18 0;
#X connect 40 0 20 0;
#X connect 41 0 22 0;
#X connect 42 0 24 0;
#X connect 43 0 26 0;
#X connect 44 0 28 0;
#X connect 45 0 30 0;
#X connect 46 0 5 1;
#X connect 47 0 7 1;
#X connect 48 0 9 1;
#X connect 49 0 11 1;
#X connect 50 0 13 1;
#X connect 51 0 15 1;
#X connect 52 0 17 1;
#X connect 53 0 19 1;
#X connect 54 0 21 1;
#X connect 55 0 23 1;
#X connect 56 0 25 1;
#X connect 57 0 27 1;
#X connect 58 0 29 1;
#X connect 59 0 31 1;
#X connect 60 0 48 0;
#X connect 60 0 52 0;
#X connect 60 0 56 0;
#X connect 60 0 47 0;
#X connect 60 0 59 0;
#X connect 60 0 55 0;
#X connect 60 0 51 0;
#X connect 60 0 58 0;
#X connect 60 0 54 0;
#X connect 60 0 50 0;
#X connect 60 0 46 0;
#X connect 60 0 57 0;
#X connect 60 0 53 0;
#X connect 60 0 49 0;
#X connect 60 0 3 0;
#X connect 61 0 60 0;
#X restore 561 40 pd receive_notes;
#X connect 1 0 0 1;
#X connect 2 0 18 0;
#X connect 3 0 9 0;
#X connect 4 0 11 0;
#X connect 4 0 16 0;
#X connect 4 0 27 0;
#X connect 5 0 4 0;
#X connect 6 0 5 1;
#X connect 6 0 9 1;
#X connect 7 0 5 0;
#X connect 8 0 7 0;
#X connect 9 0 10 0;
#X connect 10 0 0 0;
#X connect 11 0 2 1;
#X connect 12 0 25 0;
#X connect 16 0 17 0;
#X connect 17 0 2 0;
#X connect 18 0 22 0;
#X connect 19 0 24 0;
#X connect 21 0 18 1;
#X connect 22 0 23 0;
#X connect 23 0 3 0;
#X connect 24 0 22 1;
#X connect 25 0 26 0;
#X connect 26 0 21 0;
#X connect 27 0 1 0;
#X connect 28 0 30 0;
#X connect 28 1 29 0;
#X connect 28 2 31 0;
#X connect 29 0 34 1;
#X connect 29 0 39 0;
#X connect 30 0 35 0;
#X connect 31 0 35 1;
#X connect 32 0 29 1;
#X connect 32 1 30 1;
#X connect 32 2 31 1;
#X connect 35 0 36 0;
#X connect 36 0 34 0;
#X connect 36 0 38 0;
#X connect 40 0 32 0;
#X connect 40 0 28 0;
#X restore 63 247 pd components_amp;
#X obj 276 330 s rand_tempo_monitor;
#X obj 276 307 s rand_dyn_range_monitor;
#X obj 276 223 s rand_dyn_min_monitor;
#X obj 565 216 array set array1;
#X obj 566 161 bng 15 250 50 0 empty empty empty 17 7 0 10 -262144
-1 -1;
#X obj 566 115 tgl 15 0 empty empty empty 17 7 0 10 -262144 -1 -1 1
1;
#X obj 566 135 metro 5000;
#X msg 565 183 0 0 0 0 0 0 0 0 0 0 0 0 0 0 0;
#X obj 566 62 r array1_zero;
#X obj 566 87 unpack f f;
#X obj 681 142 r array1_zero_now;
#X obj 888 280 array set array1;
#X obj 888 155 r initial_chord;
#X obj 252 274 +;
#X msg 888 180 0.2 0.2 0.2 0.2 0.2 0.2 0.2 0.2 0.2 0.2 0.2 0.2 0.2
0.2 0.4;
#X obj 1008 155 r second_chord;
#X msg 1010 205 0.2 0.2 0.2 0.2 0.2 0.2 0.2 0.2 0.2 0.2 0.2 0.2 0.2
0.5 0.2;
#X connect 0 0 11 0;
#X connect 1 0 11 1;
#X connect 1 0 12 0;
#X connect 2 0 3 0;
#X connect 3 0 1 0;
#X connect 4 0 11 2;
#X connect 4 0 25 1;
#X connect 5 0 4 0;
#X connect 6 0 5 0;
#X connect 7 0 11 3;
#X connect 7 0 14 0;
#X connect 7 0 25 0;
#X connect 8 0 7 0;
#X connect 9 0 8 0;
#X connect 10 0 0 0;
#X connect 16 0 19 0;
#X connect 17 0 18 0;
#X connect 18 0 16 0;
#X connect 19 0 15 0;
#X connect 20 0 21 0;
#X connect 21 0 17 0;
#X connect 21 1 18 1;
#X connect 22 0 16 0;
#X connect 24 0 26 0;
#X connect 25 0 13 0;
#X connect 26 0 23 0;
#X connect 27 0 28 0;
#X connect 28 0 23 0;
#X restore 28 99 pd random_array1;
#N canvas 20 50 1420 828 random_array2 0;
#N canvas 20 50 1420 828 bright_amp 0;
#X floatatom 314 273 5 0 0 0 - - -;
#X obj 80 298 *;
#X floatatom 116 455 5 0 0 0 - - -;
#X obj 80 165 bng 15 250 50 0 empty empty empty 17 7 0 10 -262144 -1
-1;
#X obj 53 87 metro 500;
#X obj 258 68 inlet;
#X obj 53 66 tgl 15 0 empty empty empty 17 7 0 10 -262144 -1 -1 1 1
;
#X obj 52 38 inlet;
#X obj 212 465 pack \$1 \$2;
#X obj 212 489 line;
#X obj 130 213 random 25;
#X obj 350 81 inlet;
#X text 50 12 on off;
#X text 219 37 metro ms;
#X text 321 41 dynamic range;
#X obj 60 190 0.5;
#X obj 60 219 / 25;
#X obj 92 339 *;
#X obj 431 82 inlet;
#X text 430 44 minimum;
#X obj 143 314 / 100;
#X obj 108 389 +;
#X obj 109 419 clip 0 0.5;
#X obj 163 356 / 200;
#X obj 144 263 pack \$1 1000;
#X obj 144 287 line;
#X text 797 62 rand_amp_on: turn on/off the random amplitude of components
\; rand_tempo: time (ms) to change one amplitude \; rand_dyn_range:
dynamic range of the amplitude \; rand_dyn_min: min value of the dynamic
range \;;
#X obj 212 521 tabwrite array2;
#X obj 314 215 random 55;
#X connect 0 0 27 1;
#X connect 1 0 17 0;
#X connect 2 0 8 0;
#X connect 3 0 10 0;
#X connect 3 0 15 0;
#X connect 3 0 28 0;
#X connect 4 0 3 0;
#X connect 5 0 4 1;
#X connect 5 0 8 1;
#X connect 6 0 4 0;
#X connect 7 0 6 0;
#X connect 8 0 9 0;
#X connect 9 0 27 0;
#X connect 10 0 1 1;
#X connect 11 0 24 0;
#X connect 15 0 16 0;
#X connect 16 0 1 0;
#X connect 17 0 21 0;
#X connect 18 0 23 0;
#X connect 20 0 17 1;
#X connect 21 0 22 0;
#X connect 22 0 2 0;
#X connect 23 0 21 1;
#X connect 24 0 25 0;
#X connect 25 0 20 0;
#X connect 28 0 0 0;
#X restore 107 209 pd bright_amp;
#X obj 78 183 tgl 15 0 empty empty empty 17 7 0 10 -262144 -1 -1 1
1;
#X floatatom 98 180 5 0 0 0 - - -;
#X obj 98 156 line;
#X floatatom 149 180 5 0 0 0 - - -;
#X obj 149 156 line;
#X floatatom 197 181 5 0 0 0 - - -;
#X obj 197 157 line;
#X obj 87 34 r rand_amp_on_bright;
#X obj 98 72 r rand_tempo_bright;
#X obj 129 104 r rand_dyn_range_bright;
#X obj 198 133 r rand_dyn_min_bright;
#X obj 270 185 s rand_dyn_min_bright_monitor;
#X obj 270 270 s rand_dyn_range_bright_monitor;
#X obj 17 239 s rand_tempo_bright_monitor;
#X obj 585 123 bng 15 250 50 0 empty empty empty 17 7 0 10 -262144
-1 -1;
#X obj 585 77 tgl 15 0 empty empty empty 17 7 0 10 -262144 -1 -1 1
1;
#X obj 584 187 array set array2;
#X obj 585 97 metro 9000;
#X msg 584 145 0 0 0 0 0 0 0 0 0 0 0 0 0 0 0 0 0 0 0 0 0 0 0 0 0 0
0 0 0 0 0 0 0 0 0 0 0 0 0 0 0 0 0 0 0 0 0 0 0 0 0 0 0 0 0 0;
#X obj 585 52 unpack f f;
#X obj 585 27 r array2_zero;
#X obj 736 99 r array2_zero_now;
#X obj 260 231 +;
#X connect 1 0 0 0;
#X connect 2 0 0 1;
#X connect 2 0 14 0;
#X connect 3 0 2 0;
#X connect 4 0 0 2;
#X connect 4 0 23 1;
#X connect 5 0 4 0;
#X connect 6 0 0 3;
#X connect 6 0 12 0;
#X connect 6 0 23 0;
#X connect 7 0 6 0;
#X connect 8 0 1 0;
#X connect 9 0 3 0;
#X connect 10 0 5 0;
#X connect 11 0 7 0;
#X connect 15 0 19 0;
#X connect 16 0 18 0;
#X connect 18 0 15 0;
#X connect 19 0 17 0;
#X connect 20 0 16 0;
#X connect 20 1 18 1;
#X connect 21 0 20 0;
#X connect 22 0 15 0;
#X connect 23 0 13 0;
#X restore 28 121 pd random_array2;
#X text 26 15 Instrument;
#X text 26 80 Instrumentist;
#N canvas 20 50 625 347 note_followers 0;
#X obj 28 297 note_follow 92;
#X obj 28 31 note_follow 60.5 0;
#X obj 28 50 note_follow 65 1;
#X obj 28 69 note_follow 68 2;
#X obj 28 88 note_follow 72 3;
#X obj 28 107 note_follow 76 4;
#X obj 28 126 note_follow 78.5 5;
#X obj 28 145 note_follow 79.5 6;
#X obj 28 164 note_follow 80 93.5 7;
#X obj 28 183 note_follow 83 96.02 8;
#X obj 28 202 note_follow 85 97.25 9;
#X obj 28 221 note_follow 85.5 10;
#X obj 28 240 note_follow 89 11;
#X obj 28 259 note_follow 90 12;
#X obj 28 278 note_follow 90.5 13;
#X obj 303 28 note_follow_ring 39.4 74.8 0;
#X obj 303 47 note_follow_ring 36.1 78.5 1;
#X obj 303 66 note_follow_ring 44.6 82.1 2;
#X obj 303 85 note_follow_ring 48.6 86.1 3;
#X obj 303 104 note_follow_ring 43.76 89.29 4;
#X obj 303 123 note_follow_ring 29.6 91 5;
#X obj 303 142 note_follow_ring 18.38 91.75 6;
#X obj 303 161 note_follow_ring 51.17 93.5 7;
#X obj 303 180 note_follow_ring 46.64 96.02 8;
#X obj 303 199 note_follow_ring 23.88 97.25 9;
#X obj 303 218 note_follow_ring 59.6 99.33 10;
#X obj 303 237 note_follow_ring 40.13 101.5 11;
#X obj 303 256 note_follow_ring 28.88 102.25 12;
#X obj 303 275 note_follow_ring 48.91 103.26 13;
#X restore 28 143 pd note_followers;
#X text 198 22 Parameters list \; -- \; original \; ring_modulation
\; bright \; -- \; amp_modulation \; amp_coeficient \; -- \; vibrato
\; vib_coeficient \; -- \; amp_modulation_bright \; amp_coeficient_bright
\; -- \; smooth \; -- \; random_amp_on \; rand_tempo \; rand_dyn_range
\; rand_dyn_min \; array1_zero \; -- \; random_amp_on_bright \; rand_tempo_bright
\; rand_dyn_range_bright \; rand_dyn_min_bright \; array2_zero \; --
\; note_followers_on \; unison_fade \; -- \; darkness \;;
#N canvas 0 22 450 300 array1_write 0;
#X obj 7 17 r array1_write;
#X obj 7 41 unpack 0 0;
#X obj 7 66 tabwrite array1;
#X connect 0 0 1 0;
#X connect 1 0 2 0;
#X connect 1 1 2 1;
#X restore 28 167 pd array1_write;
#X coords 0 486 1 485 85 60 0;
#X restore 321 412 pd electronics;
#X obj 184 451 nbx 5 14 -1e+37 1e+37 0 0 empty smooth fade_time 0 -8
0 10 -262144 -1 -1 1000 256;
#X obj 88 516 nbx 5 14 -1e+37 1e+37 0 0 empty rand_tempo_monitor tempo
54 8 0 9 -262144 -1 -1 300 256;
#X obj 29 516 tgl 15 0 empty rand_amp_on random 17 7 0 10 -262144 -1
-1 1 1;
#X text 27 418 Monitor;
#X obj 329 517 nbx 5 14 -1e+37 1e+37 0 0 empty rand_tempo_bright_monitor
tempo 54 8 0 9 -262144 -1 -1 0 256;
#X obj 269 516 tgl 15 0 empty rand_amp_on_bright random 17 7 0 10 -262144
-1 -1 1 1;
#X obj 29 724 tgl 15 0 empty note_followers_on note_followers 17 7
0 10 -262144 -1 -1 0 1;
#X text 1107 53 Parameters list \; -- \; original \; ring_modulation
\; bright \; -- \; amp_modulation \; amp_coeficient \; -- \; vibrato
\; vib_coeficient \; -- \; amp_modulation_bright \; amp_coeficient_bright
\; -- \; smooth \; -- \; random_amp_on \; rand_tempo \; rand_dyn_range
\; rand_dyn_min \; array1_zero \; -- \; random_amp_on_bright \; rand_tempo_bright
\; rand_dyn_range_bright \; rand_dyn_min_bright \; array2_zero \; --
\; note_followers_on \; unison_fade \; -- \; darkness \; reverb \;
;
#X obj 29 749 tgl 15 0 empty amp_modulation amp_modulation 17 7 0 10
-262144 -1 -1 1 1;
#X obj 138 749 nbx 5 14 -1e+37 1e+37 0 0 empty amp_coeficient coef
54 8 0 9 -262144 -1 -1 0.03 256;
#X obj 29 773 tgl 15 0 empty vibrato vibrato 17 7 0 10 -262144 -1 -1
1 1;
#X obj 94 773 nbx 5 14 -1e+37 1e+37 0 0 empty vib_coeficient coef 54
8 0 9 -262144 -1 -1 5 256;
#X obj 269 749 tgl 15 0 empty amp_modulation_bright amp_modulation
17 7 0 10 -262144 -1 -1 0.4 1;
#X obj 378 749 nbx 5 14 -1e+37 1e+37 0 0 empty amp_coeficient_bright
coef 54 8 0 9 -262144 -1 -1 0.01 256;
#X text 28 695 bell components;
#X text 266 696 bright components;
#X msg 1015 1204 12;
#X obj 148 247 bng 20 250 50 0 start empty start -3 27 0 10 -2261 -1
-1;
#X text 149 278 or;
#X obj 668 684 *~ 0;
#X obj 723 352 r stop_score;
#X obj 32 470 hsl 100 8 0 1 0 0 empty original_monitor original_chord
-2 -8 0 10 -262144 -1 -1 0 1;
#X obj 33 496 hsl 100 8 0 1 0 0 empty ring_modulation_monitor ring_modulation
-2 -8 0 10 -262144 -1 -1 2970 1;
#X obj 272 500 hsl 100 8 0 1 0 0 empty bright_on_monitor bright -2
-8 0 10 -262144 -1 -1 495 1;
#X obj 138 725 nbx 5 14 -1e+37 1e+37 0 0 empty midi_note midi 54 8
0 9 -262144 -1 -1 44 256;
#X obj 668 588 r midi_note;
#X msg 455 1204 20;
#X obj 732 652 * 0.01;
#X obj 503 595 hsl 128 15 0 127 0 0 empty empty empty -2 -8 0 10 -262144
-1 -1 0 1;
#X obj 500 547 random 60;
#X obj 500 571 + 40;
#X text 27 72 Organ;
#X text 92 72 Electronics;
#X msg 40 894 0.3;
#X msg 354 909 \; note_followers_on \$1 \; note_followers_ring_on \$1
\; note_followers_min 0 \; note_followers_max 0.7 \; unison_fade 120
\;;
#X obj 462 93 s array1_write;
#X msg 724 375 \; original 0 1000 \; ring_modulation 0 1000 \; bright_on
0 1000 \; rand_amp_on 0 \; array1_zero 0 \; array2_zero 0 \; array1_zero_now
bang \; rand_amp_on_bright 0 \; array2_zero_now bang \; note_followers_on
0 \; note_followers_ring_on 0 \;;
#X msg 462 68 0.3 14;
#N canvas 0 22 778 453 (subpatch) 0;
#X array a-original 100 float 5;
#A 0 0.2256 0.3104 0.33856 0.36704 0.3952 0.4 0.4 0.4 0.4 0.4 0.4 0.4
0.4 0.4 0.4 0.4 0.4 0.4 0.4 0.4 0.4 0.4 0.4 0.4 0.4 0.4 0.4 0.4 0.4
0.4 0.4 0.4 0.4 0.4 0.4 0.4 0 0.4 0.4 0.4 0.4 0.4 0.4 0 0.4 0.252 0
0.114 0.228 0 0.261429 0.299143 0.3 0.3 0.3 0 0.168 0 0 0 0 0 0 0 0
0 0 0 0 0 0 0 0 0 0 0 0 0 0 0 0 0 0 0 0 0 0 0 0 0 0 0 0 0 0 0 0 0 0
0;
#X coords 0 1 99 0 200 50 1 0 0;
#X restore 588 93 graph;
#N canvas 0 22 450 300 a-original 0;
#X obj 29 161 tabwrite a-original;
#X obj 47 37 r original;
#X obj 47 61 line;
#X obj 177 66 r event_number;
#X obj 29 135 f;
#X obj 97 96 t b b;
#X obj 159 135 f;
#X connect 1 0 2 0;
#X connect 2 0 4 1;
#X connect 3 0 6 1;
#X connect 3 0 5 0;
#X connect 4 0 0 0;
#X connect 5 0 6 0;
#X connect 5 1 4 0;
#X connect 6 0 0 1;
#X restore 693 54 pd a-original;
#N canvas 0 22 450 278 (subpatch) 0;
#X array a-vib_coeficient 100 float 5;
#A 0 5 5 5 7 7 7 7 2 2 2 2 2 2 2 2 12 12 12 12 5 5 5 5 5 5 5 5 5 5
5 5 5 5 5 5 5 0 5 5 5 5 5 5 0 5 5 5 5 5 0 5 5 5 5 5 0 5 5 5 5 5 0 5
5 5 5 5 5 5 0 5 5 5 5 5 0 5 5 5 5 5 5 5 5 5 0 5 5 5 5 0 5 5 5 5 5 5
5 5 5;
#X coords 0 12 99 0 200 50 1 0 0;
#X restore 588 208 graph;
#N canvas 0 22 631 411 a-vib_coeficient 0;
#X obj 47 61 line;
#X obj 177 66 r event_number;
#X obj 29 135 f;
#X obj 97 96 t b b;
#X obj 159 135 f;
#X obj 47 37 r vib_coeficient;
#X obj 29 161 tabwrite a-vib_coeficient;
#X connect 0 0 2 1;
#X connect 1 0 4 1;
#X connect 1 0 3 0;
#X connect 2 0 6 0;
#X connect 3 0 4 0;
#X connect 3 1 2 0;
#X connect 4 0 6 1;
#X connect 5 0 0 0;
#X restore 651 169 pd a-vib_coeficient;
#X obj 275 233 bng 15 250 50 0 empty empty empty 17 7 0 10 -262144
-1 -1;
#X msg 462 21 \; antescofo-mess stop \;;
#X msg 619 287 \; array2_zero_now bang \;;
#N canvas 0 0 1440 878 score_electronics 0;
#N canvas 0 22 450 278 (subpatch) 0;
#X array a-original-A 40 float 3;
#A 0 0.0249995 0.2 0.514997 0.549996 0.564995 0.574995 0.584995 0.584995
0.594995 0.594995 0.584995 0.569995 0.569995 0.554996 0.539996 0.519997
0.514997 0.504997 0.504997 0.504997 0.489997 0.514997 0.529996 0.539996
0.549996 0.574995 0.589995 0.575 0.559996 0.569995 0.569995 0.529987
0.514987 0.435 0.365003 0.3 0.150008 0.045 0.095 0.275;
#X coords 0 1 40 0 400 100 1 0 0;
#X restore 56 31 graph;
#X obj 154 335 s original;
#X obj 71 240 r event_number;
#X obj 69 352 r original;
#X floatatom 69 376 5 0 0 0 - - -;
#X obj 486 744 f;
#X obj 441 707 t b b;
#X obj 410 744 f;
#X obj 338 736 line;
#X msg 338 662 0 \, 1;
#X obj 354 688 del 1;
#X msg 380 714 0;
#X symbolatom 396 515 10 0 0 0 - - -;
#X obj 397 489 r measure;
#X floatatom 515 698 5 0 0 0 - - -;
#X obj 396 538 sel measure10;
#X obj 396 562 0;
#X obj 344 631 spigot;
#X obj 344 542 bang;
#X obj 505 667 r event_number;
#X obj 379 777 tabwrite a-measures-A;
#X msg 104 492 \; antescofo-mess play \;;
#X obj 284 646 bng 15 250 50 0 empty empty empty 17 7 0 10 -262144
-1 -1;
#X obj 532 308 hsl 128 15 0 127 0 0 empty empty empty -2 -8 0 10 -262144
-1 -1 0 1;
#X msg 529 333 \; antescofo-mess tempo \$1 \;;
#X obj 529 260 tgl 15 0 empty empty empty 17 7 0 10 -262144 -1 -1 0
1;
#X obj 529 280 metro 1000;
#X obj 384 612 tgl 15 0 empty empty empty 17 7 0 10 -262144 -1 -1 0
1;
#N canvas 0 22 450 278 (subpatch) 0;
#X array a-measures-A 40 float 1;
#A 0 0 0 0 0 0 0 0 0 0 0 0 0 0 0 0 0 0 0 0 0 0 0 0 0 0 0 0 0 0 0 0
0 0 0 0 0 0 0 0 0;
#X coords 0 1 39 0 400 20 1 0 0;
#X restore 613 455 graph;
#X obj 71 268 tabread a-original-A;
#N canvas 0 22 450 278 (subpatch) 0;
#X coords 0 1 39 0 40 20 1 0 0;
#X restore 66 131 graph;
#X obj 71 292 pack 0 200;
#N canvas 0 22 450 278 (subpatch) 0;
#X coords 0 1 39 0 60 20 1 0 0;
#X restore 106 131 graph;
#N canvas 0 22 450 278 (subpatch) 0;
#X coords 0 1 39 0 60 20 1 0 0;
#X restore 166 131 graph;
#N canvas 0 22 450 278 (subpatch) 0;
#X coords 0 1 39 0 60 20 1 0 0;
#X restore 226 131 graph;
#N canvas 0 22 450 278 (subpatch) 0;
#X coords 0 1 39 0 60 20 1 0 0;
#X restore 286 131 graph;
#N canvas 0 22 450 278 (subpatch) 0;
#X coords 0 1 39 0 60 20 1 0 0;
#X restore 346 131 graph;
#N canvas 0 22 450 278 (subpatch) 0;
#X coords 0 1 39 0 30 20 1 0 0;
#X restore 406 131 graph;
#N canvas 0 22 450 278 (subpatch) 0;
#X coords 0 1 39 0 10 20 1 0 0;
#X restore 56 131 graph;
#N canvas 0 22 450 278 (subpatch) 0;
#X coords 0 1 39 0 20 20 1 0 0;
#X restore 436 131 graph;
#X text 53 150 1;
#X text 65 150 2;
#X text 105 150 3;
#X text 165 150 4;
#X text 225 150 5;
#X text 285 150 6;
#X text 345 150 7;
#X text 405 150 8;
#X text 435 150 9;
#X connect 2 0 29 0;
#X connect 3 0 4 0;
#X connect 5 0 20 1;
#X connect 6 0 7 0;
#X connect 6 1 5 0;
#X connect 7 0 20 0;
#X connect 8 0 7 1;
#X connect 9 0 10 0;
#X connect 9 0 8 0;
#X connect 10 0 11 0;
#X connect 11 0 8 0;
#X connect 12 0 15 0;
#X connect 12 0 18 0;
#X connect 13 0 12 0;
#X connect 15 0 16 0;
#X connect 16 0 27 0;
#X connect 17 0 9 0;
#X connect 17 0 22 0;
#X connect 18 0 17 0;
#X connect 19 0 5 1;
#X connect 19 0 6 0;
#X connect 19 0 14 0;
#X connect 23 0 24 0;
#X connect 25 0 26 0;
#X connect 26 0 23 0;
#X connect 27 0 17 1;
#X connect 29 0 31 0;
#X restore 840 5 pd score_electronics;
#X obj 450 369 hsl 128 15 0 127 0 0 empty empty empty -2 -8 0 10 -262144
-1 -1 0 1;
#X msg 447 419 \; antescofo-mess tempo \$1 \;;
#X obj 447 321 tgl 15 0 empty empty empty 17 7 0 10 -262144 -1 -1 0
1;
#X obj 447 341 metro 1000;
#X floatatom 447 389 5 0 0 0 - - -;
#N canvas 0 22 1003 617 click 0;
#N canvas 0 0 1440 878 (subpatch) 0;
#X array click 100 float 1;
#A 0 0 0.0387244 0.0706152 0.148064 0.216401 0.312074 0.482917 0.601368
0.847383 0.444193 -5.96046e-08 -0.0706153 -0.282461 -0.460138 -0.569478
-0.667428 -0.724376 -0.840549 -0.929388 -0.872437 -0.284736 -0.19362
-0.104781 -0.0683346 0.018226 0.0637842 0.186791 0.298409 0.425972
0.492031 0.656041 0.765381 0.87472 0.993172 0.785882 0.694765 0.457863
0.38497 0.305243 0.218682 0.179958 0.0865633 -0.73804 -0.605922 -0.526195
-0.435078 -0.343962 -0.205009 -0.125282 0.0159481 0.100231 0.170846
0.257407 0.355357 0.453307 0.942857 0.23235 0.168568 -0.0409997 -0.239178
-0.341684 -0.842857 -0.676537 -0.512527 -0.166285 -0.0250543 0.0751737
0.928571 0.448751 0.348523 0.223238 0.137816 0.0523946 -0.0432776 -0.100225
-0.168563 -0.2369 -0.282458 -0.366741 -0.412299 -0.494304 0.0774516
0.06834 0.0569504 0.018226 -0.00455314 -0.0387218 -0.0615009 -0.08428
-0.12756 -0.170841 -0.211843 -0.230066 -0.257401 -0.264235 0.0296155
-0.102506 -0.0592257 -0.0296129 0;
#X coords 0 1 99 -1 200 140 1;
#X restore 251 63 graph;
#X obj 247 330 tabplay~ click;
#X msg 247 306 bang;
#X obj 247 378 dac~;
#X obj 247 275 r measure;
#X msg 399 309 bang;
#X obj 399 381 dac~;
#X obj 399 357 *~ 0.1;
#X obj 399 333 tabplay~ click-2;
#X obj 399 278 r event_number;
#N canvas 0 0 1440 878 (subpatch) 0;
#X array click-2 100 float 1;
#A 0 0 0.0387244 0.0142857 0.0285714 0.0285714 0.0428571 0.0285714
0.0285714 0.0285714 0.0285714 0.0714286 0.0714286 0.0714286 0.0714286
0.0857143 0.1 0.114286 0.114286 0.128571 0.142857 0.157143 0.185714
0.214285 0.257142 0.285714 0.314285 0.328571 0.342857 0.357142 0.357142
0.357142 0.357142 0.342857 0.328571 0.3 0.285714 0.257142 0.228571
0.214285 0.185714 0.171428 0.142857 0.128571 0.1 0.0857143 0.0714286
0.0571429 0.0285715 0.0285715 0.0142859 -0.0285712 -0.0285712 -0.0571426
-0.0857139 -0.114285 -0.142857 -0.157142 -0.185714 -0.214285 -0.242856
-0.257142 -0.285713 -0.299999 -0.314285 -0.328571 -0.328571 -0.342856
-0.342856 -0.342856 -0.342856 -0.342856 -0.328571 -0.314285 -0.299999
-0.285713 -0.257142 -0.242856 -0.228571 -0.199999 -0.185714 -0.171428
-0.157142 -0.142857 -0.114285 -0.0999996 -0.0857139 -0.0571426 -0.0428569
-0.0285712 -0.0285712 -0.0142855 1.78814e-07 0.0142859 0.0142859 0.0285715
0.0296155 -0.102506 -0.0592257 -0.0296129 0;
#X coords 0 1 99 -1 200 140 1;
#X restore 462 66 graph;
#X obj 167 168 * 0.1;
#X obj 163 103 tgl 15 0 empty empty empty 17 7 0 10 -262144 -1 -1 0
1;
#X obj 247 354 *~ 0.2;
#X obj 120 169 * 0.2;
#X obj 102 31 loadbang;
#X msg 102 57 0;
#X connect 1 0 13 0;
#X connect 2 0 1 0;
#X connect 4 0 2 0;
#X connect 5 0 8 0;
#X connect 7 0 6 0;
#X connect 7 0 6 1;
#X connect 8 0 7 0;
#X connect 9 0 5 0;
#X connect 11 0 7 1;
#X connect 12 0 11 0;
#X connect 12 0 14 0;
#X connect 13 0 3 0;
#X connect 13 0 3 1;
#X connect 14 0 13 1;
#X connect 15 0 16 0;
#X connect 16 0 12 0;
#X coords 0 -1 1 1 80 20 1 100 100;
#X restore 275 295 pd click;
#N canvas 0 22 700 500 declare 0;
#X obj 14 19 declare -lib else;
#X obj 16 54 declare -lib antescofo;
#X restore 289 62 pd declare;
#X connect 28 0 93 0;
#X connect 30 0 29 0;
#X connect 31 0 30 0;
#X connect 32 0 34 0;
#X connect 33 0 32 0;
#X connect 35 0 37 0;
#X connect 36 0 35 0;
#X connect 38 0 31 0;
#X connect 39 0 33 0;
#X connect 40 0 36 0;
#X connect 42 0 41 0;
#X connect 43 0 42 0;
#X connect 44 0 43 0;
#X connect 46 0 49 0;
#X connect 47 0 45 0;
#X connect 48 0 33 0;
#X connect 49 0 47 0;
#X connect 51 0 50 0;
#X connect 52 0 54 0;
#X connect 53 0 55 0;
#X connect 54 0 53 0;
#X connect 56 0 64 0;
#X connect 57 0 56 0;
#X connect 58 0 57 0;
#X connect 59 0 57 0;
#X connect 60 0 62 0;
#X connect 61 0 65 0;
#X connect 62 0 61 0;
#X connect 63 0 36 0;
#X connect 66 0 68 0;
#X connect 67 0 66 0;
#X connect 70 0 69 0;
#X connect 71 0 43 0;
#X connect 72 0 74 0;
#X connect 73 0 72 0;
#X connect 76 0 77 0;
#X connect 79 0 78 0;
#X connect 80 0 78 0;
#X connect 81 0 91 0;
#X connect 82 0 91 0;
#X connect 83 0 88 0;
#X connect 84 0 83 0;
#X connect 85 0 90 0;
#X connect 86 0 87 0;
#X connect 92 0 143 0;
#X connect 93 0 94 0;
#X connect 94 0 128 0;
#X connect 102 0 136 0;
#X connect 106 0 107 0;
#X connect 107 0 138 0;
#X connect 125 0 89 0;
#X connect 129 0 145 0;
#X connect 134 0 103 0;
#X connect 135 0 75 0;
#X connect 136 0 128 1;
#X connect 137 0 105 0;
#X connect 138 0 139 0;
#X connect 139 0 137 0;
#X connect 142 0 31 0;
#X connect 146 0 144 0;
#X connect 151 0 9 0;
#X connect 155 0 159 0;
#X connect 157 0 158 0;
#X connect 158 0 155 0;
#X connect 159 0 156 0;
#X coords 0 878 1 877 424 450 0;
