#N canvas 0 0 441 472 12;
#X declare -lib else;
#X declare -lib antescofo;
#X declare -lib ceammc;
#N canvas 191 137 825 630 score_follower 0;
#X obj 354 398 cnv 15 200 100 empty empty Basic 3 7 0 14 -233017 -66577
0;
#X msg 413 400 start;
#X msg 453 400 stop;
#X msg 492 400 info;
#X msg 362 448 version;
#X msg 478 436 actions on;
#X msg 478 458 actions off;
#X obj 435 479 s antescofo-mess;
#X obj 354 295 cnv 15 200 100 empty empty Scoring 3 7 0 14 -233017
-66577 0;
#X msg 400 335 reloadscore;
#X msg 336 363 printscore;
#X msg 358 315 printactions;
#X obj 482 298 bng 15 250 50 0 empty empty empty 17 7 0 10 -191407
-1 -1;
#X obj 482 315 openpanel;
#X msg 482 334 score \$1;
#X obj 432 376 s antescofo-mess;
#X obj 558 295 cnv 15 200 203 empty empty Score_Browsing 3 7 0 14 -233017
-66577 0;
#X msg 618 316 nextevent;
#X msg 642 335 nextlabel;
#X msg 655 355 nextaction;
#X msg 665 376 previousevent;
#X msg 672 398 previouslabel;
#X msg 705 455 killall;
#X obj 655 479 s antescofo-mess;
#X obj 148 219 r antescofo-mess;
#N canvas 20 50 1123 742 dispatch 0;
#X obj 106 35 inlet;
#X obj 106 57 route cue calibration;
#X obj 106 171 send antescofo-labels;
#X obj 167 143 send antescofo_calib;
#X obj 229 119 outlet;
#X obj 253 95 send ante_pos;
#X obj 362 56 r print;
#X obj 362 77 print;
#X connect 0 0 1 0;
#X connect 1 0 2 0;
#X connect 1 1 3 0;
#X connect 1 2 4 0;
#X connect 1 2 5 0;
#X connect 6 0 7 0;
#X restore -48 316 pd dispatch;
#X obj 19 424 s ante_tempo;
#X obj -9 452 nbx 5 14 -1e+37 1e+37 0 0 empty empty Real-time_Tempo_BPM
0 25 0 10 -259565 -1 -1 17 256;
#X symbolatom 109 498 15 0 0 3 Event_Label - -;
#X obj 161 448 nbx 5 14 -1e+37 1e+37 0 0 empty empty Position_in_beats
0 25 0 10 -228856 -1 -1 8 256;
#X obj 225 310 bng 15 250 50 0 empty empty Succesful_score_load 0 25
0 10 -228856 -1 -1;
#X symbolatom 565 418 10 0 0 0 - - -;
#X msg 565 437 gotolabel \$1;
#X obj 94 114 tgl 15 0 empty empty turn_follower_on/off 17 7 0 10 -228856
-1 -1 0 1;
#X msg 94 139 suivi \$1;
#N canvas 137 261 723 711 Observation 0;
#X obj 27 209 r audio-mess;
#X obj 110 508 outlet~;
#X obj 539 53 loadbang;
#X msg 539 75 analysis 4096 512;
#X obj 539 97 s antescofo-mess;
#X text 536 28 Analysis Parameters:;
#X text 171 508 >> to Antescofo~;
#X msg 53 330 start;
#X obj 125 159 tgl 15 0 empty empty empty 17 7 0 10 -262144 -1 -1 0
1;
#X obj 126 83 t f b;
#X msg 7 113 open ./preludio/music_4.wav;
#X obj 110 241 readsf~ 2;
#X obj 160 292 throw~ audio_testL;
#X obj 183 270 throw~ audio_testR;
#X msg 158 149 open ./preludio/measure9-21.wav;
#X obj 16 10 r test_midi;
#X obj 126 48 r test_midi_m9;
#X obj 17 80 t f b;
#X connect 0 0 11 0;
#X connect 2 0 3 0;
#X connect 3 0 4 0;
#X connect 7 0 11 0;
#X connect 8 0 11 0;
#X connect 9 0 8 0;
#X connect 9 1 14 0;
#X connect 10 0 11 0;
#X connect 11 0 1 0;
#X connect 11 0 12 0;
#X connect 11 1 13 0;
#X connect 11 1 1 0;
#X connect 14 0 11 0;
#X connect 15 0 17 0;
#X connect 16 0 9 0;
#X connect 17 0 8 0;
#X connect 17 1 10 0;
#X restore 256 128 pd Observation;
#X obj 208 378 stripnote;
#X obj 203 405 nbx 5 14 -1e+37 1e+37 0 0 empty empty MIDI_Pitch 0 25
0 10 -44450 -1 -1 83 256;
#X obj 269 405 nbx 5 14 -1e+37 1e+37 0 0 empty empty Velocity 0 25
0 10 -228856 -1 -1 110 256;
#X obj -48 336 nbx 5 14 -1e+37 1e+37 0 0 empty empty Event_Number 0
25 0 10 -228856 -1 -1 7 256;
#X obj -66 -122 cnv 15 824 60 empty empty Antescofo_Pd_Help 20 12 0
14 -4032 -66577 0;
#X text -32 -81 By MuTant Team \, Ircam \, 2007-2015.;
#X text 326 -81 http://forumnet.ircam.fr/user-group/antescofo;
#X text -33 -98 Antescofo - Anticipatory Score Following (v0.8);
#X text -38 -10 1 Load a score;
#N canvas 0 22 450 278 (subpatch) 0;
#X array Tempogram(BPM) 100 float 2;
#X coords 0 140 99 10 200 80 1 0 0;
#X restore 467 68 graph;
#N canvas 20 50 1224 768 Tempogram 0;
#X obj 137 124 t f b;
#X obj 272 160 f;
#X obj 296 160 + 1;
#X obj 137 62 r ante_tempo;
#X obj 137 211 tabwrite Tempogram(BPM);
#X obj 272 180 mod 100;
#X obj 137 103 spigot;
#X obj 170 82 inlet;
#X connect 0 0 4 0;
#X connect 0 1 1 0;
#X connect 1 0 2 0;
#X connect 1 0 5 0;
#X connect 2 0 1 1;
#X connect 3 0 6 0;
#X connect 5 0 4 1;
#X connect 6 0 0 0;
#X connect 7 0 6 1;
#X restore 490 34 pd Tempogram;
#X text 677 137 10;
#X obj 468 35 tgl 15 0 empty empty empty 17 7 0 10 -228856 -1 -1 0
1;
#X text 672 59 150;
#X msg -50 15 score music.asco.txt;
#X obj 256 108 tgl 15 0 empty empty empty 17 7 0 10 -262144 -1 -1 0
1;
#X text 254 87 Teste (midi);
#X msg -19 49 start;
#X msg 16 91 play;
#X msg 409 227 tempo \$1;
#X obj 412 205 hsl 128 15 0 127 0 0 empty empty empty -2 -8 0 10 -262144
-1 -1 0 1;
#X obj 110 546 s measure;
#X obj -52 377 s event_number;
#X obj 295 543 s midi_note;
#X obj 265 23 r test_midi;
#X obj 295 496 f 0;
#X floatatom 295 520 5 0 0 0 - - -;
#X obj 271 497 bng 15 250 50 0 empty empty empty 17 7 0 10 -262144
-1 -1;
#X obj 12 269 antescofo~ @outlets beatnum midiout;
#X msg 374 259 printfwd;
#X msg 281 182 verbosity 4;
#X connect 1 0 7 0;
#X connect 2 0 7 0;
#X connect 3 0 7 0;
#X connect 4 0 7 0;
#X connect 5 0 7 0;
#X connect 6 0 7 0;
#X connect 9 0 15 0;
#X connect 10 0 15 0;
#X connect 11 0 15 0;
#X connect 12 0 13 0;
#X connect 13 0 14 0;
#X connect 14 0 15 0;
#X connect 17 0 23 0;
#X connect 18 0 23 0;
#X connect 19 0 23 0;
#X connect 20 0 23 0;
#X connect 21 0 23 0;
#X connect 22 0 23 0;
#X connect 24 0 64 0;
#X connect 25 0 39 0;
#X connect 25 0 58 0;
#X connect 28 0 57 0;
#X connect 31 0 32 0;
#X connect 32 0 23 0;
#X connect 33 0 34 0;
#X connect 34 0 64 0;
#X connect 35 0 64 0;
#X connect 36 0 37 0;
#X connect 36 1 38 0;
#X connect 37 0 61 1;
#X connect 48 0 46 0;
#X connect 50 0 64 0;
#X connect 53 0 64 0;
#X connect 54 0 64 0;
#X connect 55 0 64 0;
#X connect 56 0 55 0;
#X connect 60 0 51 0;
#X connect 61 0 62 0;
#X connect 62 0 59 0;
#X connect 63 0 61 0;
#X connect 64 0 25 0;
#X connect 64 0 63 0;
#X connect 64 1 26 0;
#X connect 64 1 27 0;
#X connect 64 2 28 0;
#X connect 64 3 29 0;
#X connect 64 4 36 0;
#X connect 64 5 30 0;
#X connect 65 0 15 0;
#X connect 66 0 64 0;
#X restore 298 25 pd score_follower;
#X obj 0 -405 cnv 15 422 60 empty empty empty 20 12 0 14 -228856 -66577
0;
#X symbolatom 96 -190 10 0 0 3 position measure -;
#X obj 201 -190 nbx 5 18 -1e+37 1e+37 0 0 empty event_number event_number
0 25 0 12 -212212 -1 -1 7 256;
#X obj 25 -310 bng 35 250 50 0 load_score empty load 6 18 0 10 -128992
-1 -1;
#X obj 145 -259 bng 20 250 50 0 play_along_score empty play_along -15
27 0 10 -1317 -1 -1;
#X obj 90 -309 tgl 20 0 follow_score empty follow -8 27 0 10 -262144
-1 -1 0 1;
#X obj 207 -308 bng 35 250 50 0 stop_score empty stop 6 17 0 10 -258715
-262144 -1;
#X symbolatom 25 -190 3 0 0 3 section section -;
#X symbolatom 272 -303 12 0 0 3 start_from_measure - start_from_measure
;
#X obj 280 -388 bng 20 250 50 0 audio_settings empty audio_settings
-35 -8 0 10 -228856 -1 -1;
#X obj 311 -190 nbx 5 18 -1e+37 1e+37 0 0 empty ante_tempo actual_tempo
0 25 0 12 -212212 -1 -1 17 256;
#X text 19 -399 Prelude \; for organ and electronics \; 2020;
#X obj 346 -388 bng 20 250 50 0 ready empty ready -4 -8 0 10 -257985
-1 -1;
#X text -1 -360 ____________________________________________________________
;
#X text -1 -150 ____________________________________________________________
;
#X text 24 -337 Score follower;
#X text -1 -9 ____________________________________________________________
;
#X obj 100 -103 vsl 20 80 0 1 0 0 output electronics_volume empty 0
-9 0 10 -262144 -1 -1 6090 1;
#X obj 25 -103 vsl 20 80 0 1 0 0 input organ_volume empty 0 -9 0 10
-262144 -1 -1 790 1;
#N canvas 279 66 1431 841 audio 0;
#X obj 481 8 *~;
#X obj 763 -11 line~;
#X obj 763 -56 pack 0 100;
#X obj 763 -85 r input;
#X obj 865 713 xdac~ 1:2;
#X obj 1040 205 phase->rad~;
#X obj 798 246 hoa.rotate~ 3, f 35;
#N canvas 249 270 830 588 catch_amb~ 0;
#X obj 24 55 catch~ amb_1;
#X obj 114 55 catch~ amb_2;
#X obj 204 55 catch~ amb_3;
#X obj 294 55 catch~ amb_4;
#X obj 384 55 catch~ amb_5;
#X obj 474 55 catch~ amb_6;
#X obj 564 55 catch~ amb_7;
#X obj 24 127 outlet~;
#X obj 114 127 outlet~;
#X obj 204 127 outlet~;
#X obj 294 127 outlet~;
#X obj 384 127 outlet~;
#X obj 474 127 outlet~;
#X obj 564 127 outlet~;
#X obj 713 62 r ambisonics;
#X obj 124 196 tgl 15 0 empty empty empty 17 7 0 10 -262144 -1 -1 0
1;
#X obj 124 216 s ambisonics;
#X connect 0 0 7 0;
#X connect 1 0 8 0;
#X connect 2 0 9 0;
#X connect 3 0 10 0;
#X connect 4 0 11 0;
#X connect 5 0 12 0;
#X connect 6 0 13 0;
#X connect 15 0 16 0;
#X restore 797 214 pd catch_amb~;
#X f 30;
#X obj 1040 160 lfo.saw~ 0.02;
#X obj 541 87 dac~;
#X obj 481 -32 catch~ audio_testL;
#X obj 616 -32 catch~ audio_testR;
#X obj 616 8 *~;
#X obj 799 307 hoa.2d.decoder~ 3 binaural @crop 64;
#X obj 921 607 *~;
#X obj 867 608 *~;
#X obj 1011 573 line~;
#X obj 1011 548 pack 0 100;
#X obj 1011 519 r output;
#X obj 989 634 env~;
#X obj 989 658 - 100;
#X obj 989 682 s vu_output;
#N canvas 0 22 450 300 inv_amp 0;
#X obj 235 77 inlet;
#X obj 235 112 pack 0 100;
#X obj 235 136 line~;
#X obj 235 160 expr~ 1 - $v1;
#X obj 91 113 inlet~;
#X obj 155 113 inlet~;
#X obj 91 187 *~;
#X obj 155 187 *~;
#X obj 127 230 outlet~;
#X connect 0 0 1 0;
#X connect 1 0 2 0;
#X connect 2 0 3 0;
#X connect 2 0 7 1;
#X connect 3 0 6 1;
#X connect 4 0 6 0;
#X connect 5 0 7 0;
#X connect 6 0 8 0;
#X connect 7 0 8 0;
#X restore 724 459 pd inv_amp;
#X obj 791 425 r rev_wet;
#X obj 1075 433 r rev_wet;
#N canvas 0 22 450 300 inv_amp 0;
#X obj 235 77 inlet;
#X obj 235 112 pack 0 100;
#X obj 235 136 line~;
#X obj 235 160 expr~ 1 - $v1;
#X obj 91 113 inlet~;
#X obj 155 113 inlet~;
#X obj 91 187 *~;
#X obj 155 187 *~;
#X obj 127 230 outlet~;
#X connect 0 0 1 0;
#X connect 1 0 2 0;
#X connect 2 0 3 0;
#X connect 2 0 7 1;
#X connect 3 0 6 1;
#X connect 4 0 6 0;
#X connect 5 0 7 0;
#X connect 6 0 8 0;
#X connect 7 0 8 0;
#X restore 1008 468 pd inv_amp;
#X obj 760 395 else/plate.rev~ 50 0.9 0.25 0.8 0.8;
#X obj 1041 402 else/plate.rev~ 50 0.9 0.25 0.8 0.8;
#X connect 0 0 9 0;
#X connect 1 0 0 1;
#X connect 1 0 12 1;
#X connect 2 0 1 0;
#X connect 3 0 2 0;
#X connect 5 0 6 7;
#X connect 6 0 13 0;
#X connect 6 1 13 1;
#X connect 6 2 13 2;
#X connect 6 3 13 3;
#X connect 6 4 13 4;
#X connect 6 5 13 5;
#X connect 6 6 13 6;
#X connect 7 0 6 0;
#X connect 7 1 6 1;
#X connect 7 2 6 2;
#X connect 7 3 6 3;
#X connect 7 4 6 4;
#X connect 7 5 6 5;
#X connect 7 6 6 6;
#X connect 8 0 5 0;
#X connect 10 0 0 0;
#X connect 11 0 12 0;
#X connect 12 0 9 1;
#X connect 13 0 22 0;
#X connect 13 0 26 0;
#X connect 13 1 25 0;
#X connect 13 1 27 0;
#X connect 14 0 19 0;
#X connect 14 0 4 1;
#X connect 15 0 4 0;
#X connect 16 0 14 1;
#X connect 16 0 15 1;
#X connect 17 0 16 0;
#X connect 18 0 17 0;
#X connect 19 0 20 0;
#X connect 20 0 21 0;
#X connect 22 0 15 0;
#X connect 23 0 22 2;
#X connect 24 0 25 2;
#X connect 25 0 14 0;
#X connect 26 0 22 1;
#X connect 27 0 25 1;
#X restore 185 6 pd audio;
#N canvas 629 90 371 486 electronics 0;
#N canvas 20 11 1334 625 oscilators 0;
#X obj 675 174 oscilator 415.305 2 349.228;
#X obj 675 197 oscilator 523.251 3 415.305;
#X obj 675 220 oscilator 659.255 4 761.672;
#X obj 675 243 oscilator 761.672 5 659.255;
#X obj 675 266 oscilator 806.964 6 761.672;
#X obj 675 289 oscilator 830.609 7 806.964;
#X obj 675 312 oscilator 987.767 8 830.6;
#X obj 675 335 oscilator 1108.73 9 987.767;
#X obj 675 359 oscilator 1141.22 10 1141.22;
#X obj 675 381 oscilator 1396.91 11 1141.22;
#X obj 675 404 oscilator 1479.98 12 1396.91;
#X obj 675 427 oscilator 1523.34 13 1479.98;
#X obj 675 450 oscilator 1661.22 14 1523.34;
#X obj 399 540 hoa.2d.map~ 3 15, f 35;
#X obj 399 359 r to_hoa.map;
#X obj 146 206 msg mute;
#X msg 146 162 0 \$1 \, 1 \$2 \, 2 \$3 \, 3 \$4 \, 4 \$5 \, 5 \$6 \,
6 \$7 \, 7 \$8 \, 8 \$9 \, 9 \$10 \, 10 \$11 \, 11 \$12 \, 12 \$13
\, 13 \$14 \, 14 \$15;
#X obj 146 138 ui.radio @size 239 15 @receive "(null)" @send "(null)"
@pinned 0 @presetname "ui.radio.1" @mouse_events 0 @background_color
0.93 0.93 0.93 1 @border_color 0.6 0.6 0.6 1 @label_color 0 0 0 1 @active_color
0 0.75 1 1 @fontname "Helvetica" @fontweight "normal" @fontslant "roman"
@fontsize 11 @label "(null)" @label_inner 0 @label_side "top" @label_align
"left" @label_valign "top" @label_margins 0 0 @nitems 15 @mode 1;
#X text 108 135 Mute;
#X obj 192 582 throw~ amb_1;
#X obj 293 582 throw~ amb_2;
#X obj 383 582 throw~ amb_3;
#X obj 473 582 throw~ amb_4;
#X obj 563 582 throw~ amb_5;
#X obj 653 582 throw~ amb_6;
#X obj 743 582 throw~ amb_7;
#X obj 675 151 oscilator 349.228 1 269.292;
#X obj 675 127 oscilator 269.292 0 254.177;
#X connect 0 0 13 2;
#X connect 1 0 13 3;
#X connect 2 0 13 4;
#X connect 3 0 13 5;
#X connect 4 0 13 6;
#X connect 5 0 13 7;
#X connect 6 0 13 8;
#X connect 7 0 13 9;
#X connect 8 0 13 10;
#X connect 9 0 13 11;
#X connect 10 0 13 12;
#X connect 11 0 13 13;
#X connect 12 0 13 14;
#X connect 13 0 19 0;
#X connect 13 1 20 0;
#X connect 13 2 21 0;
#X connect 13 3 22 0;
#X connect 13 4 23 0;
#X connect 13 5 24 0;
#X connect 13 6 25 0;
#X connect 14 0 13 0;
#X connect 15 0 13 0;
#X connect 16 0 15 0;
#X connect 17 0 16 0;
#X connect 26 0 13 1;
#X connect 27 0 13 0;
#X coords 0 625 1 624 300 40 0;
#X restore 28 33 pd oscilators;
#N canvas 20 39 1420 828 random_array1 0;
#X obj 93 191 tgl 15 0 empty empty empty 17 7 0 10 -262144 -1 -1 0
1;
#X floatatom 125 188 5 0 0 0 - - -;
#X obj 125 83 r rand_tempo;
#X obj 125 164 line;
#X floatatom 171 188 5 0 0 0 - - -;
#X obj 171 164 line;
#X obj 171 112 r rand_dyn_range;
#X floatatom 219 189 5 0 0 0 - - -;
#X obj 219 165 line;
#X obj 219 141 r rand_dyn_min;
#X obj 93 52 r rand_amp_on;
#N canvas 20 50 1344 779 components_amp 0;
#X obj 212 521 tabwrite array1;
#X floatatom 314 273 5 0 0 0 - - -;
#X obj 80 298 *;
#X floatatom 116 455 5 0 0 0 - - -;
#X obj 80 165 bng 15 250 50 0 empty empty empty 17 7 0 10 -262144 -1
-1;
#X obj 53 87 metro 500;
#X obj 258 68 inlet;
#X obj 53 66 tgl 15 0 empty empty empty 17 7 0 10 -262144 -1 -1 0 1
;
#X obj 52 38 inlet;
#X obj 212 465 pack \$1 \$2;
#X obj 212 489 line;
#X obj 130 213 random 25;
#X obj 350 81 inlet;
#X text 50 12 on off;
#X text 202 33 metro ms;
#X text 321 41 dynamic range;
#X obj 60 190 0.5;
#X obj 60 219 / 25;
#X obj 92 339 *;
#X obj 431 82 inlet;
#X text 430 44 minimum;
#X obj 143 314 / 100;
#X obj 108 389 +;
#X obj 109 419 clip 0 0.5;
#X obj 163 356 / 200;
#X obj 144 263 pack \$1 1000;
#X obj 144 287 line;
#X obj 314 215 random 15;
#X obj 59 683 t b b b;
#X obj 139 702 f;
#X obj 171 702 f;
#X obj 203 702 f;
#X obj 139 672 unpack f f f;
#X text 797 62 rand_amp_on: turn on/off the random amplitude of components
\; rand_tempo: time (ms) to change one amplitude \; rand_dyn_range:
dynamic range of the amplitude \; rand_dyn_min: min value of the dynamic
range \;;
#X obj 106 825 tabwrite array1;
#X obj 69 743 pack \$1 \$2;
#X obj 69 767 line;
#X text 70 618 Notes written in the score;
#X floatatom 106 791 5 0 0 0 - - -;
#X floatatom 201 787 5 0 0 0 - - -;
#X obj 133 646 r note;
#N canvas 20 50 969 617 receive_notes 0;
#X obj 39 37 r note_1;
#X obj 39 63 line;
#X obj 39 87 tabwrite array1;
#X obj 141 64 1;
#X obj 179 63 line;
#X obj 179 87 tabwrite array1;
#X obj 319 63 line;
#X obj 319 87 tabwrite array1;
#X obj 459 63 line;
#X obj 459 87 tabwrite array1;
#X obj 39 143 line;
#X obj 39 167 tabwrite array1;
#X obj 179 143 line;
#X obj 179 167 tabwrite array1;
#X obj 319 143 line;
#X obj 319 167 tabwrite array1;
#X obj 459 143 line;
#X obj 459 167 tabwrite array1;
#X obj 39 223 line;
#X obj 39 247 tabwrite array1;
#X obj 179 223 line;
#X obj 179 247 tabwrite array1;
#X obj 319 223 line;
#X obj 319 247 tabwrite array1;
#X obj 459 223 line;
#X obj 459 247 tabwrite array1;
#X obj 39 303 line;
#X obj 39 327 tabwrite array1;
#X obj 179 303 line;
#X obj 179 327 tabwrite array1;
#X obj 319 303 line;
#X obj 319 327 tabwrite array1;
#X obj 179 37 r note_2;
#X obj 319 37 r note_3;
#X obj 459 37 r note_4;
#X obj 39 117 r note_5;
#X obj 179 117 r note_6;
#X obj 319 117 r note_7;
#X obj 459 117 r note_8;
#X obj 39 197 r note_9;
#X obj 179 197 r note_10;
#X obj 319 197 r note_11;
#X obj 459 197 r note_12;
#X obj 39 277 r note_13;
#X obj 179 277 r note_14;
#X obj 319 277 r note_15;
#X obj 281 64 2;
#X obj 421 64 3;
#X obj 561 64 4;
#X obj 141 144 5;
#X obj 281 144 6;
#X obj 421 144 7;
#X obj 561 144 8;
#X obj 141 224 9;
#X obj 281 224 10;
#X obj 421 224 11;
#X obj 561 224 12;
#X obj 141 304 13;
#X obj 281 304 14;
#X obj 421 304 15;
#X obj 643 44 bng 15 250 50 0 empty empty empty 17 7 0 10 -262144 -1
-1;
#X obj 643 20 loadbang;
#X connect 0 0 1 0;
#X connect 1 0 2 0;
#X connect 3 0 2 1;
#X connect 4 0 5 0;
#X connect 6 0 7 0;
#X connect 8 0 9 0;
#X connect 10 0 11 0;
#X connect 12 0 13 0;
#X connect 14 0 15 0;
#X connect 16 0 17 0;
#X connect 18 0 19 0;
#X connect 20 0 21 0;
#X connect 22 0 23 0;
#X connect 24 0 25 0;
#X connect 26 0 27 0;
#X connect 28 0 29 0;
#X connect 30 0 31 0;
#X connect 32 0 4 0;
#X connect 33 0 6 0;
#X connect 34 0 8 0;
#X connect 35 0 10 0;
#X connect 36 0 12 0;
#X connect 37 0 14 0;
#X connect 38 0 16 0;
#X connect 39 0 18 0;
#X connect 40 0 20 0;
#X connect 41 0 22 0;
#X connect 42 0 24 0;
#X connect 43 0 26 0;
#X connect 44 0 28 0;
#X connect 45 0 30 0;
#X connect 46 0 5 1;
#X connect 47 0 7 1;
#X connect 48 0 9 1;
#X connect 49 0 11 1;
#X connect 50 0 13 1;
#X connect 51 0 15 1;
#X connect 52 0 17 1;
#X connect 53 0 19 1;
#X connect 54 0 21 1;
#X connect 55 0 23 1;
#X connect 56 0 25 1;
#X connect 57 0 27 1;
#X connect 58 0 29 1;
#X connect 59 0 31 1;
#X connect 60 0 48 0;
#X connect 60 0 52 0;
#X connect 60 0 56 0;
#X connect 60 0 47 0;
#X connect 60 0 59 0;
#X connect 60 0 55 0;
#X connect 60 0 51 0;
#X connect 60 0 58 0;
#X connect 60 0 54 0;
#X connect 60 0 50 0;
#X connect 60 0 46 0;
#X connect 60 0 57 0;
#X connect 60 0 53 0;
#X connect 60 0 49 0;
#X connect 60 0 3 0;
#X connect 61 0 60 0;
#X restore 561 40 pd receive_notes;
#X connect 1 0 0 1;
#X connect 2 0 18 0;
#X connect 3 0 9 0;
#X connect 4 0 11 0;
#X connect 4 0 16 0;
#X connect 4 0 27 0;
#X connect 5 0 4 0;
#X connect 6 0 5 1;
#X connect 6 0 9 1;
#X connect 7 0 5 0;
#X connect 8 0 7 0;
#X connect 9 0 10 0;
#X connect 10 0 0 0;
#X connect 11 0 2 1;
#X connect 12 0 25 0;
#X connect 16 0 17 0;
#X connect 17 0 2 0;
#X connect 18 0 22 0;
#X connect 19 0 24 0;
#X connect 21 0 18 1;
#X connect 22 0 23 0;
#X connect 23 0 3 0;
#X connect 24 0 22 1;
#X connect 25 0 26 0;
#X connect 26 0 21 0;
#X connect 27 0 1 0;
#X connect 28 0 30 0;
#X connect 28 1 29 0;
#X connect 28 2 31 0;
#X connect 29 0 34 1;
#X connect 29 0 39 0;
#X connect 30 0 35 0;
#X connect 31 0 35 1;
#X connect 32 0 29 1;
#X connect 32 1 30 1;
#X connect 32 2 31 1;
#X connect 35 0 36 0;
#X connect 36 0 34 0;
#X connect 36 0 38 0;
#X connect 40 0 32 0;
#X connect 40 0 28 0;
#X restore 63 247 pd components_amp;
#X obj 253 322 s rand_tempo_monitor;
#X obj 253 299 s rand_dyn_range_monitor;
#X obj 276 223 s rand_dyn_min_monitor;
#X obj 565 216 array set array1;
#X obj 566 161 bng 15 250 50 0 empty empty empty 17 7 0 10 -262144
-1 -1;
#X obj 566 115 tgl 15 0 empty empty empty 17 7 0 10 -262144 -1 -1 0
1;
#X obj 566 135 metro 5000;
#X msg 565 183 0 0 0 0 0 0 0 0 0 0 0 0 0 0 0;
#X obj 566 62 r array1_zero;
#X obj 566 87 unpack f f;
#X obj 681 142 r array1_zero_now;
#X obj 888 280 array set array1;
#X obj 888 155 r initial_chord;
#X obj 253 274 +;
#X obj 1008 155 r second_chord;
#X msg 1008 225 0.2 0.2 0.2 0.2 0.2 0.2 0.2 0.2 0.2 0.2 0.2 0.2 0.2
0.5 0.2;
#X msg 888 180 0.2 0.13 0.14 0.15 0.1 0.1 0.1 0.11 0.12 0.13 0.14 0.2
0.26 0.3 0.4;
#X connect 0 0 11 0;
#X connect 1 0 11 1;
#X connect 1 0 12 0;
#X connect 2 0 3 0;
#X connect 3 0 1 0;
#X connect 4 0 11 2;
#X connect 4 0 25 1;
#X connect 5 0 4 0;
#X connect 6 0 5 0;
#X connect 7 0 11 3;
#X connect 7 0 14 0;
#X connect 7 0 25 0;
#X connect 8 0 7 0;
#X connect 9 0 8 0;
#X connect 10 0 0 0;
#X connect 16 0 19 0;
#X connect 17 0 18 0;
#X connect 18 0 16 0;
#X connect 19 0 15 0;
#X connect 20 0 21 0;
#X connect 21 0 17 0;
#X connect 21 1 18 1;
#X connect 22 0 16 0;
#X connect 24 0 28 0;
#X connect 25 0 13 0;
#X connect 26 0 27 0;
#X connect 27 0 23 0;
#X connect 28 0 23 0;
#X restore 28 99 pd random_array1;
#N canvas 20 44 1420 828 random_array2 0;
#N canvas 20 50 1420 828 bright_amp 0;
#X floatatom 314 273 5 0 0 0 - - -;
#X obj 80 298 *;
#X floatatom 116 455 5 0 0 0 - - -;
#X obj 80 165 bng 15 250 50 0 empty empty empty 17 7 0 10 -262144 -1
-1;
#X obj 53 87 metro 500;
#X obj 258 68 inlet;
#X obj 53 66 tgl 15 0 empty empty empty 17 7 0 10 -262144 -1 -1 0 1
;
#X obj 52 38 inlet;
#X obj 212 465 pack \$1 \$2;
#X obj 212 489 line;
#X obj 130 213 random 25;
#X obj 350 81 inlet;
#X text 50 12 on off;
#X text 219 37 metro ms;
#X text 321 41 dynamic range;
#X obj 60 190 0.5;
#X obj 60 219 / 25;
#X obj 92 339 *;
#X obj 431 82 inlet;
#X text 430 44 minimum;
#X obj 143 314 / 100;
#X obj 108 389 +;
#X obj 109 419 clip 0 0.5;
#X obj 163 356 / 200;
#X obj 144 263 pack \$1 1000;
#X obj 144 287 line;
#X text 797 62 rand_amp_on: turn on/off the random amplitude of components
\; rand_tempo: time (ms) to change one amplitude \; rand_dyn_range:
dynamic range of the amplitude \; rand_dyn_min: min value of the dynamic
range \;;
#X obj 212 521 tabwrite array2;
#X obj 314 215 random 55;
#X connect 0 0 27 1;
#X connect 1 0 17 0;
#X connect 2 0 8 0;
#X connect 3 0 10 0;
#X connect 3 0 15 0;
#X connect 3 0 28 0;
#X connect 4 0 3 0;
#X connect 5 0 4 1;
#X connect 5 0 8 1;
#X connect 6 0 4 0;
#X connect 7 0 6 0;
#X connect 8 0 9 0;
#X connect 9 0 27 0;
#X connect 10 0 1 1;
#X connect 11 0 24 0;
#X connect 15 0 16 0;
#X connect 16 0 1 0;
#X connect 17 0 21 0;
#X connect 18 0 23 0;
#X connect 20 0 17 1;
#X connect 21 0 22 0;
#X connect 22 0 2 0;
#X connect 23 0 21 1;
#X connect 24 0 25 0;
#X connect 25 0 20 0;
#X connect 28 0 0 0;
#X restore 107 209 pd bright_amp;
#X obj 78 183 tgl 15 0 empty empty empty 17 7 0 10 -262144 -1 -1 0
1;
#X floatatom 98 180 5 0 0 0 - - -;
#X obj 98 156 line;
#X floatatom 149 180 5 0 0 0 - - -;
#X obj 149 156 line;
#X floatatom 197 181 5 0 0 0 - - -;
#X obj 197 157 line;
#X obj 87 34 r rand_amp_on_bright;
#X obj 98 72 r rand_tempo_bright;
#X obj 129 104 r rand_dyn_range_bright;
#X obj 198 133 r rand_dyn_min_bright;
#X obj 270 185 s rand_dyn_min_bright_monitor;
#X obj 270 270 s rand_dyn_range_bright_monitor;
#X obj 17 239 s rand_tempo_bright_monitor;
#X obj 585 123 bng 15 250 50 0 empty empty empty 17 7 0 10 -262144
-1 -1;
#X obj 585 77 tgl 15 0 empty empty empty 17 7 0 10 -262144 -1 -1 0
1;
#X obj 584 187 array set array2;
#X obj 585 97 metro 9000;
#X msg 584 145 0 0 0 0 0 0 0 0 0 0 0 0 0 0 0 0 0 0 0 0 0 0 0 0 0 0
0 0 0 0 0 0 0 0 0 0 0 0 0 0 0 0 0 0 0 0 0 0 0 0 0 0 0 0 0 0;
#X obj 585 52 unpack f f;
#X obj 585 27 r array2_zero;
#X obj 736 99 r array2_zero_now;
#X obj 260 231 +;
#X connect 1 0 0 0;
#X connect 2 0 0 1;
#X connect 2 0 14 0;
#X connect 3 0 2 0;
#X connect 4 0 0 2;
#X connect 4 0 23 1;
#X connect 5 0 4 0;
#X connect 6 0 0 3;
#X connect 6 0 12 0;
#X connect 6 0 23 0;
#X connect 7 0 6 0;
#X connect 8 0 1 0;
#X connect 9 0 3 0;
#X connect 10 0 5 0;
#X connect 11 0 7 0;
#X connect 15 0 19 0;
#X connect 16 0 18 0;
#X connect 18 0 15 0;
#X connect 19 0 17 0;
#X connect 20 0 16 0;
#X connect 20 1 18 1;
#X connect 21 0 20 0;
#X connect 22 0 15 0;
#X connect 23 0 13 0;
#X restore 28 121 pd random_array2;
#X text 26 14 Instrument;
#X text 26 80 Instrumentist;
#N canvas 20 50 625 347 note_followers 0;
#X obj 28 297 note_follow 92;
#X obj 28 31 note_follow 60.5 0;
#X obj 28 50 note_follow 65 1;
#X obj 28 69 note_follow 68 2;
#X obj 28 88 note_follow 72 3;
#X obj 28 107 note_follow 76 4;
#X obj 28 126 note_follow 78.5 5;
#X obj 28 145 note_follow 79.5 6;
#X obj 28 164 note_follow 80 93.5 7;
#X obj 28 183 note_follow 83 96.02 8;
#X obj 28 202 note_follow 85 97.25 9;
#X obj 28 221 note_follow 85.5 10;
#X obj 28 240 note_follow 89 11;
#X obj 28 259 note_follow 90 12;
#X obj 28 278 note_follow 90.5 13;
#X obj 303 28 note_follow_ring 39.4 74.8 0;
#X obj 303 47 note_follow_ring 36.1 78.5 1;
#X obj 303 66 note_follow_ring 44.6 82.1 2;
#X obj 303 85 note_follow_ring 48.6 86.1 3;
#X obj 303 104 note_follow_ring 43.76 89.29 4;
#X obj 303 123 note_follow_ring 29.6 91 5;
#X obj 303 142 note_follow_ring 18.38 91.75 6;
#X obj 303 161 note_follow_ring 51.17 93.5 7;
#X obj 303 180 note_follow_ring 46.64 96.02 8;
#X obj 303 199 note_follow_ring 23.88 97.25 9;
#X obj 303 218 note_follow_ring 59.6 99.33 10;
#X obj 303 237 note_follow_ring 40.13 101.5 11;
#X obj 303 256 note_follow_ring 28.88 102.25 12;
#X obj 303 275 note_follow_ring 48.91 103.26 13;
#X restore 28 143 pd note_followers;
#N canvas 0 22 450 300 array1_write 0;
#X obj 7 17 r array1_write;
#X obj 7 41 unpack 0 0;
#X obj 7 66 tabwrite array1;
#X connect 0 0 1 0;
#X connect 1 0 2 0;
#X connect 1 1 2 1;
#X restore 28 167 pd array1_write;
#N canvas 0 22 343 498 harmonics 0;
#N canvas 125 127 718 497 harmonic 0;
#X floatatom 93 46 5 0 0 0 - - -;
#X obj 93 209 osc~;
#X obj 93 333 *~;
#X obj 93 183 *;
#X obj 111 154 float \$1;
#X obj 111 128 bang;
#X obj 206 235 /;
#X obj 241 164 float \$1;
#X obj 241 140 r metro;
#X obj 206 259 pack 0 300;
#X obj 206 283 line~;
#X obj 93 22 r \$0-main-freq;
#X obj 206 102 r \$0-env;
#X obj 241 188 * 0.3;
#X obj 93 357 throw~ \$0-harmonics_out;
#X connect 0 0 5 0;
#X connect 0 0 3 0;
#X connect 1 0 2 0;
#X connect 2 0 14 0;
#X connect 3 0 1 0;
#X connect 4 0 3 1;
#X connect 5 0 4 0;
#X connect 6 0 9 0;
#X connect 7 0 13 0;
#X connect 8 0 7 0;
#X connect 9 0 10 0;
#X connect 10 0 2 1;
#X connect 11 0 0 0;
#X connect 12 0 6 0;
#X connect 13 0 6 1;
#X restore 68 234 pd harmonic 2;
#X obj 39 104 inlet~;
#X obj 67 200 s \$0-env;
#X obj 69 417 catch~ \$0-harmonics_out;
#X obj 39 441 outlet~;
#N canvas 125 127 718 497 harmonic 0;
#X floatatom 93 46 5 0 0 0 - - -;
#X obj 93 209 osc~;
#X obj 93 333 *~;
#X obj 93 183 *;
#X obj 111 154 float \$1;
#X obj 111 128 bang;
#X obj 206 235 /;
#X obj 241 164 float \$1;
#X obj 241 140 r metro;
#X obj 206 259 pack 0 300;
#X obj 206 283 line~;
#X obj 93 22 r \$0-main-freq;
#X obj 206 102 r \$0-env;
#X obj 241 188 * 0.3;
#X obj 93 357 throw~ \$0-harmonics_out;
#X connect 0 0 5 0;
#X connect 0 0 3 0;
#X connect 1 0 2 0;
#X connect 2 0 14 0;
#X connect 3 0 1 0;
#X connect 4 0 3 1;
#X connect 5 0 4 0;
#X connect 6 0 9 0;
#X connect 7 0 13 0;
#X connect 8 0 7 0;
#X connect 9 0 10 0;
#X connect 10 0 2 1;
#X connect 11 0 0 0;
#X connect 12 0 6 0;
#X connect 13 0 6 1;
#X restore 68 253 pd harmonic 3;
#N canvas 125 127 718 497 harmonic 0;
#X floatatom 93 46 5 0 0 0 - - -;
#X obj 93 209 osc~;
#X obj 93 333 *~;
#X obj 93 183 *;
#X obj 111 154 float \$1;
#X obj 111 128 bang;
#X obj 206 235 /;
#X obj 241 164 float \$1;
#X obj 241 140 r metro;
#X obj 206 259 pack 0 300;
#X obj 206 283 line~;
#X obj 93 22 r \$0-main-freq;
#X obj 206 102 r \$0-env;
#X obj 241 188 * 0.3;
#X obj 93 357 throw~ \$0-harmonics_out;
#X connect 0 0 5 0;
#X connect 0 0 3 0;
#X connect 1 0 2 0;
#X connect 2 0 14 0;
#X connect 3 0 1 0;
#X connect 4 0 3 1;
#X connect 5 0 4 0;
#X connect 6 0 9 0;
#X connect 7 0 13 0;
#X connect 8 0 7 0;
#X connect 9 0 10 0;
#X connect 10 0 2 1;
#X connect 11 0 0 0;
#X connect 12 0 6 0;
#X connect 13 0 6 1;
#X restore 68 272 pd harmonic 4;
#N canvas 125 127 718 497 harmonic 0;
#X floatatom 93 46 5 0 0 0 - - -;
#X obj 93 209 osc~;
#X obj 93 333 *~;
#X obj 93 183 *;
#X obj 111 154 float \$1;
#X obj 111 128 bang;
#X obj 206 235 /;
#X obj 241 164 float \$1;
#X obj 241 140 r metro;
#X obj 206 259 pack 0 300;
#X obj 206 283 line~;
#X obj 93 22 r \$0-main-freq;
#X obj 206 102 r \$0-env;
#X obj 241 188 * 0.3;
#X obj 93 357 throw~ \$0-harmonics_out;
#X connect 0 0 5 0;
#X connect 0 0 3 0;
#X connect 1 0 2 0;
#X connect 2 0 14 0;
#X connect 3 0 1 0;
#X connect 4 0 3 1;
#X connect 5 0 4 0;
#X connect 6 0 9 0;
#X connect 7 0 13 0;
#X connect 8 0 7 0;
#X connect 9 0 10 0;
#X connect 10 0 2 1;
#X connect 11 0 0 0;
#X connect 12 0 6 0;
#X connect 13 0 6 1;
#X restore 68 291 pd harmonic 5;
#N canvas 125 127 718 497 harmonic 0;
#X floatatom 93 46 5 0 0 0 - - -;
#X obj 93 209 osc~;
#X obj 93 333 *~;
#X obj 93 183 *;
#X obj 111 154 float \$1;
#X obj 111 128 bang;
#X obj 206 235 /;
#X obj 241 164 float \$1;
#X obj 241 140 r metro;
#X obj 206 259 pack 0 300;
#X obj 206 283 line~;
#X obj 93 22 r \$0-main-freq;
#X obj 206 102 r \$0-env;
#X obj 241 188 * 0.3;
#X obj 93 357 throw~ \$0-harmonics_out;
#X connect 0 0 5 0;
#X connect 0 0 3 0;
#X connect 1 0 2 0;
#X connect 2 0 14 0;
#X connect 3 0 1 0;
#X connect 4 0 3 1;
#X connect 5 0 4 0;
#X connect 6 0 9 0;
#X connect 7 0 13 0;
#X connect 8 0 7 0;
#X connect 9 0 10 0;
#X connect 10 0 2 1;
#X connect 11 0 0 0;
#X connect 12 0 6 0;
#X connect 13 0 6 1;
#X restore 68 310 pd harmonic 6;
#N canvas 125 127 718 497 harmonic 0;
#X floatatom 93 46 5 0 0 0 - - -;
#X obj 93 209 osc~;
#X obj 93 333 *~;
#X obj 93 183 *;
#X obj 111 154 float \$1;
#X obj 111 128 bang;
#X obj 206 235 /;
#X obj 241 164 float \$1;
#X obj 241 140 r metro;
#X obj 206 259 pack 0 300;
#X obj 206 283 line~;
#X obj 93 22 r \$0-main-freq;
#X obj 206 102 r \$0-env;
#X obj 241 188 * 0.3;
#X obj 93 357 throw~ \$0-harmonics_out;
#X connect 0 0 5 0;
#X connect 0 0 3 0;
#X connect 1 0 2 0;
#X connect 2 0 14 0;
#X connect 3 0 1 0;
#X connect 4 0 3 1;
#X connect 5 0 4 0;
#X connect 6 0 9 0;
#X connect 7 0 13 0;
#X connect 8 0 7 0;
#X connect 9 0 10 0;
#X connect 10 0 2 1;
#X connect 11 0 0 0;
#X connect 12 0 6 0;
#X connect 13 0 6 1;
#X restore 68 329 pd harmonic 7;
#N canvas 125 127 718 497 harmonic 0;
#X floatatom 93 46 5 0 0 0 - - -;
#X obj 93 209 osc~;
#X obj 93 333 *~;
#X obj 93 183 *;
#X obj 111 154 float \$1;
#X obj 111 128 bang;
#X obj 206 235 /;
#X obj 241 164 float \$1;
#X obj 241 140 r metro;
#X obj 206 259 pack 0 300;
#X obj 206 283 line~;
#X obj 93 22 r \$0-main-freq;
#X obj 206 102 r \$0-env;
#X obj 241 188 * 0.3;
#X obj 93 357 throw~ \$0-harmonics_out;
#X connect 0 0 5 0;
#X connect 0 0 3 0;
#X connect 1 0 2 0;
#X connect 2 0 14 0;
#X connect 3 0 1 0;
#X connect 4 0 3 1;
#X connect 5 0 4 0;
#X connect 6 0 9 0;
#X connect 7 0 13 0;
#X connect 8 0 7 0;
#X connect 9 0 10 0;
#X connect 10 0 2 1;
#X connect 11 0 0 0;
#X connect 12 0 6 0;
#X connect 13 0 6 1;
#X restore 68 348 pd harmonic 8;
#N canvas 125 127 718 497 harmonic 0;
#X floatatom 93 46 5 0 0 0 - - -;
#X obj 93 209 osc~;
#X obj 93 333 *~;
#X obj 93 183 *;
#X obj 111 154 float \$1;
#X obj 111 128 bang;
#X obj 206 235 /;
#X obj 241 164 float \$1;
#X obj 241 140 r metro;
#X obj 206 259 pack 0 300;
#X obj 206 283 line~;
#X obj 93 22 r \$0-main-freq;
#X obj 206 102 r \$0-env;
#X obj 241 188 * 0.3;
#X obj 93 357 throw~ \$0-harmonics_out;
#X connect 0 0 5 0;
#X connect 0 0 3 0;
#X connect 1 0 2 0;
#X connect 2 0 14 0;
#X connect 3 0 1 0;
#X connect 4 0 3 1;
#X connect 5 0 4 0;
#X connect 6 0 9 0;
#X connect 7 0 13 0;
#X connect 8 0 7 0;
#X connect 9 0 10 0;
#X connect 10 0 2 1;
#X connect 11 0 0 0;
#X connect 12 0 6 0;
#X connect 13 0 6 1;
#X restore 68 367 pd harmonic 9;
#X obj 235 88 / 100;
#X obj 235 112 clip 0 1;
#X obj 265 34 env~ 16384 16384;
#X obj 68 146 loadbang;
#X msg 68 170 1;
#X connect 1 0 4 0;
#X connect 3 0 4 0;
#X connect 12 0 13 0;
#X connect 14 0 12 0;
#X connect 15 0 16 0;
#X connect 16 0 2 0;
#X restore 655 928 pd harmonics;
#X text 205 201 Parameters list \; -- \; original \; ring_modulation
\; bright \; -- \; amp_modulation \; amp_coeficient \; -- \; vibrato
\; vib_coeficient \; -- \; amp_modulation_bright \; amp_coeficient_bright
\; -- \; smooth \; -- \; random_amp_on \; rand_tempo \; rand_dyn_range
\; rand_dyn_min \; array1_zero \; -- \; random_amp_on_bright \; rand_tempo_bright
\; rand_dyn_range_bright \; rand_dyn_min_bright \; array2_zero \; --
\; note_followers_on \; unison_fade \; -- \; darkness \; harmg \;;
#N canvas 359 100 893 508 random_harm_amp 0;
#X obj 108 147 metro 1000, f 16;
#X obj 108 8 unpack;
#X obj 108 171 s \$0-metro;
#X obj 29 399 r harmamp2;
#X floatatom 29 423 5 0 0 0 - - -;
#X floatatom 111 422 5 0 0 0 - - -;
#X obj 111 398 r harmamp3;
#X obj 478 5 send_harm_amp 3;
#X obj 605 -42 r \$0-metro;
#X obj 351 5 send_harm_amp 2;
#X floatatom 195 425 5 0 0 0 - - -;
#X obj 195 401 r harmamp4;
#X obj 605 5 send_harm_amp 4;
#X obj 725 5 send_harm_amp 5;
#X obj 351 35 send_harm_amp 6;
#X obj 478 35 send_harm_amp 7;
#X obj 605 35 send_harm_amp 8;
#X obj 725 35 send_harm_amp 9;
#X obj 351 65 send_harm_amp 10;
#X obj 478 65 send_harm_amp 11;
#X obj 605 65 send_harm_amp 12;
#X obj 725 65 send_harm_amp 13;
#X obj 351 95 send_harm_amp 14;
#X obj 478 95 send_harm_amp 15;
#X obj 605 95 send_harm_amp 16;
#X obj 725 95 send_harm_amp 17;
#X obj 108 -16 r harmonics;
#X obj 108 127 tgl 15 0 empty empty empty 17 7 0 10 -262144 -1 -1 1
1;
#X obj 108 32 sel 0;
#X obj 107 102 change;
#X floatatom 108 80 5 0 0 0 - - -;
#X msg 108 55 0;
#X msg 141 57 1;
#X connect 0 0 2 0;
#X connect 1 0 28 0;
#X connect 1 1 0 1;
#X connect 3 0 4 0;
#X connect 6 0 5 0;
#X connect 8 0 9 0;
#X connect 8 0 7 0;
#X connect 8 0 12 0;
#X connect 8 0 13 0;
#X connect 8 0 14 0;
#X connect 8 0 15 0;
#X connect 8 0 16 0;
#X connect 8 0 17 0;
#X connect 8 0 18 0;
#X connect 8 0 19 0;
#X connect 8 0 20 0;
#X connect 8 0 21 0;
#X connect 8 0 22 0;
#X connect 8 0 23 0;
#X connect 8 0 24 0;
#X connect 8 0 25 0;
#X connect 11 0 10 0;
#X connect 26 0 1 0;
#X connect 27 0 0 0;
#X connect 28 0 31 0;
#X connect 28 1 32 0;
#X connect 29 0 27 0;
#X connect 30 0 29 0;
#X connect 31 0 30 0;
#X connect 32 0 30 0;
#X restore 28 192 pd random_harm_amp;
#N canvas 0 0 1440 872 oscilators_bright 0;
#X obj 306 184 osc_bright 3;
#X obj 306 214 osc_bright 4;
#X obj 306 244 osc_bright 5;
#X obj 306 274 osc_bright 6;
#X obj 306 304 osc_bright 7;
#X obj 306 334 osc_bright 8;
#X obj 306 364 osc_bright 9;
#X obj 306 394 osc_bright 10;
#X obj 308 423 osc_bright 11;
#X obj 308 454 osc_bright 12;
#X obj 308 485 osc_bright 13;
#X obj 308 516 osc_bright 14;
#X obj 308 547 osc_bright 15;
#X obj 308 578 osc_bright 16;
#X obj 482 103 unpack f f f f f f f f f f f f f f f f f f f;
#X msg 482 51 3406.5 3695.5 4023.5 4347 4573.5 4903 5397.5 5719 5904
6095 6298.5 6662.5 7371 8261.5 9134.5 10203 11295 12067.5;
#X obj 800 122 osc_bright 19;
#X obj 800 151 osc_bright 20;
#X obj 800 180 osc_bright 21;
#X obj 800 209 osc_bright 22;
#X obj 800 238 osc_bright 23;
#X obj 800 267 osc_bright 24;
#X obj 800 293 osc_bright 25;
#X obj 800 319 osc_bright 26;
#X obj 800 345 osc_bright 27;
#X obj 800 371 osc_bright 28;
#X obj 800 400 osc_bright 29;
#X obj 800 429 osc_bright 30;
#X obj 800 458 osc_bright 31;
#X obj 800 487 osc_bright 32;
#X obj 800 516 osc_bright 33;
#X obj 800 545 osc_bright 34;
#X obj 800 574 osc_bright 35;
#X obj 800 603 osc_bright 36;
#X obj 800 632 osc_bright 37;
#X obj 1225 121 osc_bright 38;
#X obj 1225 150 osc_bright 39;
#X obj 1225 179 osc_bright 40;
#X obj 1225 208 osc_bright 41;
#X obj 1225 237 osc_bright 42;
#X obj 1225 266 osc_bright 43;
#X obj 1225 295 osc_bright 44;
#X obj 1225 324 osc_bright 45;
#X obj 1225 353 osc_bright 46;
#X obj 1225 382 osc_bright 47;
#X obj 1225 411 osc_bright 48;
#X obj 1225 440 osc_bright 49;
#X obj 1225 469 osc_bright 50;
#X obj 1225 498 osc_bright 51;
#X obj 20 28 loadbang;
#X obj 483 26 loadbang;
#X obj 970 22 loadbang;
#N canvas 0 22 720 176 throw_amb~ 0;
#X obj 24 55 throw~ amb_1;
#X obj 24 26 inlet~;
#X obj 114 26 inlet~;
#X obj 204 26 inlet~;
#X obj 294 26 inlet~;
#X obj 384 26 inlet~;
#X obj 474 26 inlet~;
#X obj 564 26 inlet~;
#X obj 114 55 throw~ amb_2;
#X obj 204 55 throw~ amb_3;
#X obj 294 55 throw~ amb_4;
#X obj 384 55 throw~ amb_5;
#X obj 474 55 throw~ amb_6;
#X obj 564 55 throw~ amb_7;
#X connect 1 0 0 0;
#X connect 2 0 8 0;
#X connect 3 0 9 0;
#X connect 4 0 10 0;
#X connect 5 0 11 0;
#X connect 6 0 12 0;
#X connect 7 0 13 0;
#X restore 489 927 pd throw_amb~;
#X f 30;
#X obj 489 800 msg mute;
#X obj 119 722 ui.radio @size 271 33 @receive "(null)" @send "(null)"
@pinned 0 @presetname "ui.radio.0" @mouse_events 0 @background_color
0.93 0.93 0.93 1 @border_color 0.6 0.6 0.6 1 @label_color 0 0 0 1 @active_color
0 0.75 1 1 @fontname "Helvetica" @fontweight "normal" @fontslant "roman"
@fontsize 11 @label "(null)" @label_inner 0 @label_side "top" @label_align
"left" @label_valign "top" @label_margins 0 0 @nitems 8 @mode 1;
#X text 80 740 Mute;
#X obj 119 867 r to_hoamap_bright;
#X obj 119 891 print;
#X msg 971 50 7102 7719 8370.5 8920.5 9476.5 10300.5 11116.5 11623
11999 12393.5 12961 14033.5;
#X msg 20 53 2097 2250 2323.5 2579.5 2818 2901 3003 3092 3206.5 3456
3915 4346.5 4788 5415 5880 6187.5;
#X obj 306 124 osc_bright 1;
#X obj 306 154 osc_bright 2;
#X obj 20 105 unpack f f f f f f f f f f f f f f f f;
#X obj 970 102 unpack f f f f f f f f f f f f f f;
#X obj 489 886 hoa.2d.map~ 3 8, f 30;
#X obj 707 715 catch~ brightout1;
#X obj 707 736 catch~ brightout2;
#X obj 707 757 catch~ brightout3;
#X obj 707 778 catch~ brightout4;
#X obj 707 799 catch~ brightout5;
#X obj 707 820 catch~ brightout6;
#X obj 707 841 catch~ brightout7;
#X obj 707 862 catch~ brightout8;
#X obj 403 143 throw~ brightout1;
#X obj 404 173 throw~ brightout2;
#X obj 403 203 throw~ brightout3;
#X obj 403 233 throw~ brightout4;
#X obj 403 263 throw~ brightout5;
#X obj 403 293 throw~ brightout6;
#X obj 413 323 throw~ brightout7;
#X obj 413 353 throw~ brightout8;
#X obj 413 383 throw~ brightout1;
#X obj 423 413 throw~ brightout2;
#X obj 423 443 throw~ brightout3;
#X obj 423 473 throw~ brightout4;
#X obj 422 504 throw~ brightout5;
#X obj 423 535 throw~ brightout6;
#X obj 423 566 throw~ brightout7;
#X obj 423 597 throw~ brightout8;
#N canvas 0 22 1043 751 to_hoamap 0;
#X obj 93 168 expr $f1 * (3.14159 / 180);
#X obj 40 195 pack 0 0;
#X msg 40 169 1;
#X obj 40 52 loadbang;
#X obj 40 78 t a a;
#X text 24 20 Spatialization (hoa.map);
#X obj 40 243 s to_hoamap_bright;
#X obj 93 144 expr (\$1 + 1)*6;
#X obj 40 219 msg polar 0;
#X msg 93 116 0;
#X obj 369 169 expr $f1 * (3.14159 / 180);
#X obj 316 196 pack 0 0;
#X msg 316 170 1;
#X obj 316 53 loadbang;
#X obj 316 79 t a a;
#X text 300 21 Spatialization (hoa.map);
#X obj 316 244 s to_hoamap_bright;
#X obj 369 145 expr (\$1 + 1)*6;
#X obj 632 168 expr $f1 * (3.14159 / 180);
#X obj 579 195 pack 0 0;
#X msg 579 169 1;
#X obj 579 52 loadbang;
#X obj 579 78 t a a;
#X text 563 20 Spatialization (hoa.map);
#X obj 579 243 s to_hoamap_bright;
#X obj 632 144 expr (\$1 + 1)*6;
#X obj 908 169 expr $f1 * (3.14159 / 180);
#X obj 855 196 pack 0 0;
#X msg 855 170 1;
#X obj 855 53 loadbang;
#X obj 855 79 t a a;
#X text 839 21 Spatialization (hoa.map);
#X obj 855 244 s to_hoamap_bright;
#X obj 908 145 expr (\$1 + 1)*6;
#X obj 95 441 expr $f1 * (3.14159 / 180);
#X obj 42 468 pack 0 0;
#X msg 42 442 1;
#X obj 42 325 loadbang;
#X obj 42 351 t a a;
#X text 26 293 Spatialization (hoa.map);
#X obj 42 516 s to_hoamap_bright;
#X obj 95 417 expr (\$1 + 1)*6;
#X obj 371 442 expr $f1 * (3.14159 / 180);
#X obj 318 469 pack 0 0;
#X msg 318 443 1;
#X obj 318 326 loadbang;
#X obj 318 352 t a a;
#X text 302 294 Spatialization (hoa.map);
#X obj 318 517 s to_hoamap_bright;
#X obj 371 418 expr (\$1 + 1)*6;
#X obj 634 441 expr $f1 * (3.14159 / 180);
#X obj 581 468 pack 0 0;
#X msg 581 442 1;
#X obj 581 325 loadbang;
#X obj 581 351 t a a;
#X text 565 293 Spatialization (hoa.map);
#X obj 581 516 s to_hoamap_bright;
#X obj 634 417 expr (\$1 + 1)*6;
#X obj 910 442 expr $f1 * (3.14159 / 180);
#X obj 857 469 pack 0 0;
#X msg 857 443 1;
#X obj 857 326 loadbang;
#X obj 857 352 t a a;
#X text 841 294 Spatialization (hoa.map);
#X obj 857 517 s to_hoamap_bright;
#X obj 910 418 expr (\$1 + 1)*6;
#X msg 369 117 1;
#X obj 316 220 msg polar 2;
#X msg 632 116 2;
#X obj 579 219 msg polar 2;
#X msg 908 117 3;
#X obj 855 220 msg polar 3;
#X msg 95 389 4;
#X obj 42 492 msg polar 4;
#X msg 371 390 5;
#X msg 634 389 6;
#X msg 910 390 7;
#X obj 318 493 msg polar 5;
#X obj 581 492 msg polar 6;
#X obj 857 493 msg polar 7;
#X connect 0 0 1 1;
#X connect 1 0 8 0;
#X connect 2 0 1 0;
#X connect 3 0 4 0;
#X connect 4 0 2 0;
#X connect 4 1 9 0;
#X connect 7 0 0 0;
#X connect 8 0 6 0;
#X connect 9 0 7 0;
#X connect 10 0 11 1;
#X connect 11 0 67 0;
#X connect 12 0 11 0;
#X connect 13 0 14 0;
#X connect 14 0 12 0;
#X connect 14 1 66 0;
#X connect 17 0 10 0;
#X connect 18 0 19 1;
#X connect 19 0 69 0;
#X connect 20 0 19 0;
#X connect 21 0 22 0;
#X connect 22 0 20 0;
#X connect 22 1 68 0;
#X connect 25 0 18 0;
#X connect 26 0 27 1;
#X connect 27 0 71 0;
#X connect 28 0 27 0;
#X connect 29 0 30 0;
#X connect 30 0 28 0;
#X connect 30 1 70 0;
#X connect 33 0 26 0;
#X connect 34 0 35 1;
#X connect 35 0 73 0;
#X connect 36 0 35 0;
#X connect 37 0 38 0;
#X connect 38 0 36 0;
#X connect 38 1 72 0;
#X connect 41 0 34 0;
#X connect 42 0 43 1;
#X connect 43 0 77 0;
#X connect 44 0 43 0;
#X connect 45 0 46 0;
#X connect 46 0 44 0;
#X connect 46 1 74 0;
#X connect 49 0 42 0;
#X connect 50 0 51 1;
#X connect 51 0 78 0;
#X connect 52 0 51 0;
#X connect 53 0 54 0;
#X connect 54 0 52 0;
#X connect 54 1 75 0;
#X connect 57 0 50 0;
#X connect 58 0 59 1;
#X connect 59 0 79 0;
#X connect 60 0 59 0;
#X connect 61 0 62 0;
#X connect 62 0 60 0;
#X connect 62 1 76 0;
#X connect 65 0 58 0;
#X connect 66 0 17 0;
#X connect 67 0 16 0;
#X connect 68 0 25 0;
#X connect 69 0 24 0;
#X connect 70 0 33 0;
#X connect 71 0 32 0;
#X connect 72 0 41 0;
#X connect 73 0 40 0;
#X connect 74 0 49 0;
#X connect 75 0 57 0;
#X connect 76 0 65 0;
#X connect 77 0 48 0;
#X connect 78 0 56 0;
#X connect 79 0 64 0;
#X restore 117 814 pd to_hoamap;
#X obj 905 142 throw~ brightout1;
#X obj 906 172 throw~ brightout2;
#X obj 905 202 throw~ brightout3;
#X obj 905 232 throw~ brightout4;
#X obj 905 262 throw~ brightout5;
#X obj 905 292 throw~ brightout6;
#X obj 915 322 throw~ brightout7;
#X obj 915 352 throw~ brightout8;
#X obj 915 382 throw~ brightout1;
#X obj 925 412 throw~ brightout2;
#X obj 925 442 throw~ brightout3;
#X obj 925 472 throw~ brightout4;
#X obj 924 503 throw~ brightout5;
#X obj 925 534 throw~ brightout6;
#X obj 925 565 throw~ brightout7;
#X obj 925 596 throw~ brightout8;
#X obj 923 626 throw~ brightout1;
#X obj 924 656 throw~ brightout2;
#X obj 923 686 throw~ brightout3;
#X obj 1339 141 throw~ brightout4;
#X obj 1339 171 throw~ brightout5;
#X obj 1339 201 throw~ brightout6;
#X obj 1349 231 throw~ brightout7;
#X obj 1349 261 throw~ brightout8;
#X obj 1349 291 throw~ brightout1;
#X obj 1359 321 throw~ brightout2;
#X obj 1359 351 throw~ brightout3;
#X obj 1359 381 throw~ brightout4;
#X obj 1358 412 throw~ brightout5;
#X obj 1359 443 throw~ brightout6;
#X obj 1359 474 throw~ brightout7;
#X obj 1359 505 throw~ brightout8;
#X obj 1357 535 throw~ brightout1;
#X msg 119 767 0 \$1 \, 1 \$2 \, 2 \$3 \, 3 \$4 \, 4 \$5 \, 5 \$6 \,
6 \$7;
#X connect 0 0 75 0;
#X connect 1 0 76 0;
#X connect 2 0 77 0;
#X connect 3 0 78 0;
#X connect 4 0 79 0;
#X connect 5 0 80 0;
#X connect 6 0 81 0;
#X connect 7 0 82 0;
#X connect 8 0 83 0;
#X connect 9 0 84 0;
#X connect 10 0 85 0;
#X connect 11 0 86 0;
#X connect 12 0 87 0;
#X connect 13 0 88 0;
#X connect 14 0 16 0;
#X connect 14 1 17 0;
#X connect 14 2 18 0;
#X connect 14 3 19 0;
#X connect 14 4 20 0;
#X connect 14 5 21 0;
#X connect 14 6 22 0;
#X connect 14 7 23 0;
#X connect 14 8 24 0;
#X connect 14 9 25 0;
#X connect 14 10 26 0;
#X connect 14 11 27 0;
#X connect 14 12 28 0;
#X connect 14 13 29 0;
#X connect 14 14 30 0;
#X connect 14 15 31 0;
#X connect 14 16 32 0;
#X connect 14 17 33 0;
#X connect 14 18 34 0;
#X connect 15 0 14 0;
#X connect 16 0 90 0;
#X connect 17 0 91 0;
#X connect 18 0 92 0;
#X connect 19 0 93 0;
#X connect 20 0 94 0;
#X connect 21 0 95 0;
#X connect 22 0 96 0;
#X connect 23 0 97 0;
#X connect 24 0 98 0;
#X connect 25 0 99 0;
#X connect 26 0 100 0;
#X connect 27 0 101 0;
#X connect 28 0 102 0;
#X connect 29 0 103 0;
#X connect 30 0 104 0;
#X connect 31 0 105 0;
#X connect 32 0 106 0;
#X connect 33 0 107 0;
#X connect 34 0 108 0;
#X connect 35 0 109 0;
#X connect 36 0 110 0;
#X connect 37 0 111 0;
#X connect 38 0 112 0;
#X connect 39 0 113 0;
#X connect 40 0 114 0;
#X connect 41 0 115 0;
#X connect 42 0 116 0;
#X connect 43 0 117 0;
#X connect 44 0 118 0;
#X connect 45 0 119 0;
#X connect 46 0 120 0;
#X connect 47 0 121 0;
#X connect 48 0 122 0;
#X connect 49 0 59 0;
#X connect 50 0 15 0;
#X connect 51 0 58 0;
#X connect 53 0 64 0;
#X connect 54 0 123 0;
#X connect 56 0 57 0;
#X connect 56 0 64 0;
#X connect 58 0 63 0;
#X connect 59 0 62 0;
#X connect 60 0 73 0;
#X connect 61 0 74 0;
#X connect 62 0 60 0;
#X connect 62 1 61 0;
#X connect 62 2 0 0;
#X connect 62 3 1 0;
#X connect 62 4 2 0;
#X connect 62 5 3 0;
#X connect 62 6 4 0;
#X connect 62 7 5 0;
#X connect 62 8 6 0;
#X connect 62 9 7 0;
#X connect 62 10 8 0;
#X connect 62 11 9 0;
#X connect 62 12 10 0;
#X connect 62 13 11 0;
#X connect 62 14 12 0;
#X connect 62 15 13 0;
#X connect 63 0 35 0;
#X connect 63 1 36 0;
#X connect 63 2 37 0;
#X connect 63 3 38 0;
#X connect 63 4 39 0;
#X connect 63 5 40 0;
#X connect 63 6 41 0;
#X connect 63 7 42 0;
#X connect 63 8 43 0;
#X connect 63 9 44 0;
#X connect 63 10 45 0;
#X connect 63 11 46 0;
#X connect 63 12 47 0;
#X connect 63 13 48 0;
#X connect 64 0 52 0;
#X connect 64 1 52 1;
#X connect 64 2 52 2;
#X connect 64 3 52 3;
#X connect 64 4 52 4;
#X connect 64 5 52 5;
#X connect 64 6 52 6;
#X connect 65 0 64 0;
#X connect 66 0 64 1;
#X connect 67 0 64 2;
#X connect 68 0 64 3;
#X connect 69 0 64 4;
#X connect 70 0 64 5;
#X connect 71 0 64 6;
#X connect 72 0 64 7;
#X connect 123 0 53 0;
#X restore 28 58 pd oscilators_bright;
#X coords 0 486 1 485 85 60 0;
#X restore 83 6 pd electronics;
#X obj 145 -309 bng 20 250 50 0 start empty start -3 27 0 10 -2261
-1 -1;
#X text 146 -278 or;
#X text 23 -135 Organ;
#X text 88 -135 Electronics;
#X obj 272 -322 bng 15 250 50 0 empty empty empty 17 7 0 10 -262144
-1 -1;
#N canvas 0 22 1003 617 click 0;
#N canvas 0 0 1440 878 (subpatch) 0;
#X array click 100 float 1;
#A 0 0 0.0387244 0.0706152 0.148064 0.216401 0.312074 0.482917 0.601368
0.847383 0.444193 -5.96046e-08 -0.0706153 -0.282461 -0.460138 -0.569478
-0.667428 -0.724376 -0.840549 -0.929388 -0.872437 -0.284736 -0.19362
-0.104781 -0.0683346 0.018226 0.0637842 0.186791 0.298409 0.425972
0.492031 0.656041 0.765381 0.87472 0.993172 0.785882 0.694765 0.457863
0.38497 0.305243 0.218682 0.179958 0.0865633 -0.73804 -0.605922 -0.526195
-0.435078 -0.343962 -0.205009 -0.125282 0.0159481 0.100231 0.170846
0.257407 0.355357 0.453307 0.942857 0.23235 0.168568 -0.0409997 -0.239178
-0.341684 -0.842857 -0.676537 -0.512527 -0.166285 -0.0250543 0.0751737
0.928571 0.448751 0.348523 0.223238 0.137816 0.0523946 -0.0432776 -0.100225
-0.168563 -0.2369 -0.282458 -0.366741 -0.412299 -0.494304 0.0774516
0.06834 0.0569504 0.018226 -0.00455314 -0.0387218 -0.0615009 -0.08428
-0.12756 -0.170841 -0.211843 -0.230066 -0.257401 -0.264235 0.0296155
-0.102506 -0.0592257 -0.0296129 0;
#X coords 0 1 99 -1 200 140 1;
#X restore 251 63 graph;
#X obj 247 380 tabplay~ click;
#X msg 247 356 bang;
#X obj 247 428 dac~;
#X obj 247 275 r measure;
#X msg 399 359 bang;
#X obj 399 431 dac~;
#X obj 399 407 *~ 0.1;
#X obj 399 383 tabplay~ click-2;
#X obj 399 278 r event_number;
#N canvas 0 0 1440 878 (subpatch) 0;
#X array click-2 100 float 1;
#A 0 0 0.0387244 0.0142857 0.0285714 0.0285714 0.0428571 0.0285714
0.0285714 0.0285714 0.0285714 0.0714286 0.0714286 0.0714286 0.0714286
0.0857143 0.1 0.114286 0.114286 0.128571 0.142857 0.157143 0.185714
0.214285 0.257142 0.285714 0.314285 0.328571 0.342857 0.357142 0.357142
0.357142 0.357142 0.342857 0.328571 0.3 0.285714 0.257142 0.228571
0.214285 0.185714 0.171428 0.142857 0.128571 0.1 0.0857143 0.0714286
0.0571429 0.0285715 0.0285715 0.0142859 -0.0285712 -0.0285712 -0.0571426
-0.0857139 -0.114285 -0.142857 -0.157142 -0.185714 -0.214285 -0.242856
-0.257142 -0.285713 -0.299999 -0.314285 -0.328571 -0.328571 -0.342856
-0.342856 -0.342856 -0.342856 -0.342856 -0.328571 -0.314285 -0.299999
-0.285713 -0.257142 -0.242856 -0.228571 -0.199999 -0.185714 -0.171428
-0.157142 -0.142857 -0.114285 -0.0999996 -0.0857139 -0.0571426 -0.0428569
-0.0285712 -0.0285712 -0.0142855 1.78814e-07 0.0142859 0.0142859 0.0285715
0.0296155 -0.102506 -0.0592257 -0.0296129 0;
#X coords 0 1 99 -1 200 140 1;
#X restore 462 66 graph;
#X obj 163 103 tgl 15 0 empty empty empty 17 7 0 10 -262144 -1 -1 0
1;
#X obj 247 404 *~ 0.2;
#X obj 102 31 loadbang;
#X msg 102 57 0;
#X obj 247 319 spigot;
#X obj 399 319 spigot;
#X connect 1 0 12 0;
#X connect 2 0 1 0;
#X connect 4 0 15 0;
#X connect 5 0 8 0;
#X connect 7 0 6 0;
#X connect 7 0 6 1;
#X connect 8 0 7 0;
#X connect 9 0 16 0;
#X connect 11 0 15 1;
#X connect 11 0 16 1;
#X connect 12 0 3 0;
#X connect 12 0 3 1;
#X connect 13 0 14 0;
#X connect 14 0 11 0;
#X connect 15 0 2 0;
#X connect 16 0 5 0;
#X coords 0 -1 1 1 80 20 1 100 100;
#X restore 343 -135 pd click;
#N canvas 0 22 327 214 declare 0;
#X obj 14 19 declare -lib else;
#X obj 14 44 declare -lib antescofo;
#X text 17 143 Acknowledgements;
#X text 17 159 MuTAnt team (Ircam) for Antescofo \; Alexandre Porres
for Else Library \;;
#X obj 14 67 declare -lib ceammc;
#X restore 245 6 pd declare;
#X obj 275 -247 hsl 90 15 0 127 0 0 antescofo_tempo empty change_tempo
-2 -8 0 10 -262144 -1 -1 0 1;
#N canvas 324 215 284 185 ui_messages 0;
#N canvas 20 50 1202 692 chords 0;
#X msg 22 42 list 269.292 349.228 415.305 523.251 659.255 761.672 806.964
830.609 987.767 1108.73 1141.22 1396.91 1479.98 1523.34 1661.22;
#X text 21 19 CHORD 1: BELLS;
#X text 21 107 CHORD 2: BELLS RING MODULATION;
#X text 21 219 CHORD 3: BRIGHT (sum freqs of the ring modulation >
807);
#X msg 21 127 24 32.5 43 45 66 80 83 102.5 108 121 136 138 157 256
269 349 415 523 618.5 659 762 764.5 807 830.5 938.5 988 1109 1141 1182.5
1397 1421 1480 1523 1569 1637.5 1818.5 2096.5 2250 2538 2877 3003 3184.5
;
#X text 22 234 a + b \, b + c \, c + d;
#X msg 24 270 [1637.5 \, 1769 \, 1926.5 \, 2097 \, 2250 \, 2323.5 \,
2579.5 \, 2818 \, 2901 \, 3003 \, 3092 \, 3206.5 \, 3456 \, 3915 \,
4346.5 \, 4788 \, 5415 \, 5880 \, 6187.5] \; [3406.5 \, 3695.5 \, 4023.5
\, 4347 \, 4573.5 \, 4903 \, 5397.5 \, 5719 \, 5904 \, 6095 \, 6298.5
\, 6662.5 \, 7371 \, 8261.5 \, 9134.5 \, 10203 \, 11295 \, 12067.5]
\; [7102.0 \, 7719 \, 8370.5 \, 8920.5 \, 9476.5 \, 10300.5 \, 11116.5
\, 11623 \, 11999 \, 12393.5 \, 12961 \, 14033.5 \, 15632.5 \, 17396
\, 19337.5 \, 21498 \, 23362.5];
#X text 22 250 the process was repeated three times;
#X obj 832 270 else/iterate;
#X floatatom 832 294 5 0 0 0 - - -;
#X obj 832 341 else/stream;
#X obj 832 317 ftom;
#X floatatom 919 316 5 0 0 0 - - -;
#X msg 832 365 add \$1;
#X msg 792 658 60.5 \; 65 \; 68 \; 72 \; 76 \; 78.5 \; 79.5 \; 80 \;
83 \; 85 \; 85.5 \; 89 \; 90 \; 90.4999 \; 92 \;;
#X text 775 629 midi notes chord1;
#X msg 663 162 18.6432 \; 23.8921 \; 28.7389 \; 29.5259 \; 36.1564
\; 39.4868 \; 40.1242 \; 43.7774 \; 44.6823 \; 46.65 \; 48.6732 \;
48.926 \; 51.1591 \; 59.6237 \; 60.4812 \; 64.9887 \; 67.9873 \; 71.9917
\; 74.8952 \; 75.9933 \; 78.5074 \; 78.5642 \; 79.5008 \; 79.9977 \;
82.1142 \; 83.0041 \; 85.0042 \; 85.4967 \; 86.1152 \; 89.0011 \; 89.296
\; 90.0003 \; 90.4961 \; 91.0112 \; 91.751 \; 93.5661 \; 96.0289 \;
97.2522 \; 99.3374 \; 101.508 \; 102.25 \; 103.266 \;;
#X msg 829 54 79.9365 \, 269.292 \, 618.52 \, 66.0765 \, 349.228 \,
764.533 \, 107.946 \, 415.305 \, 938.556 \, 136.004 \, 523.251 \, 1182.51
\, 102.417 \, 659.255 \, 1420.93 \, 45.2914 \, 761.672 \, 1568.64 \,
23.6458 \, 806.964 \, 1637.57 \, 157.157 \, 830.609 \, 1818.38 \, 120.964
\, 987.767 \, 2096.5 \, 32.4883 \, 1108.73 \, 2249.95 \, 255.694 \,
1141.22 \, 2538.13 \, 83.0648 \, 1396.91 \, 2876.89 \, 43.3667 \, 1479.98
\, 3003.32 \, 137.874 \, 1523.34 \, 3184.56, f 31;
#X msg 1116 130 39.4731 \; 60.5 \; 74.8958 \; 36.1765 \; 65 \; 78.5649
\; 44.6737 \; 68 \; 82.1153 \; 48.6737 \; 72 \; 86.1153 \; 43.7634
\; 76 \; 89.2951 \; 29.6377 \; 78.5 \; 91.0072 \; 18.3859 \; 79.5 \;
91.7518 \; 51.1765 \; 80 \; 93.5649 \; 46.6449 \; 83 \; 96.0289 \;
23.8859 \; 85 \; 97.2518 \; 59.603 \; 85.5 \; 99.3383 \; 40.1377 \;
89 \; 101.507 \; 28.8859 \; 90 \; 102.252 \; 48.9102 \; 90.5 \; 103.266
\;;
#X msg 889 440 1661.22;
#X floatatom 891 499 5 0 0 0 - - -;
#X obj 889 469 ftom;
#X connect 8 0 9 0;
#X connect 9 0 11 0;
#X connect 10 0 13 0;
#X connect 11 0 10 0;
#X connect 12 0 10 1;
#X connect 17 0 8 0;
#X connect 19 0 21 0;
#X connect 21 0 20 0;
#X restore 12 34 pd chords and notes;
#N canvas 160 44 894 828 interface_messages 0;
#X msg 45 385 \; antescofo-mess stop \;;
#X msg 45 325 \; antescofo-mess play \;;
#X msg 46 449 \; antescofo-mess suivi \$1 \;;
#X obj 46 424 r follow_score;
#X obj 45 302 r play_along_score;
#X obj 45 228 r load_score;
#X obj 45 362 r stop_score;
#X msg 45 187 \; pd audio-properties \;;
#X obj 45 162 r audio_settings;
#X obj 47 580 loadbang;
#X msg 47 604 \; reverb 0.001 \;;
#X msg 45 251 \; antescofo-mess score score.txt \;;
#X obj 293 314 r start;
#X msg 293 338 \; antescofo-mess start \;;
#X obj 490 307 r original;
#X obj 490 331 line;
#X obj 490 355 s original_monitor;
#X obj 645 332 line;
#X obj 645 308 r ring_modulation;
#X obj 843 331 line;
#X obj 843 307 r bright_on;
#X obj 843 355 s bright_on_monitor;
#X obj 645 356 s ring_modulation_monitor;
#X msg 380 453 \; antescofo-mess tempo \$1 \;;
#X obj 380 428 r antescofo_tempo;
#X obj 151 80 tgl 15 0 empty empty empty 17 7 0 10 -262144 -1 -1 1
1;
#X obj 151 127 s metro;
#X obj 46 80 tgl 15 0 empty empty empty 17 7 0 10 -262144 -1 -1 1 1
;
#X msg 46 113 \; pd dsp \$1 \;;
#X msg 46 42 1;
#X obj 151 102 metro 50;
#X obj 46 18 r ready;
#X obj 46 488 r start_from_measure;
#X msg 259 88 \; organ_volume 0.1 \;;
#X msg 407 88 \; electronics_volume 0.1 \;;
#X msg 46 511 \; antescofo-mess startfromlabel \$1 \;;
#N canvas 208 63 881 587 print-actions 0;
#X obj 27 35 r original;
#X msg 27 75 original;
#X obj 108 76 unpack;
#X obj 27 113 pack s f f, f 20;
#X obj 27 138 print -n;
#X obj 310 75 unpack;
#X obj 189 112 pack s f f, f 20;
#X obj 189 137 print -n;
#X obj 189 34 r ring_modulation;
#X obj 484 72 unpack;
#X obj 380 110 pack s f f, f 20;
#X obj 380 135 print -n;
#X obj 413 300 r amp_coeficient;
#X obj 276 401 print -n;
#X obj 276 376 pack s f, f 10;
#X msg 276 339 amp_coeficient;
#X obj 529 400 print -n;
#X obj 529 375 pack s f, f 9;
#X msg 530 339 vib_coeficient;
#X obj 590 296 r vib_coeficient;
#X msg 189 74 ring_modulation;
#X msg 380 72 array1_write;
#X obj 380 32 r array1_write;
#X obj 279 542 print -n;
#X obj 279 517 pack s f, f 9;
#X obj 339 454 r smooth;
#X msg 279 485 smooth;
#X obj 451 542 print -n;
#X obj 451 517 pack s f, f 9;
#X obj 511 454 r rand_dyn_min;
#X msg 451 485 rand_dyn_min;
#X obj 625 545 print -n;
#X obj 625 520 pack s f, f 9;
#X obj 686 457 r rand_dyn_range;
#X msg 625 489 rand_dyn_range;
#X obj 792 548 print -n;
#X obj 792 523 pack s f, f 9;
#X obj 853 460 r rand_tempo;
#X msg 792 492 rand_tempo;
#X obj 931 554 print -n;
#X obj 931 529 pack s f, f 9;
#X obj 992 466 r rand_amp_on;
#X msg 931 498 rand_amp_on;
#X obj 720 404 print -n;
#X obj 720 379 pack s f, f 9;
#X obj 781 300 r note_followers_on;
#X msg 721 343 note_followers_on;
#X obj 571 133 print -n;
#X obj 571 72 r array1_zero_now;
#X msg 571 100 array1_zero_now;
#X connect 0 0 1 0;
#X connect 0 0 2 0;
#X connect 1 0 3 0;
#X connect 2 0 3 1;
#X connect 2 1 3 2;
#X connect 3 0 4 0;
#X connect 5 0 6 1;
#X connect 5 1 6 2;
#X connect 6 0 7 0;
#X connect 8 0 20 0;
#X connect 8 0 5 0;
#X connect 9 0 10 1;
#X connect 9 1 10 2;
#X connect 10 0 11 0;
#X connect 12 0 14 1;
#X connect 12 0 15 0;
#X connect 14 0 13 0;
#X connect 15 0 14 0;
#X connect 17 0 16 0;
#X connect 18 0 17 0;
#X connect 19 0 17 1;
#X connect 19 0 18 0;
#X connect 20 0 6 0;
#X connect 21 0 10 0;
#X connect 22 0 21 0;
#X connect 22 0 9 0;
#X connect 24 0 23 0;
#X connect 25 0 24 1;
#X connect 25 0 26 0;
#X connect 26 0 24 0;
#X connect 28 0 27 0;
#X connect 29 0 28 1;
#X connect 29 0 30 0;
#X connect 30 0 28 0;
#X connect 32 0 31 0;
#X connect 33 0 32 1;
#X connect 33 0 34 0;
#X connect 34 0 32 0;
#X connect 36 0 35 0;
#X connect 37 0 36 1;
#X connect 37 0 38 0;
#X connect 38 0 36 0;
#X connect 40 0 39 0;
#X connect 41 0 40 1;
#X connect 41 0 42 0;
#X connect 42 0 40 0;
#X connect 44 0 43 0;
#X connect 45 0 44 1;
#X connect 45 0 46 0;
#X connect 46 0 44 0;
#X connect 48 0 49 0;
#X connect 49 0 47 0;
#X restore 531 14 pd print-actions;
#X obj 44 657 r stop_score;
#X msg 45 680 \; original 0 1000 \; ring_modulation 0 1000 \; bright_on
0 1000 \; amp_modulation 0 \; rand_amp_on 0 \; array1_zero 0 \; array2_zero
0 \; array1_zero_now bang \; rand_amp_on_bright 0 \; array2_zero_now
bang \; note_followers_on 0 \; note_followers_ring_on 0 \;;
#X connect 3 0 2 0;
#X connect 4 0 1 0;
#X connect 5 0 11 0;
#X connect 6 0 0 0;
#X connect 8 0 7 0;
#X connect 9 0 10 0;
#X connect 12 0 13 0;
#X connect 14 0 15 0;
#X connect 15 0 16 0;
#X connect 17 0 22 0;
#X connect 18 0 17 0;
#X connect 19 0 21 0;
#X connect 20 0 19 0;
#X connect 24 0 23 0;
#X connect 25 0 30 0;
#X connect 27 0 28 0;
#X connect 29 0 27 0;
#X connect 29 0 25 0;
#X connect 30 0 26 0;
#X connect 31 0 29 0;
#X connect 31 0 33 0;
#X connect 31 0 34 0;
#X connect 32 0 35 0;
#X connect 37 0 38 0;
#X restore 12 11 pd interface_messages;
#X coords 0 185 1 184 85 60 0;
#X restore 319 6 pd ui_messages;
#N canvas 77 241 450 300 test_with_midi 0;
#X obj 106 124 tgl 15 0 test_midi empty from_beginning 17 7 0 10 -262144
-1 -1 0 1;
#X obj 106 144 tgl 15 0 test_midi_m9 empty measure_9 17 7 0 10 -262144
-1 -1 0 1;
#X coords 0 -1 1 1 120 100 1 100 100;
#X restore 289 -107 pd test_with_midi;
#N canvas 463 80 485 728 instructions 0;
#X text 20 163 5) Alternatives:;
#X text 20 323 6) The organist can start or you can test the setup
selecting "from_beginning" in "test_with_midi".;
#X text 42 271 c) Write "measure_number" in "start_from_measure" field
to start the follower (or player) in certain measure. For example:
measure_9 \;;
#X text 20 363 7) Regulate volumes;
#X text 20 34 1) Click "audio_settings" configure audio;
#X text 20 64 2) Click "ready" to load initial parameters and turn
on DSP;
#X text 20 94 3) Click "load" to load the score (score.txt);
#X text 20 124 4) Select the "follow" box to allow the score follower
to follow the score;
#X text 41 191 a) Click start to "start" the recognition of the organ
playing \;;
#X text 41 231 b) Click "play_along" to play the electronic part strictly
\, not following the organ \;;
#X text 20 4 Instructions:;
#X text 20 393 8) Click "stop" and repeat 5 and 6;
#X text 20 433 Notes:;
#X text 20 453 comment;
#X restore 311 -364 pd instructions;
#X text 251 -364 click ->;
#N canvas 0 22 876 805 Monitor 0;
#X text -12 368 ____________________________________________________________
;
#N canvas 0 22 522 462 (subpatch) 0;
#X array array1 15 float 3;
#A 0 0 0.172 0 0 0 0 0 0 0 0 0 0 0 0 0;
#X coords 0 462 1 461 100 130 0;
#X restore 15 137 graph;
#X obj 142 139 vsl 8 125 0 100 0 0 empty rand_dyn_range_monitor dyn_range
-13 -9 0 10 -262144 -1 -1 11408 1;
#X obj 134 139 vsl 8 125 0 100 0 0 empty rand_dyn_min_monitor empty
0 -9 0 10 -262144 -1 -1 1488 1;
#N canvas 0 22 245 307 (subpatch) 0;
#X array array2 56 float 3;
#A 0 0 0 0 0 0 0 0 0 0.214 0 0 0 0 0 0 0 0 0 0 0 0 0 0 0 0 0 0 0 0
0 0 0 0 0 0 0 0 0 0 0 0 0 0 0 0 0 0 0 0 0 0 0 0 0 0 0;
#X coords 0 307 1 306 100 130 0;
#X restore 254 136 graph;
#X obj 382 139 vsl 8 125 0 100 0 0 empty rand_dyn_range_bright_monitor
dyn_range -20 -9 0 10 -262144 -1 -1 248 1;
#X obj 374 139 vsl 8 125 0 100 0 0 empty rand_dyn_min_bright_monitor
empty 0 -9 0 10 -262144 -1 -1 248 1;
#X obj 170 24 nbx 5 14 -1e+37 1e+37 0 0 empty smooth fade_time 0 -8
0 10 -262144 -1 -1 590.551 256;
#X obj 74 89 nbx 5 14 -1e+37 1e+37 0 0 empty rand_tempo_monitor tempo
54 8 0 9 -262144 -1 -1 1771.65 256;
#X obj 15 89 tgl 15 0 empty rand_amp_on random 17 7 0 10 -262144 -1
-1 0 1;
#X obj 315 90 nbx 5 14 -1e+37 1e+37 0 0 empty rand_tempo_bright_monitor
tempo 54 8 0 9 -262144 -1 -1 196.85 256;
#X obj 255 89 tgl 15 0 empty rand_amp_on_bright random 17 7 0 10 -262144
-1 -1 0 1;
#X obj 15 297 tgl 15 0 empty note_followers_on note_followers 17 7
0 10 -262144 -1 -1 0 1;
#X obj 15 322 tgl 15 0 empty amp_modulation amp_modulation 17 7 0 10
-262144 -1 -1 0 1;
#X obj 124 322 nbx 5 14 -1e+37 1e+37 0 0 empty amp_coeficient coef
54 8 0 9 -262144 -1 -1 0.0119614 256;
#X obj 15 346 tgl 15 0 empty vibrato vibrato 17 7 0 10 -262144 -1 -1
1 1;
#X obj 80 346 nbx 5 14 -1e+37 1e+37 0 0 empty vib_coeficient coef 54
8 0 9 -262144 -1 -1 0.0405774 256;
#X obj 255 322 tgl 15 0 empty amp_modulation_bright amp_modulation
17 7 0 10 -262144 -1 -1 1 1;
#X obj 364 322 nbx 5 14 -1e+37 1e+37 0 0 empty amp_coeficient_bright
coef 54 8 0 9 -262144 -1 -1 5.22384 256;
#X text 14 268 bell components;
#X text 252 269 bright components;
#X obj 18 43 hsl 100 8 0 1 0 0 empty original_monitor original_chord
-2 -8 0 10 -262144 -1 -1 0 1;
#X obj 19 69 hsl 100 8 0 1 0 0 empty ring_modulation_monitor ring_modulation
-2 -8 0 10 -262144 -1 -1 0 1;
#X obj 258 73 hsl 100 8 0 1 0 0 empty bright_on_monitor bright -2 -8
0 10 -262144 -1 -1 0 1;
#X obj 124 298 nbx 5 14 -1e+37 1e+37 0 0 empty midi_note midi 54 8
0 9 -262144 -1 -1 83 256;
#X obj 157 479 vu 20 80 vu_output empty -1 -8 0 10 -66577 -1 0 0;
#X obj 71 479 vu 20 80 empty empty -1 -8 0 10 -66577 -1 0 0;
#X text 153 450 electronics;
#X text 63 454 organ;
#X restore 224 25 pd Monitor;
#X obj 174 -87 dsp;
#X floatatom 174 -63 5 0 0 0 - - -;
#X floatatom 216 -63 5 0 0 0 - - -;
#N canvas 319 73 1010 799 test 0;
#X obj 5 41 s original;
#X msg 5 11 \$1 1000;
#X floatatom 5 -17 5 0 0 0 - - -;
#X floatatom 95 -17 5 0 0 0 - - -;
#X obj 95 41 s ring_modulation;
#X msg 616 10 \$1 1000;
#X floatatom 616 -18 5 0 0 0 - - -;
#X obj 616 40 s bright_on;
#X msg 5 -42 0;
#X msg 95 -43 0;
#X msg 616 -42 0;
#X obj 5 159 s amp_modulation;
#X msg 5 134 \$1 1000;
#X floatatom 5 106 5 0 0 0 - - -;
#X msg 5 81 0;
#X obj 133 159 s amp_coeficient;
#X obj 136 96 hsl 128 15 0 3 0 0 empty empty empty -2 -8 0 10 -262144
-1 -1 1400 1;
#X floatatom 133 138 5 0 0 0 - - -;
#X obj 133 116 pow 4;
#X obj 284 159 s vibrato;
#X obj 284 136 tgl 15 0 empty empty empty 17 7 0 10 -262144 -1 -1 1
1;
#X obj 386 96 hsl 128 15 0 3 0 0 empty empty empty -2 -8 0 10 -262144
-1 -1 1900 1;
#X floatatom 383 138 5 0 0 0 - - -;
#X obj 383 116 pow 4;
#X obj 383 159 s vib_coeficient;
#X msg 615 144 \$1 1000;
#X floatatom 615 116 5 0 0 0 - - -;
#X msg 615 91 0;
#X msg 581 91 1;
#X obj 796 104 hsl 128 15 0 3 0 0 empty empty empty -2 -8 0 10 -262144
-1 -1 6400 1;
#X floatatom 793 146 5 0 0 0 - - -;
#X obj 793 124 pow 4;
#X obj 615 169 s amp_modulation_bright;
#X obj 793 169 s amp_coeficient_bright;
#X floatatom -31 269 5 0 0 0 - - -;
#X obj -28 248 hsl 128 15 0 5000 0 0 empty empty empty -2 -8 0 10 -262144
-1 -1 1500 1;
#X obj -31 292 s smooth;
#X obj 131 292 s rand_amp_on;
#X obj 131 272 tgl 15 0 empty empty empty 17 7 0 10 -262144 -1 -1 1
1;
#X floatatom 239 269 5 0 0 0 - - -;
#X obj 242 248 hsl 128 15 0 5000 0 0 empty empty empty -2 -8 0 10 -262144
-1 -1 4500 1;
#X obj 239 292 s rand_tempo;
#X obj 386 292 s rand_dyn_range;
#X obj 388 354 s rand_dyn_min;
#X obj -30 359 s array1_zero;
#X msg -30 332 1 3000;
#X msg -65 331 0;
#X msg 659 325 1 3000;
#X msg 624 324 0;
#X floatatom 779 269 5 0 0 0 - - -;
#X obj 782 248 hsl 128 15 0 5000 0 0 empty empty empty -2 -8 0 10 -262144
-1 -1 500 1;
#X msg 612 459 2;
#X obj 621 269 tgl 15 0 empty empty empty 17 7 0 10 -262144 -1 -1 1
1;
#X obj 621 292 s rand_amp_on_bright;
#X obj 779 292 s rand_tempo_bright;
#X obj 680 421 s rand_dyn_range_bright;
#X obj 612 483 s rand_dyn_min_bright;
#X obj 659 352 s array2_zero;
#X obj 285 -49 tgl 15 0 empty empty empty 17 7 0 10 -262144 -1 -1 0
1;
#X text 525 -82 ] \; ] \; ] \; ] \; ] \; ] \; ] \; ] \; ] \; ] \; ]
\; ] \; ] \; ] \; ] \; ] \; ] \; ] \; ] \; ] \; ] \; ] \; ] \; ] \;
] \; ] \; ] \; ] \; ] \; ] \; ] \; ] \; ] \; ] \; ] \; ] \; ] \; ]
\; ] \; ] \; ] \; ] \; ] \; ] \;;
#X msg -29 -42 0.3;
#X msg 285 -27 \; note_followers_on \$1 \; note_followers_ring_on \$1
\; note_followers_min 0 \; note_followers_max 0.7 \; unison_fade 120
\;;
#X msg -29 81 1;
#X msg 680 397 60;
#X obj 819 6 s vibrato_bright;
#X obj 827 -24 tgl 15 0 empty empty empty 17 7 0 10 -262144 -1 -1 1
1;
#X msg 386 268 80;
#X msg 579 -41 1;
#X obj 352 420 hsl 128 15 0 1 0 0 empty empty empty -2 -8 0 10 -262144
-1 -1 12700 1;
#X obj 349 440 s rev_wet;
#X msg 62 -43 0.3;
#X obj -2 467 s harmonics;
#X obj 1 423 hsl 128 15 0 1 0 0 empty empty empty -2 -8 0 10 -262144
-1 -1 2500 1;
#X msg -2 443 \$1 500;
#X msg -1 536 \; antescofo-mess stop \;;
#X msg 0 574 \; array2_zero_now bang \;;
#X msg 96 9 \$1 3000;
#X msg 388 330 12;
#X connect 1 0 0 0;
#X connect 2 0 1 0;
#X connect 3 0 76 0;
#X connect 5 0 7 0;
#X connect 6 0 5 0;
#X connect 8 0 2 0;
#X connect 9 0 3 0;
#X connect 10 0 6 0;
#X connect 12 0 11 0;
#X connect 13 0 12 0;
#X connect 14 0 13 0;
#X connect 16 0 18 0;
#X connect 17 0 15 0;
#X connect 18 0 17 0;
#X connect 20 0 19 0;
#X connect 21 0 23 0;
#X connect 22 0 24 0;
#X connect 23 0 22 0;
#X connect 25 0 32 0;
#X connect 26 0 25 0;
#X connect 27 0 26 0;
#X connect 28 0 26 0;
#X connect 29 0 31 0;
#X connect 30 0 33 0;
#X connect 31 0 30 0;
#X connect 34 0 36 0;
#X connect 35 0 34 0;
#X connect 38 0 37 0;
#X connect 39 0 41 0;
#X connect 40 0 39 0;
#X connect 45 0 44 0;
#X connect 46 0 44 0;
#X connect 47 0 57 0;
#X connect 48 0 57 0;
#X connect 49 0 54 0;
#X connect 50 0 49 0;
#X connect 51 0 56 0;
#X connect 52 0 53 0;
#X connect 58 0 61 0;
#X connect 60 0 2 0;
#X connect 62 0 13 0;
#X connect 63 0 55 0;
#X connect 65 0 64 0;
#X connect 66 0 42 0;
#X connect 67 0 6 0;
#X connect 68 0 69 0;
#X connect 70 0 3 0;
#X connect 72 0 73 0;
#X connect 73 0 71 0;
#X connect 76 0 4 0;
#X connect 77 0 43 0;
#X restore 30 6 pd test;
#N canvas 0 22 194 530 parameters_list 0;
#X text 25 12 Parameters list \; -- \; original \; ring_modulation
\; bright \; -- \; amp_modulation \; amp_coeficient \; -- \; vibrato
\; vib_coeficient \; -- \; amp_modulation_bright \; amp_coeficient_bright
\; -- \; smooth \; -- \; random_amp_on \; rand_tempo \; rand_dyn_range
\; rand_dyn_min \; array1_zero \; -- \; random_amp_on_bright \; rand_tempo_bright
\; rand_dyn_range_bright \; rand_dyn_min_bright \; array2_zero \; --
\; note_followers_on \; unison_fade \; -- \; darkness \; reverb \;
;
#X restore 94 25 pd parameters_list;
#X connect 26 0 9 0;
#X connect 35 0 36 0;
#X connect 35 1 37 0;
#X coords 0 472 1 471 424 450 0;
