#N canvas 0 0 921 878 12;
#X msg 28 998 list 269.292 349.228 415.305 523.251 659.255 761.672
806.964 830.609 987.767 1108.73 1141.22 1396.91 1479.98 1523.34 1661.22
;
#X obj 590 225 array set array1;
#X obj 146 164 tgl 15 0 empty empty empty 17 7 0 10 -262144 -1 -1 1
1;
#X obj 146 211 s metro;
#X floatatom 221 186 5 0 0 0 - - -;
#X obj 221 211 s smooth;
#X obj 41 641 catch~ out_osc;
#X obj 41 164 tgl 15 0 empty empty empty 17 7 0 10 -262144 -1 -1 1
1;
#X msg 41 197 \; pd dsp \$1 \;;
#X obj 186 820 writesf~;
#X msg 238 735 open frequencies.wav;
#X msg 238 762 start;
#X msg 238 789 stop;
#X obj 591 170 bng 15 250 50 0 empty empty empty 17 7 0 10 -262144
-1 -1;
#X obj 591 303 tgl 15 0 empty empty empty 17 7 0 10 -262144 -1 -1 0
1;
#X obj 591 323 s amp_modulation;
#X obj 519 -127 tgl 15 0 empty empty empty 17 7 0 10 -262144 -1 -1
0 1;
#X floatatom 539 -130 5 0 0 0 - - -;
#X obj 591 350 tgl 15 0 empty empty empty 17 7 0 10 -262144 -1 -1 0
1;
#X obj 591 370 s ring_modulation;
#X obj 591 256 tgl 15 0 empty empty empty 17 7 0 10 -262144 -1 -1 0
1;
#X obj 591 276 s original;
#X obj 591 124 tgl 15 0 empty empty empty 17 7 0 10 -262144 -1 -1 0
1;
#X floatatom 729 301 5 0 0 0 - - -;
#X obj 729 324 s amp_coeficient;
#X obj 732 257 hsl 128 15 0 6 0 0 empty empty empty -2 -8 0 10 -262144
-1 -1 0 1;
#X obj 729 277 pow 4;
#X obj 591 144 metro 5000;
#X obj 58 745 vcf~;
#X obj 69 715 sig~;
#X floatatom 69 692 5 0 0 0 - - -;
#X floatatom 119 715 5 0 0 0 - - -;
#X msg 69 667 133;
#X obj 46 808 output~;
#X msg 803 282 0.03;
#X obj 52 776 *~ 1;
#N canvas 0 22 450 278 (subpatch) 0;
#X array array1 15 float 3;
#A 0 0 0 0 0 0 0 0 0 0 0 0 0 0 0 0;
#X coords 0 0.5 15 0 300 300 1 0 0;
#X restore 169 -204 graph;
#X msg 590 192 0 0 0 0 0 0 0 0 0 0 0 0 0 0 0;
#X obj 41 266 oscilator 349.228 1 269.292;
#X obj 41 289 oscilator 415.305 2 349.228;
#X obj 41 313 oscilator 523.251 3 415.305;
#X obj 41 343 oscilator 659.255 4 761.672;
#X obj 41 366 oscilator 761.672 5 659.255;
#X obj 41 389 oscilator 806.964 6 761.672;
#X obj 41 413 oscilator 830.609 7 806.964;
#X obj 41 443 oscilator 987.767 8 830.6;
#X obj 41 466 oscilator 1108.73 9 987.767;
#X obj 41 489 oscilator 1141.22 10 1141.22;
#X obj 41 513 oscilator 1396.91 11 1141.22;
#X obj 41 536 oscilator 1479.98 12 1396.91;
#X obj 41 559 oscilator 1523.34 13 1479.98;
#X obj 41 583 oscilator 1661.22 14 1523.34;
#X obj 592 400 tgl 15 0 empty empty empty 17 7 0 10 -262144 -1 -1 0
1;
#X obj 592 420 s vibrato;
#X floatatom 729 412 5 0 0 0 - - -;
#X obj 732 368 hsl 128 15 0 3 0 0 empty empty empty -2 -8 0 10 -262144
-1 -1 0 1;
#X obj 729 388 pow 4;
#X obj 729 435 s vib_coeficient;
#X msg 803 393 0.02;
#X msg 119 691 0.1;
#X obj 666 575 *~ 0.3;
#X obj 741 553 hsl 128 15 0 1 0 0 empty empty empty -2 -8 0 10 -262144
-1 -1 0 1;
#X floatatom 663 500 5 0 0 0 - - -;
#X obj 41 243 oscilator 269.292 0 254.177;
#X obj 648 536 osc~ 932.3;
#X msg 30 900 <24 \, 32.5 \, 43 \, 45 \, 66 \, 80 \, 83 \, 102.5 \,
108 \, 121 \, 136 \, 138 \, 157 \, 256 \, 269 \, 349 \, 415 \, 523
\, 618.5 \, 659 \, 762 \, 764.5 \, 807 \, 830.5 \, 938.5 \, 988 \,
1109 \, 1141 \, 1182.5 \, 1397 \, 1421 \, 1480 \, 1523 \, 1569 \, 1637.5
\, 1818.5 \, 2096.5 \, 2250 \, 2538 \, 2877 \, 3003 \, 3184.5>;
#X msg 849 282 0.1;
#X msg 164 691 0.3;
#X msg 847 393 1.05;
#X obj 539 -238 r rand_tempo;
#X obj 539 -154 line;
#X floatatom 590 -130 5 0 0 0 - - -;
#X obj 590 -154 line;
#X obj 570 -206 r rand_dyn_range;
#X floatatom 638 -129 5 0 0 0 - - -;
#X obj 638 -153 line;
#X obj 618 -176 r rand_dyn_min;
#X obj 528 -276 r rand_amp_on;
#N canvas 20 50 969 617 components_amp 0;
#X obj 212 521 tabwrite array1;
#X floatatom 314 273 5 0 0 0 - - -;
#X obj 80 298 *;
#X floatatom 116 455 5 0 0 0 - - -;
#X obj 80 165 bng 15 250 50 0 empty empty empty 17 7 0 10 -262144 -1
-1;
#X obj 53 87 metro 500;
#X obj 258 68 inlet;
#X obj 53 66 tgl 15 0 empty empty empty 17 7 0 10 -262144 -1 -1 0 1
;
#X obj 52 38 inlet;
#X obj 212 465 pack \$1 \$2;
#X obj 212 489 line;
#X obj 130 213 random 25;
#X obj 350 81 inlet;
#X text 50 12 on off;
#X text 202 33 metro ms;
#X text 321 41 dynamic range;
#X obj 60 190 0.5;
#X obj 60 219 / 25;
#X obj 92 339 *;
#X obj 431 82 inlet;
#X text 430 44 minimum;
#X obj 143 314 / 100;
#X obj 108 389 +;
#X obj 109 419 clip 0 0.5;
#X obj 163 356 / 200;
#X obj 144 263 pack \$1 1000;
#X obj 144 287 line;
#X obj 314 215 random 15;
#X obj 59 683 t b b b;
#X obj 139 702 f;
#X obj 171 702 f;
#X obj 203 702 f;
#X obj 139 672 unpack f f f;
#X text 797 62 rand_amp_on: turn on/off the random amplitude of components
\; rand_tempo: time (ms) to change one amplitude \; rand_dyn_range:
dynamic range of the amplitude \; rand_dyn_min: min value of the dynamic
range \;;
#X obj 106 825 tabwrite array1;
#X obj 69 743 pack \$1 \$2;
#X obj 69 767 line;
#X text 70 618 Notes written in the score;
#X floatatom 106 791 5 0 0 0 - - -;
#X floatatom 201 787 5 0 0 0 - - -;
#X obj 133 646 r note;
#N canvas 20 50 969 617 receive_notes 0;
#X obj 39 37 r note_1;
#X obj 39 63 line;
#X obj 39 87 tabwrite array1;
#X obj 141 64 1;
#X obj 179 63 line;
#X obj 179 87 tabwrite array1;
#X obj 319 63 line;
#X obj 319 87 tabwrite array1;
#X obj 459 63 line;
#X obj 459 87 tabwrite array1;
#X obj 39 143 line;
#X obj 39 167 tabwrite array1;
#X obj 179 143 line;
#X obj 179 167 tabwrite array1;
#X obj 319 143 line;
#X obj 319 167 tabwrite array1;
#X obj 459 143 line;
#X obj 459 167 tabwrite array1;
#X obj 39 223 line;
#X obj 39 247 tabwrite array1;
#X obj 179 223 line;
#X obj 179 247 tabwrite array1;
#X obj 319 223 line;
#X obj 319 247 tabwrite array1;
#X obj 459 223 line;
#X obj 459 247 tabwrite array1;
#X obj 39 303 line;
#X obj 39 327 tabwrite array1;
#X obj 179 303 line;
#X obj 179 327 tabwrite array1;
#X obj 319 303 line;
#X obj 319 327 tabwrite array1;
#X obj 179 37 r note_2;
#X obj 319 37 r note_3;
#X obj 459 37 r note_4;
#X obj 39 117 r note_5;
#X obj 179 117 r note_6;
#X obj 319 117 r note_7;
#X obj 459 117 r note_8;
#X obj 39 197 r note_9;
#X obj 179 197 r note_10;
#X obj 319 197 r note_11;
#X obj 459 197 r note_12;
#X obj 39 277 r note_13;
#X obj 179 277 r note_14;
#X obj 319 277 r note_15;
#X obj 281 64 2;
#X obj 421 64 3;
#X obj 561 64 4;
#X obj 141 144 5;
#X obj 281 144 6;
#X obj 421 144 7;
#X obj 561 144 8;
#X obj 141 224 9;
#X obj 281 224 10;
#X obj 421 224 11;
#X obj 561 224 12;
#X obj 141 304 13;
#X obj 281 304 14;
#X obj 421 304 15;
#X obj 643 44 bng 15 250 50 0 empty empty empty 17 7 0 10 -262144 -1
-1;
#X obj 643 20 loadbang;
#X connect 0 0 1 0;
#X connect 1 0 2 0;
#X connect 3 0 2 1;
#X connect 4 0 5 0;
#X connect 6 0 7 0;
#X connect 8 0 9 0;
#X connect 10 0 11 0;
#X connect 12 0 13 0;
#X connect 14 0 15 0;
#X connect 16 0 17 0;
#X connect 18 0 19 0;
#X connect 20 0 21 0;
#X connect 22 0 23 0;
#X connect 24 0 25 0;
#X connect 26 0 27 0;
#X connect 28 0 29 0;
#X connect 30 0 31 0;
#X connect 32 0 4 0;
#X connect 33 0 6 0;
#X connect 34 0 8 0;
#X connect 35 0 10 0;
#X connect 36 0 12 0;
#X connect 37 0 14 0;
#X connect 38 0 16 0;
#X connect 39 0 18 0;
#X connect 40 0 20 0;
#X connect 41 0 22 0;
#X connect 42 0 24 0;
#X connect 43 0 26 0;
#X connect 44 0 28 0;
#X connect 45 0 30 0;
#X connect 46 0 5 1;
#X connect 47 0 7 1;
#X connect 48 0 9 1;
#X connect 49 0 11 1;
#X connect 50 0 13 1;
#X connect 51 0 15 1;
#X connect 52 0 17 1;
#X connect 53 0 19 1;
#X connect 54 0 21 1;
#X connect 55 0 23 1;
#X connect 56 0 25 1;
#X connect 57 0 27 1;
#X connect 58 0 29 1;
#X connect 59 0 31 1;
#X connect 60 0 48 0;
#X connect 60 0 52 0;
#X connect 60 0 56 0;
#X connect 60 0 47 0;
#X connect 60 0 59 0;
#X connect 60 0 55 0;
#X connect 60 0 51 0;
#X connect 60 0 58 0;
#X connect 60 0 54 0;
#X connect 60 0 50 0;
#X connect 60 0 46 0;
#X connect 60 0 57 0;
#X connect 60 0 53 0;
#X connect 60 0 49 0;
#X connect 60 0 3 0;
#X connect 61 0 60 0;
#X restore 561 40 pd receive_notes;
#X connect 1 0 0 1;
#X connect 2 0 18 0;
#X connect 3 0 9 0;
#X connect 4 0 11 0;
#X connect 4 0 16 0;
#X connect 4 0 27 0;
#X connect 5 0 4 0;
#X connect 6 0 5 1;
#X connect 6 0 9 1;
#X connect 7 0 5 0;
#X connect 8 0 7 0;
#X connect 9 0 10 0;
#X connect 10 0 0 0;
#X connect 11 0 2 1;
#X connect 12 0 25 0;
#X connect 16 0 17 0;
#X connect 17 0 2 0;
#X connect 18 0 22 0;
#X connect 19 0 24 0;
#X connect 21 0 18 1;
#X connect 22 0 23 0;
#X connect 23 0 3 0;
#X connect 24 0 22 1;
#X connect 25 0 26 0;
#X connect 26 0 21 0;
#X connect 27 0 1 0;
#X connect 28 0 30 0;
#X connect 28 1 29 0;
#X connect 28 2 31 0;
#X connect 29 0 34 1;
#X connect 29 0 39 0;
#X connect 30 0 35 0;
#X connect 31 0 35 1;
#X connect 32 0 29 1;
#X connect 32 1 30 1;
#X connect 32 2 31 1;
#X connect 35 0 36 0;
#X connect 36 0 34 0;
#X connect 36 0 38 0;
#X connect 40 0 32 0;
#X connect 40 0 28 0;
#X restore 531 -99 pd components_amp;
#X obj 221 160 r smooth;
#X msg 41 126 1;
#X obj 41 94 loadbang;
#X obj 146 186 metro 50;
#N canvas 20 50 921 854 score_follower 0;
#X obj 12 269 antescofo~ @outlets beatnum midiout;
#X obj 354 398 cnv 15 200 100 empty empty Basic 3 7 0 14 -233017 -66577
0;
#X msg 413 400 start;
#X msg 453 400 stop;
#X msg 492 400 info;
#X msg 362 448 version;
#X msg 478 436 actions on;
#X msg 478 458 actions off;
#X obj 435 479 s antescofo-mess;
#X obj 354 295 cnv 15 200 100 empty empty Scoring 3 7 0 14 -233017
-66577 0;
#X msg 400 335 reloadscore;
#X msg 336 363 printscore;
#X msg 358 315 printactions;
#X obj 482 298 bng 15 250 50 0 empty empty empty 17 7 0 10 -191407
-1 -1;
#X obj 482 315 openpanel;
#X msg 482 334 score \$1;
#X obj 432 376 s antescofo-mess;
#X obj 558 295 cnv 15 200 203 empty empty Score_Browsing 3 7 0 14 -233017
-66577 0;
#X msg 618 316 nextevent;
#X msg 642 335 nextlabel;
#X msg 655 355 nextaction;
#X msg 665 376 previousevent;
#X msg 672 398 previouslabel;
#X msg 705 455 killall;
#X obj 655 479 s antescofo-mess;
#X obj 148 219 r antescofo-mess;
#N canvas 20 50 1123 742 dispatch 0;
#X obj 106 35 inlet;
#X obj 106 57 route cue calibration;
#X obj 106 171 send antescofo-labels;
#X obj 167 143 send antescofo_calib;
#X obj 229 119 outlet;
#X obj 253 95 send ante_pos;
#X obj 362 56 r print;
#X obj 362 77 print;
#X connect 0 0 1 0;
#X connect 1 0 2 0;
#X connect 1 1 3 0;
#X connect 1 2 4 0;
#X connect 1 2 5 0;
#X connect 6 0 7 0;
#X restore -48 316 pd dispatch;
#X obj 19 424 s ante_tempo;
#X obj -9 452 nbx 5 14 -1e+37 1e+37 0 0 empty empty Real-time_Tempo_BPM
0 25 0 10 -259565 -1 -1 17 256;
#X symbolatom 109 498 15 0 0 3 Event_Label - -;
#X obj 161 448 nbx 5 14 -1e+37 1e+37 0 0 empty empty Position_in_beats
0 25 0 10 -228856 -1 -1 3 256;
#X obj 225 310 bng 15 250 50 0 empty empty Succesful_score_load 0 25
0 10 -228856 -1 -1;
#X symbolatom 565 418 10 0 0 0 - - -;
#X msg 565 437 gotolabel \$1;
#X obj 94 114 tgl 15 0 empty empty turn_follower_on/off 17 7 0 10 -228856
-1 -1 0 1;
#X msg 94 139 suivi \$1;
#N canvas 20 50 723 711 Observation 0;
#X obj 16 10 inlet;
#X obj 110 131 readsf~;
#X obj 27 99 r audio-mess;
#X obj 110 398 outlet~;
#X obj 316 38 loadbang;
#X msg 316 60 analysis 4096 512;
#X obj 316 82 s antescofo-mess;
#X text 313 13 Analysis Parameters:;
#X obj 298 260 vu 15 120 empty empty -1 -8 0 10 -66577 -1 1 0;
#X text 171 398 >> to Antescofo~;
#X obj 297 228 - 100;
#X obj 297 206 env~;
#X obj 124 176 dac~ 1 2;
#X msg 53 220 start;
#X msg 16 54 open ./preludio/music_2.wav;
#X obj 125 89 tgl 15 0 empty empty empty 17 7 0 10 -262144 -1 -1 0
1;
#X obj 126 13 t f b;
#X obj 224 74 play_midi;
#X connect 0 0 16 0;
#X connect 1 0 3 0;
#X connect 1 0 11 0;
#X connect 1 0 12 0;
#X connect 1 0 12 1;
#X connect 2 0 1 0;
#X connect 4 0 5 0;
#X connect 5 0 6 0;
#X connect 10 0 8 0;
#X connect 11 0 10 0;
#X connect 13 0 1 0;
#X connect 14 0 1 0;
#X connect 15 0 1 0;
#X connect 16 0 15 0;
#X connect 16 1 14 0;
#X connect 17 0 3 0;
#X connect 17 0 12 0;
#X connect 17 0 12 1;
#X connect 17 0 11 0;
#X connect 17 1 3 0;
#X restore 256 128 pd Observation;
#X obj 208 378 stripnote;
#X obj 203 405 nbx 5 14 -1e+37 1e+37 0 0 empty empty MIDI_Pitch 0 25
0 10 -44450 -1 -1 92 256;
#X obj 269 405 nbx 5 14 -1e+37 1e+37 0 0 empty empty Velocity 0 25
0 10 -228856 -1 -1 127 256;
#X obj -48 336 nbx 5 14 -1e+37 1e+37 0 0 empty empty Event_Number 0
25 0 10 -228856 -1 -1 0 256;
#X obj -66 -122 cnv 15 824 60 empty empty Antescofo_Pd_Help 20 12 0
14 -4032 -66577 0;
#X text -32 -81 By MuTant Team \, Ircam \, 2007-2015.;
#X text 326 -81 http://forumnet.ircam.fr/user-group/antescofo;
#X text -33 -98 Antescofo - Anticipatory Score Following (v0.8);
#X text -38 -10 1 Load a score;
#N canvas 0 22 450 278 (subpatch) 0;
#X array Tempogram(BPM) 100 float 2;
#X coords 0 140 99 10 200 80 1 0 0;
#X restore 467 68 graph;
#N canvas 20 50 1224 768 Tempogram 0;
#X obj 137 124 t f b;
#X obj 272 160 f;
#X obj 296 160 + 1;
#X obj 137 62 r ante_tempo;
#X obj 137 211 tabwrite Tempogram(BPM);
#X obj 272 180 mod 100;
#X obj 137 103 spigot;
#X obj 170 82 inlet;
#X connect 0 0 4 0;
#X connect 0 1 1 0;
#X connect 1 0 2 0;
#X connect 1 0 5 0;
#X connect 2 0 1 1;
#X connect 3 0 6 0;
#X connect 5 0 4 1;
#X connect 6 0 0 0;
#X connect 7 0 6 1;
#X restore 490 34 pd Tempogram;
#X text 677 137 10;
#X obj 468 35 tgl 15 0 empty empty empty 17 7 0 10 -228856 -1 -1 0
1;
#X text 672 59 150;
#X msg -50 15 score music.asco.txt;
#X obj 256 108 tgl 15 0 empty empty empty 17 7 0 10 -262144 -1 -1 0
1;
#X text 254 87 Teste (midi);
#X msg -19 49 start;
#X msg 16 91 play;
#X msg 338 223 tempo \$1;
#X obj 346 197 hsl 128 15 0 127 0 0 empty empty empty -2 -8 0 10 -262144
-1 -1 0 1;
#X obj 110 546 s measure;
#X obj -52 377 s event_number;
#X connect 0 0 26 0;
#X connect 0 1 27 0;
#X connect 0 1 28 0;
#X connect 0 2 29 0;
#X connect 0 3 30 0;
#X connect 0 4 37 0;
#X connect 0 5 31 0;
#X connect 2 0 8 0;
#X connect 3 0 8 0;
#X connect 4 0 8 0;
#X connect 5 0 8 0;
#X connect 6 0 8 0;
#X connect 7 0 8 0;
#X connect 10 0 16 0;
#X connect 11 0 16 0;
#X connect 12 0 16 0;
#X connect 13 0 14 0;
#X connect 14 0 15 0;
#X connect 15 0 16 0;
#X connect 18 0 24 0;
#X connect 19 0 24 0;
#X connect 20 0 24 0;
#X connect 21 0 24 0;
#X connect 22 0 24 0;
#X connect 23 0 24 0;
#X connect 25 0 0 0;
#X connect 26 0 40 0;
#X connect 26 0 59 0;
#X connect 29 0 58 0;
#X connect 32 0 33 0;
#X connect 33 0 24 0;
#X connect 34 0 35 0;
#X connect 35 0 0 0;
#X connect 36 0 0 0;
#X connect 37 0 38 0;
#X connect 37 1 39 0;
#X connect 49 0 47 0;
#X connect 51 0 0 0;
#X connect 52 0 36 0;
#X connect 54 0 0 0;
#X connect 55 0 0 0;
#X connect 56 0 0 0;
#X connect 57 0 56 0;
#X restore 29 -20 pd score_follower;
#X msg 924 -269 \; antescofo-mess score music.asco.txt \; antescofo-mess
start \;;
#X msg 924 -135 \; antescofo-mess stop \;;
#X msg 924 -195 \; antescofo-mess play \;;
#X msg 925 -71 \; antescofo-mess suivi \$1 \;;
#X obj 925 -96 r follow_score;
#X obj 924 -218 r play_along_score;
#X obj 924 -292 r load_score;
#X obj 924 -158 r stop_score;
#X msg 648 -23 \; note_1 0.5 9000 \; note_15 0.5 1000 \; note_14 0.5
5000 \; note_8 0.5 3000 \; note_2 0.5 4000 \; note_5 0.5 12000 \;;
#X msg 787 -21 \; note_1 0 9000 \; note_15 0 1000 \; note_14 0 5000
\; note_8 0 3000 \; note_2 0 4000 \; note_5 0 12000 \;;
#X obj 30 -631 cnv 15 400 200 empty empty empty 20 12 0 14 -212212
-66577 0;
#X symbolatom 128 -511 10 0 0 3 position measure -;
#X obj 223 -511 nbx 5 18 -1e+37 1e+37 0 0 empty event_number event_number
0 25 0 12 -212212 -1 -1 0 256;
#X obj 54 -582 bng 35 250 50 0 load_score empty load 6 18 0 10 -128992
-1 -1;
#X text 53 -610 score follower;
#X obj 174 -582 bng 35 250 50 0 play_along_score empty play 6 17 0
10 -128992 -1 -1;
#X obj 109 -582 tgl 35 0 follow_score empty follow 0 18 0 10 -128992
-1 -1 0 1;
#X obj 236 -581 bng 35 250 50 0 stop_score empty stop 6 17 0 10 -258715
-262144 -1;
#X obj 29 -424 cnv 15 400 200 empty empty empty 20 12 0 14 -220534
-66577 0;
#X text 50 -387 fade_time;
#X obj 55 -364 nbx 5 14 -1e+37 1e+37 0 0 empty smooth empty 0 -8 0
10 -262144 -1 -1 0 256;
#X obj 313 -355 nbx 5 14 -1e+37 1e+37 0 0 empty smooth empty 0 -8 0
10 -262144 -1 -1 0 256;
#X symbolatom 57 -511 3 0 0 3 section section -;
#X text 248 -411 Random;
#X text 248 -378 on/off;
#X obj 251 -355 tgl 15 0 empty rand_amp_on empty 17 7 0 10 -262144
-1 -1 0 1;
#X text 310 -378 tempo;
#X text 53 -414 Monitor;
#X symbolatom 301 -581 12 0 0 3 play_from_measure - play_from_measure
;
#X obj 925 -32 r play_from_measure;
#X obj 685 -449 r antescofo-mess;
#X obj 685 -424 print;
#X msg 925 -9 \; antescofo-mess playfromlabel \$1 \;;
#X connect 2 0 82 0;
#X connect 4 0 5 0;
#X connect 6 0 28 0;
#X connect 7 0 8 0;
#X connect 10 0 9 0;
#X connect 11 0 9 0;
#X connect 12 0 9 0;
#X connect 13 0 37 0;
#X connect 14 0 15 0;
#X connect 16 0 78 0;
#X connect 17 0 78 1;
#X connect 18 0 19 0;
#X connect 20 0 21 0;
#X connect 22 0 27 0;
#X connect 23 0 24 0;
#X connect 25 0 26 0;
#X connect 26 0 23 0;
#X connect 27 0 13 0;
#X connect 28 0 35 0;
#X connect 29 0 28 1;
#X connect 30 0 29 0;
#X connect 31 0 28 2;
#X connect 32 0 30 0;
#X connect 34 0 23 0;
#X connect 35 0 33 0;
#X connect 35 0 33 1;
#X connect 37 0 1 0;
#X connect 52 0 53 0;
#X connect 54 0 57 0;
#X connect 55 0 56 0;
#X connect 56 0 54 0;
#X connect 58 0 54 0;
#X connect 59 0 31 0;
#X connect 61 0 60 1;
#X connect 62 0 64 0;
#X connect 64 0 60 0;
#X connect 66 0 23 0;
#X connect 67 0 31 0;
#X connect 68 0 54 0;
#X connect 69 0 70 0;
#X connect 70 0 17 0;
#X connect 71 0 78 2;
#X connect 72 0 71 0;
#X connect 73 0 72 0;
#X connect 74 0 78 3;
#X connect 75 0 74 0;
#X connect 76 0 75 0;
#X connect 77 0 16 0;
#X connect 79 0 4 0;
#X connect 80 0 7 0;
#X connect 80 0 2 0;
#X connect 81 0 80 0;
#X connect 82 0 3 0;
#X connect 88 0 87 0;
#X connect 89 0 86 0;
#X connect 90 0 84 0;
#X connect 91 0 85 0;
#X connect 113 0 116 0;
#X connect 114 0 115 0;
#X coords 0 878 1 877 85 60 0;
