#N canvas 395 131 450 300 12;
#N canvas 20 50 1123 742 dispatch 0;
#X obj 106 35 inlet;
#X obj 106 57 route cue calibration;
#X obj 106 171 send antescofo-labels;
#X obj 229 119 outlet;
#X obj 253 95 send ante_pos;
#X obj 362 56 r print;
#X obj 362 77 print;
#X obj 167 143 s antescofo_calib;
#X connect 0 0 1 0;
#X connect 1 0 2 0;
#X connect 1 1 7 0;
#X connect 1 2 3 0;
#X connect 1 2 4 0;
#X connect 5 0 6 0;
#X restore 34 205 pd dispatch;
#X obj 82 181 s ante_tempo;
#X obj 259 159 stripnote;
#X obj 123 129 s measure;
#X obj 34 231 s event_number;
#X obj 227 217 s midi_note;
#X obj 227 190 f 0;
#X obj 227 130 t b a;
#X obj -19 233 print;
#X floatatom 313 112 5 0 0 0 - - -;
#X obj 113 31 r antescofo-mess;
#N canvas 193 156 886 711 midi_test 1;
#X obj 27 209 r audio-mess;
#X obj 110 508 outlet~;
#X obj 539 53 loadbang;
#X msg 539 75 analysis 4096 512;
#X obj 539 97 s antescofo-mess;
#X text 536 28 Analysis Parameters:;
#X text 171 508 >> to Antescofo~;
#X msg 53 330 start;
#X obj 125 159 tgl 15 0 empty empty empty 17 7 0 10 -262144 -1 -1 0
1;
#X obj 126 83 t f b;
#X obj 110 241 readsf~ 2;
#X obj 225 340 throw~ audio_testL;
#X obj 271 318 throw~ audio_testR;
#X msg 158 149 open ./preludio/measure9-21.wav;
#X obj 16 10 r test_midi;
#X obj 126 48 r test_midi_m9;
#X obj 17 80 t f b;
#X obj 482 370 cyclone/midiparse;
#X obj 482 342 cyclone/midiflush;
#X text 591 419 synthesizer;
#N canvas 638 210 345 266 polysynth 0;
#X obj 65 20 inlet;
#N canvas 667 245 370 323 synth 0;
#X obj 234 124 / 127;
#X obj 219 204 *~;
#X obj 81 134 phasor~;
#X obj 81 102 mtof;
#X obj 81 31 inlet;
#X obj 219 273 outlet~;
#X obj 81 70 unpack float float;
#X obj 234 174 vline~;
#X msg 234 149 \$1 50;
#X obj 81 162 cyclone/triangle~ 0.9;
#X obj 219 236 /~ 3;
#X connect 0 0 8 0;
#X connect 1 0 10 0;
#X connect 2 0 9 0;
#X connect 3 0 2 0;
#X connect 4 0 6 0;
#X connect 6 0 3 0;
#X connect 6 1 0 0;
#X connect 7 0 1 1;
#X connect 8 0 7 0;
#X connect 9 0 1 0;
#X connect 10 0 5 0;
#X restore 41 151 pd synth;
#X obj 65 84 pack f f f;
#X obj 100 207 outlet~;
#N canvas 667 245 370 323 synth 0;
#X obj 234 124 / 127;
#X obj 219 204 *~;
#X obj 81 134 phasor~;
#X obj 81 102 mtof;
#X obj 81 31 inlet;
#X obj 219 273 outlet~;
#X obj 81 70 unpack float float;
#X obj 234 174 vline~;
#X msg 234 149 \$1 50;
#X obj 81 162 cyclone/triangle~ 0.9;
#X obj 219 236 /~ 3;
#X connect 0 0 8 0;
#X connect 1 0 10 0;
#X connect 2 0 9 0;
#X connect 3 0 2 0;
#X connect 4 0 6 0;
#X connect 6 0 3 0;
#X connect 6 1 0 0;
#X connect 7 0 1 1;
#X connect 8 0 7 0;
#X connect 9 0 1 0;
#X connect 10 0 5 0;
#X restore 100 151 pd synth;
#N canvas 667 245 370 323 synth 0;
#X obj 234 124 / 127;
#X obj 219 204 *~;
#X obj 81 134 phasor~;
#X obj 81 102 mtof;
#X obj 81 31 inlet;
#X obj 219 273 outlet~;
#X obj 81 70 unpack float float;
#X obj 234 174 vline~;
#X msg 234 149 \$1 50;
#X obj 81 162 cyclone/triangle~ 0.9;
#X obj 219 236 /~ 3;
#X connect 0 0 8 0;
#X connect 1 0 10 0;
#X connect 2 0 9 0;
#X connect 3 0 2 0;
#X connect 4 0 6 0;
#X connect 6 0 3 0;
#X connect 6 1 0 0;
#X connect 7 0 1 1;
#X connect 8 0 7 0;
#X connect 9 0 1 0;
#X connect 10 0 5 0;
#X restore 161 152 pd synth;
#X text 124 19 3-voice polyphonic synth;
#X obj 65 115 route 1 2 3, f 18;
#X obj 65 52 poly 3 1;
#X connect 0 0 8 0;
#X connect 1 0 3 0;
#X connect 2 0 7 0;
#X connect 4 0 3 0;
#X connect 5 0 3 0;
#X connect 7 0 1 0;
#X connect 7 1 4 0;
#X connect 7 2 5 0;
#X connect 8 0 2 0;
#X connect 8 1 2 1;
#X connect 8 2 2 2;
#X restore 482 403 pd polysynth;
#X text 588 403 <= 3 voice polyphonic;
#X obj 484 297 midiin;
#X msg 248 74 open ./preludio/prelude-5.wav;
#X msg 8 113 open acc.wav;
#X connect 0 0 10 0;
#X connect 2 0 3 0;
#X connect 3 0 4 0;
#X connect 7 0 10 0;
#X connect 8 0 10 0;
#X connect 9 0 8 0;
#X connect 9 1 13 0;
#X connect 10 0 1 0;
#X connect 10 0 11 0;
#X connect 10 1 1 0;
#X connect 10 1 12 0;
#X connect 13 0 10 0;
#X connect 14 0 16 0;
#X connect 15 0 9 0;
#X connect 16 0 8 0;
#X connect 16 1 24 0;
#X connect 17 0 20 0;
#X connect 18 0 17 0;
#X connect 20 0 1 0;
#X connect 22 0 18 0;
#X connect 24 0 10 0;
#X restore 19 30 pd midi_test;
#X obj 19 79 antescofo~ @outlets beatnum midiout certainty;
#X text -10 2 Antescofo~ version 0.92;
#X obj 132 106 print ----------------;
#X obj 261 31 adc~;
#X connect 0 0 4 0;
#X connect 2 0 6 1;
#X connect 6 0 5 0;
#X connect 7 0 6 0;
#X connect 7 1 2 0;
#X connect 10 0 12 0;
#X connect 11 0 12 0;
#X connect 12 0 0 0;
#X connect 12 1 1 0;
#X connect 12 2 3 0;
#X connect 12 2 14 0;
#X connect 12 4 7 0;
#X connect 12 5 9 0;
#X connect 15 0 12 0;
