#N canvas 363 72 950 667 12;
#X obj 113 31 r antescofo-mess;
#N canvas 20 50 1123 742 dispatch 0;
#X obj 106 35 inlet;
#X obj 106 57 route cue calibration;
#X obj 106 171 send antescofo-labels;
#X obj 229 119 outlet;
#X obj 253 95 send ante_pos;
#X obj 362 56 r print;
#X obj 362 77 print;
#X obj 167 143 s antescofo_calib;
#X connect 0 0 1 0;
#X connect 1 0 2 0;
#X connect 1 1 7 0;
#X connect 1 2 3 0;
#X connect 1 2 4 0;
#X connect 5 0 6 0;
#X restore 113 165 pd dispatch;
#X obj 161 141 s ante_tempo;
#X obj 338 119 stripnote;
#X obj 209 111 s measure;
#X obj 113 191 s event_number;
#X obj 306 177 s midi_note;
#X obj 306 150 f 0;
#X obj 113 62 antescofo~ @outlets beatnum midiout;
#N canvas 137 161 723 711 midi_test 0;
#X obj 27 209 r audio-mess;
#X obj 110 508 outlet~;
#X obj 539 53 loadbang;
#X msg 539 75 analysis 4096 512;
#X obj 539 97 s antescofo-mess;
#X text 536 28 Analysis Parameters:;
#X text 171 508 >> to Antescofo~;
#X msg 53 330 start;
#X obj 125 159 tgl 15 0 empty empty empty 17 7 0 10 -262144 -1 -1 0
1;
#X obj 126 83 t f b;
#X obj 110 241 readsf~ 2;
#X obj 160 292 throw~ audio_testL;
#X obj 183 270 throw~ audio_testR;
#X msg 158 149 open ./preludio/measure9-21.wav;
#X obj 16 10 r test_midi;
#X obj 126 48 r test_midi_m9;
#X obj 17 80 t f b;
#X msg 7 113 open ./preludio/music.wav;
#X connect 0 0 10 0;
#X connect 2 0 3 0;
#X connect 3 0 4 0;
#X connect 7 0 10 0;
#X connect 8 0 10 0;
#X connect 9 0 8 0;
#X connect 9 1 13 0;
#X connect 10 0 1 0;
#X connect 10 0 11 0;
#X connect 10 1 12 0;
#X connect 10 1 1 0;
#X connect 13 0 10 0;
#X connect 14 0 16 0;
#X connect 15 0 9 0;
#X connect 16 0 8 0;
#X connect 16 1 17 0;
#X connect 17 0 10 0;
#X restore 19 30 pd midi_test;
#X obj 306 90 t b a;
#X obj 60 193 print;
#X connect 0 0 8 0;
#X connect 1 0 5 0;
#X connect 1 0 11 0;
#X connect 3 0 7 1;
#X connect 7 0 6 0;
#X connect 8 0 1 0;
#X connect 8 1 2 0;
#X connect 8 2 4 0;
#X connect 8 4 10 0;
#X connect 9 0 8 0;
#X connect 10 0 7 0;
#X connect 10 1 3 0;
