#N canvas 0 22 1440 621 12;
#X obj -62 51 throw~ amb1;
#X obj 22 51 throw~ amb2;
#X obj 108 51 throw~ amb3;
#X obj 198 51 throw~ amb4;
#X obj 288 51 throw~ amb5;
#X obj 378 51 throw~ amb6;
#X obj 468 51 throw~ amb7;
#X obj 558 51 throw~ amb8;
#X obj 658 51 throw~ amb9;
#X obj 748 51 throw~ amb10;
#X obj 848 51 throw~ amb11;
#X obj 938 51 throw~ amb12;
#X obj 1038 51 throw~ amb13;
#X obj 1128 51 throw~ amb14;
#X obj 1228 51 throw~ amb15;
#X obj 1318 51 throw~ amb16;
#X obj -63 21 inlet~;
#X obj 21 21 inlet~;
#X obj 107 21 inlet~;
#X obj 197 21 inlet~;
#X obj 287 21 inlet~;
#X obj 377 21 inlet~;
#X obj 467 21 inlet~;
#X obj 557 21 inlet~;
#X obj 657 21 inlet~;
#X obj 747 21 inlet~;
#X obj 847 21 inlet~;
#X obj 937 21 inlet~;
#X obj 1037 21 inlet~;
#X obj 1127 21 inlet~;
#X obj 1227 21 inlet~;
#X obj 1317 21 inlet~;
#X connect 16 0 0 0;
#X connect 17 0 1 0;
#X connect 18 0 2 0;
#X connect 19 0 3 0;
#X connect 20 0 4 0;
#X connect 21 0 5 0;
#X connect 22 0 6 0;
#X connect 23 0 7 0;
#X connect 24 0 8 0;
#X connect 25 0 9 0;
#X connect 26 0 10 0;
#X connect 27 0 11 0;
#X connect 28 0 12 0;
#X connect 29 0 13 0;
#X connect 30 0 14 0;
#X connect 31 0 15 0;
