#N canvas 629 235 466 559 12;
#X obj 26 -1 loadbang;
#X obj 86 67 random 24;
#X obj 86 91 / 24;
#X obj 146 35 inlet;
#X floatatom 95 120 5 0 0 0 - - -;
#X obj 111 229 symbol harmamp, f 15;
#X obj 111 162 loadbang;
#X obj 86 386 s \$2;
#X obj 112 252 pack s f, f 18;
#X obj 235 227 f \$1;
#X msg 26 45 seed \$1;
#X obj 26 23 f \$1;
#X msg 112 277 \$1\$2;
#X obj 112 300 symbol;
#X symbolatom 112 324 10 0 0 0 - - -;
#X msg 112 347 symbol \$1;
#X obj 111 193 t b b;
#X connect 0 0 11 0;
#X connect 1 0 2 0;
#X connect 2 0 4 0;
#X connect 2 0 7 0;
#X connect 3 0 1 0;
#X connect 5 0 8 0;
#X connect 6 0 16 0;
#X connect 8 0 12 0;
#X connect 9 0 8 1;
#X connect 10 0 1 0;
#X connect 11 0 10 0;
#X connect 12 0 13 0;
#X connect 13 0 14 0;
#X connect 14 0 15 0;
#X connect 15 0 7 1;
#X connect 16 0 5 0;
#X connect 16 1 9 0;
